<!DOCTYPE svg PUBLIC "-//W3C//DTD SVG 1.1//EN" "http://www.w3.org/Graphics/SVG/1.1/DTD/svg11.dtd">
<!-- Uploaded to: SVG Repo, www.svgrepo.com, Transformed by: SVG Repo Mixer Tools -->
<svg fill="#ff0000" width="800px" height="800px" viewBox="0 0 32 32" version="1.1" xmlns="http://www.w3.org/2000/svg">
<g id="SVGRepo_bgCarrier" stroke-width="0"/>
<g id="SVGRepo_tracerCarrier" stroke-linecap="round" stroke-linejoin="round"/>
<g id="SVGRepo_iconCarrier"> <title>hammer-drop</title> <path d="M29.262 19.935l-1.434 0.828-2.004-3.472 2.507-1.447-1.819-3.15-2.507 1.447-2.044-3.54 1.434-0.828-1.968-3.409-0.507 0.293c-2.327-3.949-4.951-5.448-6.37-5.891h-2.669c3.288 1.18 5.69 3.446 7.426 6.822l-0.476 0.275c-3.008-3.491-6.947-6.091-11.244-7.096h-6.377c5.419 0.865 10.042 4.15 13.317 9.581l-0.094 0.054c-2.685-2.653-5.441-4.955-8.54-6.553 2.053 1.441 3.899 3.425 5.678 5.911-3.197-3.196-6.459-5.844-10.438-7.184v2.204c3.606 0.998 7.105 3.682 9.896 7.587l-0.469 0.271 1.968 3.409 1.434-0.828 2.044 3.54-11.596 6.695-0.284-0.492-3.254 1.879 2.387 4.134 3.254-1.879-0.284-0.492 11.596-6.695 2.004 3.472-1.434 0.828 1.968 3.409 10.865-6.273-1.968-3.409zM10.824 3.291c2.607 1.076 4.955 3.091 6.201 5.613l-0.711 0.41-5.49-6.024z"/> </g>
</svg>