<?xml version="1.0" encoding="UTF-8" standalone="no"?>
<!-- Created with Inkscape (http://www.inkscape.org/) -->

<svg
   width="100mm"
   height="100mm"
   viewBox="0 0 100 100"
   version="1.1"
   id="svg5"
   sodipodi:docname="run.svg"
   inkscape:version="1.1.2 (0a00cf5339, 2022-02-04)"
   inkscape:export-filename="run.png"
   inkscape:export-xdpi="25.4"
   inkscape:export-ydpi="25.4"
   xmlns:inkscape="http://www.inkscape.org/namespaces/inkscape"
   xmlns:sodipodi="http://sodipodi.sourceforge.net/DTD/sodipodi-0.dtd"
   xmlns="http://www.w3.org/2000/svg"
   xmlns:svg="http://www.w3.org/2000/svg">
  <sodipodi:namedview
     id="namedview7"
     pagecolor="#ffffff"
     bordercolor="#666666"
     borderopacity="1.0"
     inkscape:pageshadow="2"
     inkscape:pageopacity="0.0"
     inkscape:pagecheckerboard="0"
     inkscape:document-units="mm"
     showgrid="false"
     inkscape:zoom="2.0558125"
     inkscape:cx="184.59855"
     inkscape:cy="297.69252"
     inkscape:window-width="1366"
     inkscape:window-height="699"
     inkscape:window-x="0"
     inkscape:window-y="0"
     inkscape:window-maximized="1"
     inkscape:current-layer="layer1"
     fit-margin-top="0"
     fit-margin-left="0"
     fit-margin-right="0"
     fit-margin-bottom="0" />
  <defs
     id="defs2">
    <filter
       style="color-interpolation-filters:sRGB;"
       inkscape:label="Drop Shadow"
       id="filter832"
       x="-0.07613466"
       y="-0.063446522"
       width="1.1521349"
       height="1.1267858">
      <feFlood
         flood-opacity="0.498039"
         flood-color="rgb(0,0,0)"
         result="flood"
         id="feFlood822" />
      <feComposite
         in="flood"
         in2="SourceGraphic"
         operator="in"
         result="composite1"
         id="feComposite824" />
      <feGaussianBlur
         in="composite1"
         stdDeviation="2.5"
         result="blur"
         id="feGaussianBlur826" />
      <feOffset
         dx="0"
         dy="0"
         result="offset"
         id="feOffset828" />
      <feComposite
         in="SourceGraphic"
         in2="offset"
         operator="over"
         result="composite2"
         id="feComposite830" />
    </filter>
  </defs>
  <g
     inkscape:label="Calque 1"
     inkscape:groupmode="layer"
     id="layer1"
     transform="translate(-58.569532,-77.904688)">
    <path
       style="stroke-opacity:1;stroke-dasharray:none;stroke-miterlimit:4;stroke-linejoin:miter;stroke-linecap:butt;stroke-width:0;stroke:#000000;fill-opacity:1;fill:#fffffe;"
       d="m 86.382299,117.35235 c -1.558823,0.15078 -3.19181,-0.62573 -3.436346,-1.78948 -0.244536,-1.16375 -0.03945,-2.81666 0.544528,-3.31967 0.583974,-0.50301 1.135119,-0.99002 2.721623,-1.06342 1.586503,-0.0734 1.592063,-0.43748 3.097358,-2.9014 1.505296,-2.46392 4.539974,-7.38289 5.807446,-8.936324 1.267473,-1.55344 1.806212,-2.16449 3.911273,-3.26081 2.105059,-1.09632 7.998599,-1.53039 8.984939,-1.95091 0.98633,-0.42052 1.17019,-1.32443 0.79062,-3.18239 -0.37956,-1.85795 -1.52806,-4.37757 -1.16504,-6.38459 0.36302,-2.007022 0.59858,-3.799232 2.47581,-4.921063 1.87724,-1.121831 5.43897,-1.516299 7.81487,-0.434214 2.3759,1.082085 3.21047,2.356456 4.07654,5.371197 0.86607,3.01474 0.27096,9.4481 -0.71657,11.25034 -0.98716,1.80224 -2.12252,1.53269 -3.47381,1.26334 -1.35128,-0.26934 -2.09387,-2.00004 -2.70271,-0.5248 -0.60883,1.47523 1.85387,1.91945 2.7387,3.28897 0.88484,1.369514 0.70137,4.032234 1.90639,5.100394 1.20502,1.06816 2.19989,1.16661 3.84239,0.65146 1.6425,-0.51515 3.5698,-2.60587 4.32506,-4.18455 0.75526,-1.578674 -0.15046,-2.696514 0.59506,-4.176704 0.74552,-1.48019 2.38759,-3.56491 3.69365,-3.8921 1.30605,-0.32719 2.80651,-0.0516 3.06849,0.88522 0.26199,0.93683 0.44828,2.49911 0.008,4.17472 -0.4399,1.675604 -2.07709,2.739914 -3.24854,4.763234 -1.17145,2.02332 -2.53583,4.8689 -3.73364,7.01218 -1.19781,2.14328 -1.9444,4.52098 -3.76362,5.68206 -1.81922,1.16108 -5.65275,-0.25933 -6.11908,0.59016 -0.46633,0.84949 -1.33108,7.76744 -1.40703,9.59578 -0.0759,1.82835 -0.41164,4.47294 0.35694,5.39747 0.76858,0.92453 7.29099,-0.15306 11.4935,0.18018 4.20251,0.33325 7.92266,0.97106 10.02419,3.96466 2.10153,2.9936 2.01894,4.17073 2.15265,8.2845 0.13371,4.11377 -2.16492,10.17128 -2.59871,14.01085 -0.43379,3.83957 -1.0091,7.80598 0.54067,10.27512 1.54977,2.46914 8.60897,2.27356 9.40746,2.80118 0.79848,0.52762 1.77921,1.34832 0.84399,2.45185 -0.93522,1.10353 -16.54107,0.93042 -17.10762,-0.21396 -0.56656,-1.14439 0.65639,-6.75168 0.54666,-11.20465 -0.10973,-4.45297 -1.95365,-11.33254 -1.96596,-14.45557 -0.0123,-3.12302 2.03005,-4.94709 -0.11526,-5.87434 -0.82521,-0.35668 -6.02507,0.22934 -9.73407,0.0591 -3.70899,-0.17029 -7.23427,-1.08786 -7.96034,-0.82733 -1.45214,0.52114 -7.84797,9.09749 -11.75386,12.21639 -3.905891,3.11889 -5.076206,2.32804 -8.75255,4.06072 -3.676344,1.73268 -10.22602,4.99158 -13.41659,6.51334 -3.19057,1.52176 -4.10821,0.22634 -5.59013,2.885 -1.48192,2.65865 -1.30176,8.85997 -1.99072,9.99682 -0.68896,1.13685 -3.3344,0.69112 -3.59139,-0.33203 -0.25698,-1.02314 -0.72646,-11.70863 0.76324,-13.27689 1.48971,-1.56826 2.98645,1.49777 4.29024,-0.14693 1.30378,-1.64471 8.22095,-8.60225 11.572333,-10.82508 3.351382,-2.22283 5.486496,-2.34473 7.547667,-3.68494 2.061171,-1.34021 2.569289,-3.06045 4.289895,-5.22655 1.720607,-2.1661 2.504427,-2.50105 2.289372,-5.10897 -0.215055,-2.60792 -0.148076,-5.12359 0.221497,-6.79603 0.369573,-1.67244 2.157006,-4.70242 3.238526,-6.60465 1.08152,-1.90223 0.71425,-10.7417 0.67044,-13.51597 -0.0438,-2.77427 0.2951,-6.95151 -0.99277,-7.84352 -1.28788,-0.89201 -7.088837,4.4682 -8.784004,6.95982 -1.695167,2.49162 -1.332678,2.89883 -2.038272,4.01872 -1.23458,1.99736 -2.934562,3.00429 -4.493385,3.15506 z"
       id="path430"
       sodipodi:nodetypes="zzzzzzzzzzzzzzzzzzzzzzzzzzzzzzzzzzzzzzzzssszzzzzzzzzzzzzzzzzcz"
       inkscape:export-filename="/home/stela/unvanquished assets/path430.png"
       inkscape:export-xdpi="25.607176"
       inkscape:export-ydpi="25.607176" />
  </g>
</svg>
