<?xml version="1.0" encoding="UTF-8"?>
<svg width="150" height="150" version="1.1" viewBox="0 0 39.688 39.688" xmlns="http://www.w3.org/2000/svg" xmlns:cc="http://creativecommons.org/ns#" xmlns:dc="http://purl.org/dc/elements/1.1/" xmlns:rdf="http://www.w3.org/1999/02/22-rdf-syntax-ns#">
 <metadata>
  <rdf:RDF>
   <cc:Work rdf:about="">
    <dc:format>image/svg+xml</dc:format>
    <dc:type rdf:resource="http://purl.org/dc/dcmitype/StillImage"/>
    <dc:title/>
    <cc:license rdf:resource="http://creativecommons.org/licenses/by-sa/4.0/"/>
    <dc:creator>
     <cc:Agent>
      <dc:title>Gireen</dc:title>
     </cc:Agent>
    </dc:creator>
   </cc:Work>
   <cc:License rdf:about="http://creativecommons.org/licenses/by-sa/4.0/">
    <cc:permits rdf:resource="http://creativecommons.org/ns#Reproduction"/>
    <cc:permits rdf:resource="http://creativecommons.org/ns#Distribution"/>
    <cc:requires rdf:resource="http://creativecommons.org/ns#Notice"/>
    <cc:requires rdf:resource="http://creativecommons.org/ns#Attribution"/>
    <cc:permits rdf:resource="http://creativecommons.org/ns#DerivativeWorks"/>
    <cc:requires rdf:resource="http://creativecommons.org/ns#ShareAlike"/>
   </cc:License>
  </rdf:RDF>
 </metadata>
 <path d="m15.614 2.5791c-1.3878 0.0059-5.8066 3.0621-6.2453 3.5008-1.2683 1.2683 4.6105 3.7736 1.3599 7.0242-0.01129 0.01135-1.7078-3.353-2.5681-2.4926-0.22496 0.22497-2.9415 7.405-2.4921 7.8544 0.081055 0.08105-0.00452 0.23138-0.056784 0.28333-3.6003 2.3477 2.0474 7.6602 3.5918 8.5274-2.4999 2.2431-5.6868 5.4215-0.43821 8.2579 0.53363 0.28836 8.1138 2.0816 8.7606 1.4348 0.51012-0.5101-0.34623-0.98172-0.9062-0.98172-0.97145 0-7.7801-2.7174-6.042-4.4555 0.80149-0.8015 5.259-3.8042 7.0237-2.0395 0.35388 0.35386-0.19939 0.86664-0.01863 1.2838 0.12257 0.28289 1.031 1.3905 1.1515 1.5109 0.13744 0.13743 0.46985-1.1333 0.67966-1.1333 0.12793 0 0.27842-0.0099 0.43051-0.01818 0.15209 0.0083 0.30207 0.01818 0.42997 0.01818 0.20981 0 0.54221 1.2707 0.67966 1.1333 0.12045-0.12045 1.0295-1.228 1.152-1.5109 0.18065-0.41715-0.37319-0.92993-0.01919-1.2838 1.7647-1.7647 6.2227 1.238 7.0242 2.0395 1.7382 1.7382-5.0705 4.4555-6.0419 4.4555-0.55996 0-1.4169 0.47162-0.90676 0.98172 0.64678 0.64678 8.2275-1.1465 8.7611-1.4348 5.2488-2.8365 2.0617-6.0153-0.43821-8.2584 1.5453-0.86839 7.191-6.1795 3.5912-8.5269-0.05213-0.05195-0.13784-0.20172-0.05678-0.28278 0.44942-0.44941-2.2671-7.6299-2.4921-7.8549-0.86036-0.86037-2.5563 2.504-2.5676 2.4926-3.2506-3.2507 2.6276-5.756 1.3593-7.0242-0.43872-0.43871-4.8569-3.4949-6.2448-3.5008-0.14357-5.64e-4 -0.25482 0.03158-0.32577 0.10253-0.48724 0.48722-1.0083 1.5237-1.7369 1.8879-0.31282 0.15641-0.65888-0.28132-0.9062-0.52862-0.10725-0.10723-0.62962-0.11037-1.2612-0.06339-0.63159-0.04698-1.1539-0.04385-1.2612 0.06339-0.24731 0.2473-0.59341 0.68503-0.90623 0.52862-0.72857-0.36428-1.2502-1.4007-1.7374-1.8879-0.07095-0.07095-0.18164-0.10314-0.32524-0.10253zm-8.2419 19.082c0.15548 0.0074 0.36447 0.07152 0.63721 0.20395 0.49248 0.23911 1.3365 0.7226 1.6619 0.98173 0.54399 0.43322-0.56084 0.658-1.2844 1.6426 1.5975 0.94075 2.4913 0.10079 2.7004 0.35884 0.2211 0.27274 0.16225 0.51555-0.5187 1.184-0.34812 0.34174-0.7906 0.73048-1.259 1.1493-0.38228-1.0559-3.3345-5.5869-1.9376-5.5205zm24.944 0c1.397-0.06639-1.5553 4.4646-1.9375 5.5205-0.46838-0.41881-0.91088-0.80756-1.259-1.1493-0.68095-0.66848-0.7398-0.91129-0.5187-1.184 0.20919-0.25805 1.1024 0.58191 2.6999-0.35884-0.72352-0.98464-1.8278-1.2094-1.2838-1.6426 0.32541-0.25913 1.1689-0.74262 1.6614-0.98173 0.27274-0.13243 0.4823-0.19656 0.63775-0.20395zm-13.584 4.81c0.19541-8e-6 0.35388 0.15847 0.35388 0.35389 0 0.19541-0.15847 0.35334-0.35388 0.35333-0.19541 9e-6 -0.35388-0.15792-0.35388-0.35333 0-0.19542 0.15847-0.35389 0.35388-0.35389zm2.2231 0c0.19541-8e-6 0.35388 0.15847 0.35388 0.35389 0 0.19541-0.15847 0.35334-0.35388 0.35333-0.19541 9e-6 -0.35388-0.15792-0.35388-0.35333 0-0.19542 0.15847-0.35389 0.35388-0.35389zm-2.4033 1.4282c0.16962-9e-6 0.30706 0.13742 0.30703 0.30703 2.9e-5 0.1696-0.13742 0.3076-0.30703 0.30758-0.16959 1.4e-5 -0.30703-0.13798-0.30703-0.30758 0-0.16961 0.13744-0.30704 0.30703-0.30703zm2.5836 0c0.16959-9e-6 0.30703 0.13742 0.30703 0.30703 0 0.1696-0.13744 0.3076-0.30703 0.30758-0.16962 1.4e-5 -0.30706-0.13798-0.30703-0.30758-2.8e-5 -0.16961 0.13742-0.30704 0.30703-0.30703zm-2.6569 1.3086c0.16589 1.3e-5 0.30043 0.1497 0.30043 0.33404-5.6e-5 0.18429-0.13459 0.33347-0.30043 0.33349-0.16586-1.6e-5 -0.30037-0.1492-0.3004-0.33349-2.9e-5 -0.18435 0.13448-0.33403 0.3004-0.33404zm2.7302 0c0.16592 1.3e-5 0.30043 0.1497 0.3004 0.33404-2.8e-5 0.18429-0.13454 0.33347-0.3004 0.33349-0.16584-1.6e-5 -0.30037-0.1492-0.30043-0.33349 0-0.18435 0.13454-0.33403 0.30043-0.33404z" fill="#fff"/>
</svg>
