<?xml version="1.0" encoding="UTF-8"?>
<svg width="150" height="150" version="1.1" viewBox="0 0 39.688 39.688" xmlns="http://www.w3.org/2000/svg" xmlns:cc="http://creativecommons.org/ns#" xmlns:dc="http://purl.org/dc/elements/1.1/" xmlns:rdf="http://www.w3.org/1999/02/22-rdf-syntax-ns#">
 <metadata>
  <rdf:RDF>
   <cc:Work rdf:about="">
    <dc:format>image/svg+xml</dc:format>
    <dc:type rdf:resource="http://purl.org/dc/dcmitype/StillImage"/>
    <dc:title/>
    <cc:license rdf:resource="http://creativecommons.org/licenses/by-sa/4.0/"/>
    <dc:creator>
     <cc:Agent>
      <dc:title>Gireen</dc:title>
     </cc:Agent>
    </dc:creator>
   </cc:Work>
   <cc:License rdf:about="http://creativecommons.org/licenses/by-sa/4.0/">
    <cc:permits rdf:resource="http://creativecommons.org/ns#Reproduction"/>
    <cc:permits rdf:resource="http://creativecommons.org/ns#Distribution"/>
    <cc:requires rdf:resource="http://creativecommons.org/ns#Notice"/>
    <cc:requires rdf:resource="http://creativecommons.org/ns#Attribution"/>
    <cc:permits rdf:resource="http://creativecommons.org/ns#DerivativeWorks"/>
    <cc:requires rdf:resource="http://creativecommons.org/ns#ShareAlike"/>
   </cc:License>
  </rdf:RDF>
 </metadata>
 <path d="m28.317 4.457c-0.06735 2.823e-4 -0.13272 0.00344-0.19581 0.00914 1.0497 0.57628 1.8986 1.2637 2.1413 1.4841 0.14321 0.14322 0.33252 0.42944 0.5107 0.69273-0.68128-0.34678-1.8555-0.69273-2.1551-0.69273-0.28483 0-1.4106-0.49905-1.5914-0.31823-0.08265 0.082647 2.4589 1.167 1.167 1.167-0.26914 0-1.4283-0.42831-1.6444-0.2122-0.19877 0.19877 4.5428 4.5278 4.5089 4.5618-0.4591 0.4591-5.1496-2.9266-5.3859-2.9266 0.07748 0.3306 0.12747 0.51109 0.16926 0.60788-0.24102-0.09767-0.30901 0.0076-0.60092-0.04322 0.25212 1.1801 2.2082 3.209 3.5366 4.1655 0.02965 0.17797-0.07248 1.0944 0.15911 1.326 0.3503 0.3503 3.2984 1.1044 2.0157 2.3871-0.14216 0.14215-0.53376-0.0035-0.63646-0.10617-0.15603-0.15603 0.2133-0.58227 0.15911-0.63646-0.18134-0.18134-1.2001 0.86864-1.6975 0.37131-0.1555-0.15549 0.11006-0.52653 0-0.6366-0.10362-0.10362-1.8705 0.8096-1.9626 0.90174-0.09842 0.09842-1.6082 0.30146-1.7505 0.15912-0.05903-0.05904 0.03722-1.0264-0.31823-0.84866-0.43398 0.21699-0.46312 0.56914-0.74263 0.84866-0.50253 0.50252-1.7862 0.35385-2.3341 0.90174-0.2185 0.2185 0.0934-2.1091-0.74263-1.2731-0.53401 0.53402-1.1911 0.873-1.7504 1.4323-0.83681 0.83682-1.1132 2.0679-1.8566 2.8113-0.15938 0.15938-0.74581-0.20887-0.90174-0.05294-0.15191 0.1519-0.43638 0.54612-0.72841 0.72029-0.29211 0.17421-0.61056 0.14708-0.94279 0.39409-0.57997 0.43119-0.73708 0.85413-1.0741 1.0226-0.2525 0.12621-0.97063 0.1044-1.3472 0.11299-0.32207 0.0074-0.65933 0.1765-0.99471 0.16202-0.4104-0.0177-0.82279 0.0454-1.1342 0.09356-0.65896 0.10188-0.94976 0.4728-0.25354 1.6261 0.05762-0.05871 0.93431-0.55448 1.4869-0.72668 0.12245-0.03816 1.5362-0.45303 1.6233-0.44819 0.05359 0.0031 0.13779 0.13155-0.3803 0.44093-0.35262 0.21057-0.92297 0.25627-1.2902 0.38074-0.21856 0.07409-0.37124 0.27896-0.34651 0.28008-2.4422 1.7566-0.56887 1.4676-1.249 2.1477-0.83306 0.83307-2.2946-1.1002-3.3418-0.05294-0.25948 0.25948 1.1558 0.09484 1.2201 0.15911 0.22229 0.22229 1.5534 0.36132 2.0688 0.2122 0.54877-0.15877 2.174-0.50868 3.1456-1.1614 0.44804-0.301-0.0188 0.24373-0.34724 0.90928 3.0425-1.0343 4.3959-0.61226 4.6279-0.2254 0.06608 0.11019-1.3517 0.76131-1.4853 0.79572-0.52734 0.13583-0.50098 0.45486-0.41773 0.63921-0.61866-0.34018-3.6182 0.61885-4.0875 1.2211-0.20824 0.26724-2.0813 0.50032-3.7289 0.47995-0.40107-5e-3 -1.0966-0.10071-1.2304-0.23454-0.3124-0.3124-0.6065-0.68106 0.02249-1.31 0.12476-0.12476 0.53963-0.47749 0.47749-0.47749-0.22912 0-1.2902 0.12358-1.4322 0.26529-0.27265 0.2721-3.6094 0.63732-3.1479 2.6173 0.13429 0.57613 0.64947 0.56205 1.2282 0.63573 1.4141 0.18002 3.3739-0.12114 4.7741 0.19987 2.6156 0.01466 4.0558 1.8076 4.7839 2.541 0.51241 0.5124 1.4471 0.43918 1.9627 0.95482 0.14935 0.14936 2.5992 0.31897 2.5992 0.31838 0-0.6266-1.3952-1.6076-1.8035-2.0158-0.21885-0.21885 0.18856-0.87214 0.47734-0.58337 0.91137 0.91137 3.9481 0.0302 4.6149-0.6366 0.15707-0.15707-2.105-0.99109-2.2279-1.1139-0.16122-0.16122 1.1529-0.25114 1.8035-0.90174 0.06581-0.06581-1.5158-0.07565-1.1139-0.47749 0.66928-0.66928 0.77061-1.8313 1.4323-2.493 1.024-1.024 2.8532 3.5429 3.2356 3.9253 0.24212 0.24211 0.35786 2.2943 0.90174 1.7504 0.21841-0.21842 2.3072-4.5356 1.7505-5.0922-0.21578-0.21578-1.6109-0.72315-2.0157-0.31837-0.22986 0.22986-0.37131 1.227-0.37131 0.90189 0-0.41994-0.51397-0.7226-0.2122-1.3261 0.18215-0.36429 2.0002-0.03974 2.5064 8.47e-4 1.3698 0.1099 2.0265 0.86807 2.115 0.95657 0.15421 0.15421 1.2427 2.3551 1.2665 2.3313 0.87418-0.57151 1.3023-3.2594 1.061-4.0314-0.21033-0.67288 0.35764-0.17878 1.2146-0.46472 0.90119-0.30071 2.112-1.3767 2.6576-1.9223 0.86604-0.86604 1.6986-2.386 2.0666-3.3354 1.2673-3.2693 0.85054-8.8654-0.47531-11.517-0.25406-0.5081-1.6762-3.2223-3.3418-3.554 0.13973 0.78798 0.129 0.84956-0.10603 1.1139-0.06696 0.066969-1.3257-0.68907-1.4323-0.79571-0.70506-0.61062-2.1552-1.1812-3.1654-1.175zm-18.374 20.212c-0.0053 0.0054-0.0063 0.0085 0.0033 0.0058-0.0011-2e-3 -0.0023-0.0038-0.0033-0.0058zm16.14-15.761c0.02746-0.0011 0.05873 2e-3 0.09486 0.0129 0.06907 0.04458 0.14259 0.09332 0.21379 0.13982-0.1259-0.05215-0.25045-0.09934-0.37291-0.13982-0.0014-8.47e-4 -0.0022-0.0011-0.0036-2e-3 0.02004-0.0051 0.04214-0.0099 0.06788-0.01087zm-11.047 13.127a0.32078 0.27028 9.9916 0 1 0.33752 0.27196 0.32078 0.27028 9.9916 0 1-0.3001 0.27196 0.32078 0.27028 9.9916 0 1-0.33752-0.27196 0.32078 0.27028 9.9916 0 1 0.3001-0.27196zm-0.59541 0.6189a0.21098 0.2438 0 0 1 0.21089 0.24382 0.21098 0.2438 0 0 1-0.21089 0.24382 0.21098 0.2438 0 0 1-0.21104-0.24382 0.21098 0.2438 0 0 1 0.21104-0.24382zm0.67982 0.28138a0.32488 0.25455 23.779 0 1 0.36566 0.26717 0.32488 0.25455 23.779 0 1-0.2531 0.26732 0.32488 0.25455 23.779 0 1-0.3658-0.26732 0.32488 0.25455 23.779 0 1 0.25325-0.26717z" fill="#fff"/>
</svg>
