<?xml version="1.0" encoding="UTF-8"?>
<svg width="150" height="150" version="1.1" viewBox="0 0 39.688 39.688" xmlns="http://www.w3.org/2000/svg" xmlns:cc="http://creativecommons.org/ns#" xmlns:dc="http://purl.org/dc/elements/1.1/" xmlns:rdf="http://www.w3.org/1999/02/22-rdf-syntax-ns#">
 <metadata>
  <rdf:RDF>
   <cc:Work rdf:about="">
    <dc:format>image/svg+xml</dc:format>
    <dc:type rdf:resource="http://purl.org/dc/dcmitype/StillImage"/>
    <dc:title/>
    <cc:license rdf:resource="http://creativecommons.org/licenses/by-sa/4.0/"/>
    <dc:creator>
     <cc:Agent>
      <dc:title>Gireen</dc:title>
     </cc:Agent>
    </dc:creator>
   </cc:Work>
   <cc:License rdf:about="http://creativecommons.org/licenses/by-sa/4.0/">
    <cc:permits rdf:resource="http://creativecommons.org/ns#Reproduction"/>
    <cc:permits rdf:resource="http://creativecommons.org/ns#Distribution"/>
    <cc:requires rdf:resource="http://creativecommons.org/ns#Notice"/>
    <cc:requires rdf:resource="http://creativecommons.org/ns#Attribution"/>
    <cc:permits rdf:resource="http://creativecommons.org/ns#DerivativeWorks"/>
    <cc:requires rdf:resource="http://creativecommons.org/ns#ShareAlike"/>
   </cc:License>
  </rdf:RDF>
 </metadata>
 <g transform="matrix(.072961 0 0 .072961 -3.1821 -18.784)" fill="#fff">
  <path transform="matrix(3.8682 0 0 3.8682 -3456.3 3069.3)" d="m923.46-725.34c-0.24017-0.15037-1.1321 5.4513-0.29296 10.574 0.0557 0.34024-1.2517 0.48921-1.3496 1.375-0.58738 5.3129-0.0957 11.492 3.5898 15.178 9.0278 9.0278 16.757 21.718 25.07 30.031 2.9083 2.9083-0.30858 11.079-2.5801 17.215-1.1568 3.1246-1.2619 6.0391-2.1211 6.8106-5.1174 4.5951-1.2639 4.3503-7.8594 11.488-0.35545 0.38468-2.4486-0.38222-2.8672 4e-3 -0.77747 0.71722-11.38 0.3792-16.318 5.4102-0.25863 0.26347 22.315-3.2726 17.705 1.3633-1.3483 1.3559-11.89 3.9082-19.52 7.9414-3.2197 1.702-6.3012 3.1366-7.3398 5.7148 1.7363 1.7363 27.315-5.6937 29.51-5.877 3.2332-0.44147 8.6551 0.7293 10.086 2.1602 0.46345 0.46346 5.3105 0.45335 4.6992 0.7832-7.7285 4.1701-12.682 10.965-13.811 16.818-0.40368 2.0939 0.31511 6.9223 3.6836 10.479 3.0901-3.0901 3.5879-9.5293 6.4707-12.412 5.8758-5.8758 19.611-11.365 24.848-11.002v2e-3c0.0142-1e-3 0.0325 1e-3 0.0469 0 0.0137 1e-3 0.0313-1e-3 0.0449 0v-2e-3c5.2365-0.36272 18.972 5.1262 24.848 11.002 2.8828 2.8828 3.3806 9.322 6.4707 12.412 3.3684-3.5562 4.0892-8.3846 3.6855-10.479-1.1285-5.8536-6.084-12.648-13.812-16.818-0.61132-0.32985 4.2377-0.31974 4.7012-0.7832 1.4308-1.4309 6.8507-2.6016 10.084-2.1602 2.1945 0.18325 27.773 7.6132 29.51 5.877-1.0386-2.5782-4.1201-4.0128-7.3398-5.7148-7.6295-4.0332-18.171-6.5855-19.52-7.9414-4.6098-4.6359 17.964-1.0998 17.705-1.3633-4.9386-5.031-15.541-4.6929-16.318-5.4102-0.4186-0.38613-2.5118 0.38077-2.8672-4e-3 -6.5955-7.1379-2.742-6.8932-7.8594-11.488-0.8592-0.77148-0.9643-3.686-2.1211-6.8106-2.2715-6.1355-5.4883-14.307-2.5801-17.215 8.3132-8.3132 16.042-21.003 25.07-30.031 3.6856-3.6855 4.1792-9.8649 3.5918-15.178-0.098-0.88579-1.4073-1.0348-1.3515-1.375 0.8392-5.123-0.053-10.725-0.293-10.574-0.01 5e-3 -0.015 0.0162-0.022 0.0332-1.4928 4.0293-1.3144 6.5973-3.6386 8.9688-0.2493 0.25436-0.7057-0.36019-1.0625-0.14258-3.3953 2.0705-8.3623 5.1544-12.774 5.5449-3.0899 0.27352-6.2112 0.11753-9.0683-0.4375-2.5581-0.49693-4.7589-1.7886-6.7207-2.7695-3.9299-1.965-9.4003-3.8184-13.121-3.6406-1.2116 0.0579-0.57475 0.7375-2.1289 1.5215-1.3337 0.27554-1.9852 0.19948-3.0508 0.12891v-6e-3c-0.0241 2e-3 -0.0389 2e-3 -0.0625 4e-3 -0.0244-2e-3 -0.0396-2e-3 -0.0645-4e-3v6e-3c-1.0656 0.0706-1.7171 0.14663-3.0508-0.12891-1.5542-0.78398-0.91533-1.4636-2.127-1.5215-3.7208-0.17781-9.1931 1.6756-13.123 3.6406-1.9618 0.98091-4.1626 2.2726-6.7207 2.7695-2.8571 0.55503-5.9765 0.71102-9.0664 0.4375-4.4112-0.39048-9.3801-3.4744-12.775-5.5449-0.35684-0.21761-0.81321 0.39694-1.0625 0.14258-2.3242-2.3715-2.1459-4.9395-3.6387-8.9688-6e-3 -0.017-0.0137-0.0283-0.0215-0.0332zm51.65 20.93c5.6112 0.0375 10.148 4.5937 10.148 10.213-1e-4 5.6192-4.5368 10.176-10.148 10.213-5.6117-0.0373-10.15-4.5937-10.15-10.213 1.1e-4 -5.6199 4.5383-10.176 10.15-10.213zm-1.6172 83.824c0.32448-1.1e-4 0.58776 0.35056 0.58789 0.78321 8e-5 0.43283-0.26326 0.78331-0.58789 0.7832-0.32444-2.6e-4 -0.58798-0.35063-0.58789-0.7832 1.2e-4 -0.43238 0.2636-0.78295 0.58789-0.78321zm3.2324 0c0.32428 2.6e-4 0.58777 0.35083 0.58789 0.78321 9e-5 0.43257-0.26346 0.78294-0.58789 0.7832-0.32463 1.1e-4 -0.58798-0.35037-0.58789-0.7832 1.3e-4 -0.43265 0.26341-0.78332 0.58789-0.78321zm-3.4277 2.5449c0.39663 1e-4 0.7169 0.39408 0.71679 0.88086-1.2e-4 0.48659-0.32032 0.88272-0.71679 0.88282-0.39668 2.4e-4 -0.71863-0.39599-0.71876-0.88282-1e-4 -0.48702 0.32192-0.8811 0.71876-0.88086zm3.623 0c0.39684-2.4e-4 0.71886 0.39384 0.71875 0.88086-1.2e-4 0.48683-0.32207 0.88306-0.71875 0.88282-0.39648-1e-4 -0.71667-0.39623-0.7168-0.88282-1e-4 -0.48678 0.32016-0.88076 0.7168-0.88086zm-4.0156 2.2207c0.36047-1e-5 0.6522 0.35064 0.65234 0.7832 9e-5 0.43276-0.29171 0.7832-0.65234 0.7832-0.36064 0-0.65244-0.35044-0.65235-0.7832 1.4e-4 -0.43256 0.29188-0.78321 0.65235-0.7832zm4.4082 0c0.36047-1e-5 0.65221 0.35064 0.65234 0.7832 1e-4 0.43276-0.29171 0.7832-0.65234 0.7832s-0.65244-0.35044-0.65234-0.7832c1.4e-4 -0.43256 0.29187-0.78321 0.65234-0.7832z"/>
  <circle cx="314.8" cy="384.87" r="17.581"/>
 </g>
</svg>
