<?xml version="1.0" encoding="UTF-8"?>
<svg width="100" height="100" version="1.1" viewBox="0 0 26.458 26.458" xmlns="http://www.w3.org/2000/svg">
	<g fill="#fff">
		<path d="m19.575 2.2242v3.9688c0 0.79375 2.1167 2.6458 2.6458 2.6458 0.52916 1e-6 2.6458-1.8521 2.6458-2.6458v-3.9688h-5.2917zm0.89969 1.1643h3.4923v2.5394c0 0.18962-0.10004 0.36026-0.23254 0.54312-0.13251 0.18286-0.30836 0.37078-0.49248 0.54467-0.18412 0.17389-0.37588 0.33117-0.5488 0.44907-0.086457 0.05895-0.16823 0.1083-0.24391 0.14469-0.075679 0.036398-0.14242 0.064596-0.22841 0.064596-0.085989 0-0.15325-0.028198-0.22893-0.064596-0.075678-0.036398-0.15538-0.085744-0.24184-0.14469-0.17292-0.1179-0.36676-0.27518-0.55087-0.44907-0.18412-0.17389-0.3579-0.36181-0.49041-0.54467-0.1325-0.18286-0.23409-0.3535-0.23409-0.54312v-2.3807-0.15865zm0.31833 0.31678v2.2226c0 0.048507 0.056027 0.19609 0.17157 0.35553 0.11554 0.15944 0.28013 0.33832 0.4532 0.50178 0.17307 0.16346 0.35554 0.31272 0.51005 0.41806 0.077249 0.052671 0.14854 0.094689 0.20309 0.12092 0.05454 0.026233 0.096517 0.033073 0.089917 0.033073-0.00661 0 0.036917-0.006839 0.091467-0.033073 0.054546-0.026234 0.12429-0.068252 0.20154-0.12092 0.1545-0.10534 0.33853-0.25461 0.5116-0.41806 0.17307-0.16346 0.3356-0.34233 0.45114-0.50178 0.11554-0.15944 0.17363-0.30703 0.17363-0.35553v-2.2226h-2.8572zm1.4278 0.12351a0.1323 0.1323 0 0 1 0.12247 0.082166l0.3421 0.83354 0.83406 0.3421a0.1323 0.1323 0 0 1 0 0.24495l-0.83406 0.34261-0.3421 0.83354a0.1323 0.1323 0 0 1-0.24495 0l-0.3421-0.83354-0.83406-0.34261a0.1323 0.1323 0 0 1 0-0.24495l0.83406-0.3421 0.3421-0.83354a0.1323 0.1323 0 0 1 0.12247-0.082166zm0 0.48059-0.24081 0.58704a0.1323 0.1323 0 0 1-0.072347 0.07183l-0.58704 0.24133 0.58704 0.24081a0.1323 0.1323 0 0 1 0.072347 0.07183l0.24081 0.58704 0.24133-0.58704a0.1323 0.1323 0 0 1 0.07183-0.07183l0.58704-0.24081-0.58704-0.24133a0.1323 0.1323 0 0 1-0.07183-0.07183l-0.24133-0.58704z"/>
		<g transform="translate(-1.5875 .096314)">
			<path d="m11.349 4.486c2.23e-4 0.00614 2.89e-4 0.017758 5.17e-4 0.023771 0.0126 0.33311 0.05752 0.48977 0.03876 0.45527 0.01457 0.026785 0.27362 0.46001 0.62735 0.84749s0.8121 0.72864 1.2128 0.72864c0.40074 0 0.85911-0.34115 1.2128-0.72864 0.35373-0.38749 0.61226-0.82069 0.62684-0.84749-0.01877 0.034503 0.02667-0.12216 0.03927-0.45527 2.27e-4 -0.00601 2.92e-4 -0.01763 5.17e-4 -0.023771h-0.87798c-0.36656 0.070938-0.727 0.1018-1.0015 0.1018-0.27456 0-0.63438-0.030825-1.0005-0.1018zm-0.4222 0.024805c-0.23201 0.040105-0.57345 0.14498-0.6811 0.41961-0.01104 0.25143-0.02136 0.50482-0.04858 1.0635-0.03809 0.78183-0.08315 1.6295-0.11937 1.9554-1e-3 0.00928-0.0017 0.019223-0.0026 0.028939 0.06708-0.00936 0.14558-0.016687 0.23926-0.01912 0.14667-0.00381 0.39759-0.015247 0.62115-0.03514 0.11178-0.00995 0.21704-0.023495 0.29456-0.037207 0.03252-0.00575 0.06105-0.015826 0.08165-0.023254 0.0071-0.018455 0.02495-0.054542 0.04547-0.11162 0.03729-0.10371 0.11958-0.26639 0.29662-0.34365 0.11086-0.048376 0.21265-0.051857 0.33435-0.054777 0.12169-0.00292 0.25786 0.00356 0.40204 0.011886 0.28836 0.01665 0.60578 0.044958 0.83819 0.044958s0.55138-0.028309 0.83974-0.044958c0.14418-0.00833 0.28034-0.014806 0.40204-0.011886 0.12169 0.00292 0.22349 0.0064 0.33435 0.054777 0.17704 0.077255 0.25933 0.23993 0.29662 0.34365 0.02026 0.056384 0.03813 0.092402 0.04547 0.1111 0.0206 0.00744 0.0489 0.017978 0.08165 0.023771 0.07752 0.013712 0.18122 0.027257 0.293 0.037207 0.22356 0.019893 0.47654 0.03133 0.62322 0.03514 0.09267 0.00241 0.17005 0.00939 0.23668 0.018604-8.74e-4 -0.00954-0.0016-0.019305-0.0026-0.028422-0.036176-0.32593-0.080732-1.1736-0.11881-1.9554-0.020266-0.41598-0.036635-0.78784-0.048575-1.0661-0.10874-0.27244-0.4483-0.37696-0.67955-0.41703-1.39e-4 0.00377-3.75e-4 0.010739-5.16e-4 0.014469-0.01301 0.34387-0.0039 0.48478-0.08992 0.64285-0.05263 0.096772-0.29958 0.50495-0.6873 0.92966-0.38771 0.42471-0.90816 0.86713-1.5255 0.86713-0.61733 0-1.1378-0.44242-1.5255-0.86713-0.38772-0.42471-0.63311-0.83287-0.68575-0.92966-0.08594-0.15807-0.07691-0.29898-0.08992-0.64285-1.41e-4 -0.00373-3.77e-4 -0.010696-5.16e-4 -0.014469zm-3.6406 0.79633c-0.19742 7.722e-4 -0.36737 0.056442-0.48369 0.1943-0.57266 0.6787-0.72116 1.2089-0.71055 2.0361 0.010607 0.82717 0.49854 1.8982 0.6258 2.0361 0.0029 0.00314 0.00563 0.0065 0.00827 0.00982 0.11666 7.311e-4 0.24438 7.901e-4 0.38292-0.00155 0.19534-0.0033 0.39777-0.010288 0.56069-0.025322 0.12611-0.011637 0.23933-0.041105 0.27492-0.048576 0.00458-0.011877 0.035864-0.05405 0.057361-0.12919 0.030472-0.10652 0.05633-0.2588 0.07803-0.42375 0.043401-0.3299 0.067667-0.70297 0.14056-0.97255 0.15925-0.58898 0.56001-1.4352 0.83561-1.9828-0.40887-0.24575-1.2025-0.69468-1.7699-0.69246zm11.886 0c-0.56751-0.00222-1.3611 0.44726-1.7699 0.69298 0.27615 0.54763 0.67694 1.3936 0.83612 1.9823 0.07289 0.26958 0.09716 0.64265 0.14056 0.97255 0.02171 0.16495 0.04808 0.31723 0.07855 0.42375 0.02156 0.075363 0.05196 0.11747 0.05581 0.12919 0.03683 0.00769 0.15059 0.037009 0.27595 0.048576 0.16292 0.015033 0.36535 0.022022 0.56069 0.025322 0.13863 0.00234 0.26653 0.00228 0.38292 0.00155 0.0026-0.00332 0.0054-0.00668 0.0083-0.00982 0.12726-0.13786 0.61468-1.2089 0.62528-2.0361 0.010613-0.82717-0.13794-1.3573-0.71058-2.0361-0.11632-0.13786-0.28627-0.19353-0.48369-0.1943zm-9.3937 0.60565c-0.097061 0.060732-0.20145 0.12447-0.2868 0.17157-0.2705 0.53753-0.71319 1.457-0.86248 2.0092-0.050994 0.1886-0.083066 0.57161-0.12867 0.91829-0.022804 0.17334-0.050423 0.33893-0.091984 0.48421-0.041561 0.14527-0.0824 0.28669-0.24236 0.37879-0.14417 0.08301-0.27573 0.087166-0.45682 0.10387-0.18109 0.016709-0.39021 0.023989-0.5917 0.027389-0.15027 0.0025-0.28867 0.0024-0.41238 0.0015-0.028513 0.06967-0.062657 0.13484-0.093534 0.18604-0.10074 0.16703-0.38018 0.94133-0.41393 1.0501-0.0049 0.01577-0.01014 0.02962-0.014986 0.04289 0.25179 0.09355 0.5679 0.21096 0.6103 0.22686 0.10749 0.04032 0.12327 0.10228 0.13901 0.13694s0.023996 0.06317 0.031006 0.09198c0.014014 0.05761 0.022357 0.11707 0.031006 0.1757 0.00865 0.05863 0.016531 0.11468 0.023771 0.154 6.9e-4 0.0038 0.00138 0.0049 0.00207 0.0083 0.010607 0.0074 0.018801 0.01395 0.033073 0.02325 0.046424 0.03038 0.10867 0.06832 0.17157 0.10542 0.062892 0.0371 0.12662 0.07259 0.17777 0.09974 0.031841 0.01689 0.033324 0.01902 0.047026 0.02532 0.00204-8e-4 0.00196-0.0012 0.00413-0.0021 0.035274-0.01384 0.085431-0.03853 0.13849-0.0646 0.053061-0.02607 0.10757-0.05329 0.15813-0.07596 0.025279-0.01134 0.049317-0.02232 0.078031-0.03152s0.049217-0.03636 0.15658-0.0057c0.040178 0.01148 0.043162 0.01431 0.07028 0.02532 0.027117 0.01101 0.06184 0.02628 0.10129 0.04289 0.078891 0.03323 0.1778 0.0753 0.27544 0.1173 0.1185 0.05098 0.16039 0.06914 0.23358 0.10077 0.12352-0.18675 0.39507-0.63677 0.42375-0.67903 0.03562-0.05249 0.19081-0.6132 0.20205-0.62632 0.01129-0.01312 0.073238 0.01309 0.076998 0.02997 0.0037 0.01687-0.075685 0.31407-0.098185 0.41341-0.0225 0.09936-0.063123 0.48242-0.053743 0.54054 0.0094 0.05812 0.052569 0.18782 0.15193 0.22531 0.099358 0.03749 0.11981 0.0092 0.12919 0.03359 0.0094 0.02437 0.026938 0.0617 0.024288 0.08423-0.0027 0.02254-0.045245 0.03552-0.043925 0.07131 0.0013 0.03579 0.096882 0.35805 0.13798 0.45217 0.00629 0.0144 0.011161 0.02655 0.015503 0.03772 0.097009-0.12355 0.19379-0.25016 0.23616-0.31833 0.094941-0.15273 0.40717-0.85144 0.52348-1.1581 0.04246-0.11194 0.06921-0.33385 0.07441-0.51573 0.0025-0.08843 0.0016-0.1668 0-0.22479-0.23499-0.26772-0.41859-0.53755-0.52968-0.75181-0.052904-0.10203-0.080482-0.21794-0.11679-0.37879-0.036307-0.16084-0.072357-0.35582-0.1018-0.56276-0.058893-0.41386-0.096418-0.86857-0.058394-1.2108 0.031276-0.28147 0.079302-1.1474 0.11731-1.9275 0.00114-0.023342 0.00146-0.038819 0.00258-0.062012zm6.9029 5.167e-4c0.0015 0.031964 1e-3 0.029233 0.0026 0.061495 0.038 0.78013 0.08551 1.6461 0.11679 1.9275 0.03803 0.34221 4.9e-4 0.79691-0.05839 1.2108-0.02944 0.20693-0.06498 0.40191-0.10129 0.56276-0.03631 0.16084-0.06441 0.27676-0.11731 0.37879-0.11102 0.21411-0.29446 0.48376-0.52968 0.75138-0.0016 0.05804-0.0025 0.13665 0 0.22531 0.0052 0.18188 0.02989 0.40379 0.07235 0.51573 0.11631 0.30663 0.43061 1.0053 0.52555 1.1581 0.04232 0.06807 0.13932 0.19444 0.23616 0.31781 0.0043-0.01101 0.0088-0.02309 0.01499-0.03721 0.0411-0.09412 0.13666-0.41638 0.13798-0.45217 0.0013-0.03579-0.04128-0.04878-0.04392-0.07131-0.0027-0.02254 0.01491-0.05986 0.02429-0.08423 0.0094-0.02437 0.02984 0.0039 0.12919-0.03359 0.09936-0.03749 0.14255-0.16719 0.15193-0.22531 0.0094-0.05812-0.03124-0.44118-0.05374-0.54054-0.0225-0.09934-0.10193-0.39654-0.09818-0.41341 0.0037-0.01687 0.06575-0.04309 0.077-0.02997 0.01129 0.01312 0.16644 0.57382 0.20205 0.62632 0.02867 0.04225 0.30022 0.49227 0.42375 0.67903 0.07264-0.03163 0.11366-0.04984 0.23203-0.10077 0.09764-0.04201 0.19861-0.08408 0.2775-0.1173 0.03945-0.01661 0.07262-0.03188 0.09974-0.04289s0.03164-0.01384 0.07183-0.02532c0.10735-0.03064 0.12787-0.0035 0.15658 0.0057s0.05069 0.02018 0.07596 0.03152c0.05056 0.02267 0.10507 0.04989 0.15813 0.07596 0.05307 0.02607 0.10529 0.05076 0.14056 0.0646 1e-3 3.62e-4 0.0012-3.46e-4 0.0021 0 0.01417-0.0065 0.01572-0.0066 0.04703-0.02326 0.05115-0.02715 0.11694-0.06264 0.17983-0.09974s0.12308-0.07505 0.1695-0.10542c0.01484-0.0097 0.02482-0.01627 0.03566-0.02377 7e-4 -0.0034 8.6e-4 -4e-3 0.0016-0.0078 0.0072-0.03932 0.01517-0.09537 0.02377-0.154 0.0086-0.05863 0.017-0.11809 0.03101-0.1757 7e-3 -0.02881 0.01371-0.05732 0.02945-0.09198s0.03307-0.09662 0.14056-0.13694c0.04243-0.01591 0.3586-0.13332 0.60978-0.22686-0.0048-0.01327-0.01011-0.02712-0.01499-0.04289-0.03375-0.10873-0.3132-0.88304-0.41393-1.0501-0.03088-0.0512-0.06509-0.11637-0.09353-0.18604-0.12354 8.63e-4 -0.26139 9.8e-4 -0.41134-0.0015-0.20148-0.0034-0.41112-0.01068-0.59221-0.027389-0.18123-0.01673-0.31484-0.020881-0.45902-0.10389-0.15996-0.092099-0.19874-0.23351-0.2403-0.37879-0.04156-0.14527-0.068671-0.31087-0.091467-0.48421-0.045606-0.34668-0.078202-0.72969-0.12919-0.91829-0.14933-0.55228-0.59298-1.4722-0.86403-2.0097-0.084826-0.046891-0.18849-0.11027-0.28474-0.17053zm-4.6028 1.8635c-0.0284-1.791e-4 -0.05504-8.32e-5 -0.0801 5.168e-4 -0.10026 0.0024-0.17745 0.021087-0.17415 0.019637-0.03804 0.016603-0.04293 0.029424-0.06821 0.099736-0.02528 0.070311-0.03053 0.20043-0.17777 0.31213-0.10821 0.082092-0.1754 0.07879-0.27337 0.096118-0.09797 0.01733-0.21126 0.030239-0.33021 0.040824-0.2379 0.021169-0.49564 0.03113-0.65009 0.03514-0.11691 0.00304-0.19488 0.015626-0.25115 0.027389 0.01046 0.2064 0.03335 0.43412 0.06356 0.64647 0.028 0.19678 0.06044 0.38258 0.09353 0.52917 0.03309 0.14658 0.0741 0.26385 0.0801 0.27544 0.18598 0.35869 0.72941 1.0407 1.3146 1.3849 0.24574 0.14455 0.97415 0.38654 1.6035 0.38654s1.3598-0.24199 1.6056-0.38654c0.58524-0.34426 1.1261-1.0262 1.3121-1.3849 6e-3 -0.011581 0.04908-0.12885 0.08217-0.27544 0.03309-0.14658 0.06605-0.33238 0.09405-0.52917 0.03024-0.21253 0.05278-0.44044 0.06253-0.64699-0.05668-0.011728-0.13566-0.023846-0.25218-0.026872-0.15444-0.00401-0.41064-0.013971-0.64854-0.03514-0.11895-0.010585-0.23224-0.023495-0.33021-0.040824-0.09797-0.017328-0.16515-0.014022-0.27337-0.096118-0.14723-0.1117-0.15249-0.24181-0.17777-0.31213-0.02528-0.070311-0.03016-0.083132-0.06821-0.099736 0.0033 0.00145-0.07338-0.017237-0.17363-0.019637-0.10025-0.0024-0.23011 0.00177-0.36949 0.00982-0.27875 0.016096-0.59865 0.044959-0.863 0.044958-0.26435 0-0.58269-0.028862-0.86145-0.044958-0.10453-0.00604-0.20367-0.0098-0.28887-0.010335zm-1.1999 3.4437c-0.0109 0.15813-0.0344 0.32651-0.09147 0.47697-0.12702 0.33491-0.40071 0.97544-0.56017 1.232-0.11089 0.17839-0.30079 0.41163-0.42116 0.55656 0.024428 0.20037 0.055274 0.5506 0.10955 0.632 0.063628 0.09544 0.12202 0.11136 0.18035 0.12196 0.05832 0.01065 0.04782 0.43997 0.01602 0.49299-0.03182 0.05302-0.15939 0.02632-0.1912 0.04754-0.03182 0.02121-0.28642 0.58338-0.28112 0.74776 0.0053 0.16438 0.079824 0.18028 0.090434 0.24391 0.00274 0.01638-0.01743 0.08066-0.048576 0.16795 0.17185 0.13833 0.40249 0.32636 0.64699 0.53434 0.49511 0.42114 1.0356 0.89869 1.2816 1.2501 0.01135 0.0162 0.02272 0.03326 0.03411 0.04961 0.05086 0.05192 0.11457 0.1137 0.19792 0.18862 0.28526 0.25638 0.46196 0.31096 0.70538 0.41238 0.16257 0.06774 0.40524 0.04289 0.68161 0.04289 0.27637 0 0.51904 0.02485 0.68161-0.04289 0.24343-0.10142 0.42167-0.156 0.70693-0.41238 0.08444-0.07589 0.14851-0.13839 0.19947-0.19069 0.01094-0.01571 0.02216-0.03198 0.03307-0.04754 0.24594-0.35136 0.78594-0.82891 1.2811-1.2501 0.24415-0.20767 0.47469-0.39555 0.64647-0.53382-0.03123-0.0875-0.05131-0.15206-0.04858-0.16846 0.01065-0.06363 0.08512-0.07953 0.09043-0.24391 0.0053-0.16438-0.2493-0.72654-0.28112-0.74776-0.03182-0.02121-0.15939 0.0055-0.1912-0.04754-0.03182-0.05302-0.0423-0.48235 0.01602-0.49299 0.0583-0.01065 0.11672-0.02652 0.18035-0.12196 0.05431-0.08146 0.08511-0.43222 0.10955-0.63252-0.12053-0.14514-0.30941-0.37793-0.42013-0.55604-0.15946-0.25652-0.43367-0.89706-0.56069-1.232-0.05707-0.15046-0.08152-0.31885-0.09302-0.47697-0.16479 0.14406-0.34319 0.2779-0.53227 0.38912-0.36017 0.21187-1.0899 0.44493-1.818 0.44493-0.72804-1e-6 -1.4583-0.23307-1.8185-0.44493-0.18908-0.11122-0.36718-0.24506-0.53175-0.38912zm-4.6679 0.52813c-0.13671 0.24162-0.34143 0.58039-0.38344 0.5979-0.063627 0.02651-0.18559-0.02656-0.24391 0.04237-0.058325 0.06893-0.89605 2.3226-1.0392 2.5771-0.14316 0.2545-0.24933 0.38742-0.25993 0.41393-0.010607 0.02651-0.09807 0.0069-0.16743 0.09302-0.047003 0.05843-0.099142 0.17728-0.12609 0.2682 0.047072-0.02374 0.094865-0.04664 0.14056-0.06718 0.079899-0.03592 0.14498-0.06591 0.23203-0.0801 0.11915-0.01937 0.26307-0.01735 0.41651 0.0021 0.15344 0.01942 0.31193 0.05162 0.45114 0.14056 0.10118 0.06467 0.18241 0.12905 0.24391 0.18552 0.03591 0.03297 0.057224 0.07151 0.082166 0.1018 0.00714 0.0011 0.017198 0.0044 0.056327 0.0057 0.071061 0.0024 0.12376 0.01524 0.20154 0.03152 0.077781 0.01628 0.16784 0.03582 0.25373 0.05633 0.00759 0.0018 0.01264 0.0034 0.020154 0.0052 0.040756-0.15347 0.21831-0.36124 0.37879-0.49764 0.18747-0.15935 1.1868-1.2428 1.3555-1.5596 0.16872-0.31681 0.23651-0.34332 0.20464-0.4408-0.022591-0.0691 0.16433-0.578 0.28267-0.87643-0.022221-0.0096-0.021728-0.0099-0.044442-0.01964-0.097103-0.04178-0.19637-0.08488-0.27337-0.1173-0.029994-0.01263-0.052667-0.02211-0.074414-0.03101-0.035554 0.01614-0.084943 0.0419-0.13849 0.06821-0.05567 0.02736-0.11362 0.05508-0.17208 0.07803-0.029231 0.01148-0.059265 0.02156-0.093534 0.02946-0.034271 0.0079-0.072569 0.02024-0.14676 0-0.076388-0.02083-0.10252-0.04091-0.16175-0.07235-0.059228-0.03144-0.12794-0.06928-0.19534-0.10904-0.067399-0.03976-0.13301-0.0816-0.18759-0.1173-0.027288-0.01785-0.052608-0.03465-0.074414-0.05064-0.021805-0.016-0.036162-0.02118-0.07028-0.06098-0.049114-0.05729-0.050124-0.08691-0.058394-0.11524-0.00828-0.02833-0.01252-0.05421-0.01757-0.08165-0.010103-0.05487-0.019169-0.11222-0.027388-0.16795-0.00614-0.04161-0.01173-0.07417-0.01757-0.10387-0.075239-0.02812-0.18902-0.06985-0.34623-0.12816zm14.037 0c-0.15674 0.05828-0.26991 0.10002-0.3452 0.12816-0.0058 0.02971-0.01354 0.06223-0.01964 0.10387-0.0082 0.05573-0.01522 0.11308-0.02532 0.16795-5e-3 0.02744-0.01134 0.05331-0.01964 0.08165-0.0083 0.02833-0.0072 0.05795-0.05633 0.11524-0.03412 0.03981-0.04847 0.04499-0.07028 0.06098s-0.04713 0.03279-0.07441 0.05064c-0.05457 0.03571-0.12019 0.07754-0.18759 0.1173-0.0674 0.03976-0.13611 0.0776-0.19534 0.10904-0.05923 0.03143-0.08742 0.05152-0.16381 0.07235-0.0742 0.02024-0.11249 0.0079-0.14676 0s-0.06224-0.01799-0.09147-0.02946c-0.05845-0.02295-0.11641-0.05067-0.17208-0.07803-0.05355-0.02631-0.10294-0.05207-0.13849-0.06821-0.02175 0.0089-0.04442 0.01838-0.07441 0.03101-0.077 0.03243-0.17627 0.07553-0.27337 0.1173-0.02294 0.0099-0.02253 0.0099-0.04496 0.01964 0.11834 0.29843 0.30526 0.80733 0.28267 0.87643-0.03187 0.09749 0.03592 0.124 0.20464 0.4408 0.16872 0.31682 1.168 1.4002 1.3555 1.5596 0.16048 0.13641 0.33803 0.34418 0.37879 0.49764 0.0077-0.0019 0.01289-0.0033 0.02067-0.0052 0.08589-0.02051 0.17647-0.04056 0.25425-0.05684s0.12789-0.0286 0.19895-0.031c0.0394-0.0014 0.05201-0.0051 0.05891-0.0062 0.02494-0.03028 0.04574-0.06832 0.08165-0.10128 0.0615-0.05647 0.14325-0.12085 0.24443-0.18552 0.13921-0.08894 0.29563-0.12114 0.44907-0.14056 0.15343-0.01947 0.29684-0.02149 0.416-0.0021v-5.17e-4c0.08705 0.0142 0.15471 0.04418 0.23461 0.0801 0.04593 0.02064 0.09277 0.04382 0.13953 0.0677-0.02695-0.09092-0.07909-0.20977-0.12609-0.2682-0.06936-0.08618-0.15682-0.06651-0.16743-0.09302-0.01065-0.02651-0.11678-0.15943-0.25993-0.41393-0.14317-0.25452-0.98089-2.5082-1.0392-2.5771-0.05832-0.06893-0.18028-0.01587-0.24391-0.04237-0.04201-0.0175-0.24709-0.35628-0.38396-0.5979zm-9.8413 1.5012s0.06914 0.03673 0.11524 0.08992c0.0461 0.05324 0.09117 0.13296 0.11937 0.23823 0.03022 0.11278 0.05203 0.27693 0.07803 0.46095 0.02601 0.18404 0.05349 0.37882 0.07235 0.47077 0.02491 0.12143 0.04215 0.26102 0.06459 0.38499 0.02244 0.12396 0.06241 0.23511 0.06821 0.24391l0.08992 0.13694v0.0016c7.71e-4 0.0011 0.05941 0.08933 0.14263 0.19379 0.08377 0.10514 0.19898 0.22494 0.25942 0.26562 0.0044 3e-3 0.1069 0.05104 0.23823 0.09147 0.13132 0.04044 0.30005 0.08399 0.48266 0.12299 0.36521 0.07799 0.79054 0.13901 1.0919 0.13901 0.29744 0 0.70079-0.07008 1.0449-0.15658 0.17206-0.04326 0.33059-0.09072 0.45475-0.13436 0.12417-0.04364 0.22126-0.09074 0.23461-0.09974 0.15323-0.10313 0.47896-0.42842 0.49403-0.44338l0.07803-0.1173c0.0058-0.0088 0.04629-0.11995 0.06873-0.24391 0.02244-0.12396 0.03919-0.26358 0.06408-0.38499 0.01883-0.09195 0.04635-0.28673 0.07235-0.47077 0.02598-0.18403 0.04623-0.34813 0.07648-0.46095 0.02819-0.10527 0.07484-0.18499 0.12092-0.23823 0.0461-0.05324 0.11317-0.08992 0.11317-0.08992l0.17983 0.38499s0.02191-0.01583 0.02532-0.01757c-3e-3 0.0034-0.01618 0.02069-0.02945 0.07028-0.01126 0.04202-0.04236 0.22891-0.06821 0.41186-0.02585 0.18295-0.0506 0.3708-0.07597 0.49454-0.01931 0.09428-0.03727 0.2372-0.06253 0.37672-0.02526 0.13954-0.04581 0.2731-0.13126 0.40256l-0.10335 0.154-0.01344 0.0155s-0.32261 0.33973-0.57258 0.50798c-0.08833 0.05946-0.1902 0.09927-0.3297 0.14831-0.13951 0.04904-0.30906 0.09858-0.49248 0.14469-0.36682 0.09221-0.78873 0.16795-1.1482 0.16795-0.35558 0-0.79402-0.06386-1.1798-0.14624-0.19288-0.04119-0.37199-0.08744-0.51935-0.13281-0.14736-0.04537-0.25255-0.0792-0.34985-0.14469-0.1429-0.09619-0.25841-0.23415-0.35347-0.35347-0.09506-0.11932-0.16433-0.22272-0.16433-0.22272l-0.09147-0.13849c-0.08545-0.12946-0.10548-0.26303-0.13074-0.40256-0.02526-0.13952-0.04319-0.28245-0.06253-0.37672-0.02539-0.12374-0.0527-0.31159-0.07855-0.49454-0.02586-0.18295-0.05488-0.3698-0.06615-0.41186-0.01328-0.04958-0.02852-0.06688-0.03152-0.07028h5.16e-4c0.0038 0.0017 0.02687 0.01757 0.02687 0.01757zm-5.8508 2.7549c-0.052441-2.13e-4 -0.096846 0.0029-0.12351 0.0072 8.167e-4 -1.3e-4 -0.062858 0.01876-0.12919 0.04857-0.066335 0.02982-0.14313 0.06853-0.21652 0.10749-0.072618 0.03855-0.13979 0.07669-0.18965 0.10542-0.11287 0.13673-0.63903 0.83088-0.73587 1.2433-0.10123 0.43118-0.14263 0.53597-0.14263 0.59221 0 0.05624 0.037438 0.08605 0.074931 0.07855 0.037493-0.0074 0.052831 0.06392 0.064079 0.2589 0.011249 0.19497 0.061545 0.79665 0.082166 0.80977 0.020623 0.01312 0.071314-0.01508 0.071314 0.03927 0 0.05437 0.035947 0.11819 0.079065 0.13694 0.043119 0.01875 0.048624 0.09172 0.069246 0.09922 0.020623 0.0074 0.22846 0.04347 0.24908-0.0016 0.020623-0.04499-0.024292-0.27374-0.0093-0.29249 0.014994-0.01875 0.12948 0.07499 0.1726 0.08062 0.043118 0.0056 0.15922-0.01321 0.16485-0.05633 0.00562-0.04312-0.20541-0.90053-0.20774-1.095-0.00375-0.31308 0.46443-0.80036 0.69091-0.77205 0.22649 0.02832 0.26885 0.38974 0.34572 0.43098 0.076863 0.04125 0.21892 0.07304 0.29766-0.10128 0.078736-0.17435 0.24604-0.93913 0.25166-0.971 0.00353-0.01999-0.00517-0.18841 0.012402-0.32401-0.00485-0.0014-0.00954-2e-3 -0.014469-0.0036-0.063491-0.02022-0.1474-0.07648-0.18345-0.15658 0.027679 0.0615 2.657e-4 0.0031-0.041341-0.03514-0.041608-0.0382-0.10485-0.089-0.18552-0.14056-0.042639-0.02725-0.15845-0.06323-0.27544-0.07803-0.058491-0.0074-0.11861-0.01064-0.17105-0.01085zm17.349 0c-0.05244 2.12e-4 -0.11307 0.0035-0.17156 0.01085-0.11698 0.01481-0.2328 0.05079-0.27544 0.07803-0.08067 0.05156-0.14391 0.10236-0.18552 0.14056-0.04161 0.03816-0.06851 0.09665-0.04083 0.03514-0.03605 0.08007-0.12048 0.13636-0.18397 0.15658-0.0051 0.0016-0.01 0.0022-0.01499 0.0036 0.01758 0.1356 0.0089 0.30402 0.0124 0.32401 0.0056 0.03187 0.17293 0.79665 0.25166 0.971 0.07874 0.17433 0.22079 0.14253 0.29766 0.10128 0.07687-0.04125 0.11925-0.40266 0.34572-0.43098 0.22649-0.02832 0.69466 0.45897 0.69091 0.77205-0.0023 0.1945-0.21336 1.0519-0.20774 1.095 0.0056 0.04312 0.12174 0.06198 0.16485 0.05633 0.04312-0.0056 0.1576-0.09937 0.1726-0.08062 0.01499 0.01875-0.0299 0.2475-0.0093 0.29249 0.02063 0.04504 0.22846 0.0091 0.24908 0.0016 0.02062-0.0074 0.02613-0.08047 0.06925-0.09922s0.07906-0.08257 0.07906-0.13694c0-0.05436 0.05068-0.02615 0.07131-0.03927 0.02062-0.01312 0.07092-0.6148 0.08216-0.80977 0.01129-0.19498 0.02657-0.26634 0.06408-0.2589 0.03749 0.0074 0.07493-0.02231 0.07493-0.07855s-0.0414-0.16103-0.14263-0.59221c-0.09737-0.41468-0.62847-1.114-0.73742-1.2454-0.04966-0.02859-0.11546-0.06534-0.18707-0.10335-0.07339-0.03896-0.15277-0.07767-0.21911-0.10749-0.06633-0.02982-0.12742-0.04922-0.12661-0.04909-0.02666-0.0043-0.07107-0.0069-0.12351-0.0067zm-12.38 0.35243c-0.065083 0.17098-0.12229 0.3257-0.12867 0.37465-0.01591 0.12196-0.20666 0.07964-0.37104 0.13798-0.16438 0.05832-0.56197 0.98654-0.57257 1.0873-0.00159 0.01511-4.231e-4 0.03408 0.00258 0.05478 0.085318-0.0079 0.17892-0.01432 0.28215-0.0155 0.30687-0.0035 0.67554 0.0033 0.91571 0.26923 0.2778 0.30756 1.0944 1.0517 1.1994 2.1249 0.04836 0.49436 0.12394 1.5003 0.1757 2.4417 0.02587 0.47073 0.04521 0.92458 0.05271 1.2909 0.0031 0.15027 0.0051 0.27687 0.0047 0.39119 0.4076 0.17581 0.78703 0.27078 0.78703 0.27078 0.33934 0-0.07811-0.47374-0.06098-0.51211 0.01782-0.03993 0.15747-0.01113 0.17622-0.04858 0.01875-0.03749 0.06758-0.70871 0.04134-0.74621-0.02624-0.03747-0.05657-0.01135-0.07907-0.0863-0.02255-0.07498 0.60151-0.30383 0.60151-1.3219 0-0.63471 0.13165-0.96646 0.31316-1.126-0.05933-0.0156-0.11714-0.03834-0.17622-0.08475-0.1088-0.08546-0.13244-0.16913-0.17415-0.26923-0.0417-0.10011-0.07988-0.21509-0.11524-0.33228-0.07073-0.23437-0.13029-0.48185-0.15968-0.57981-0.11184-0.37287-0.53278-1.0678-0.93586-1.6495-0.13058-0.14117-0.18552-0.22583-0.18552-0.22583l0.0052-0.0031c-0.2432-0.27104-0.67467-0.66646-1.0698-1.0025-0.1962-0.1669-0.37449-0.31412-0.52865-0.43977zm7.4104 0c-0.15456 0.12567-0.33395 0.27282-0.5302 0.43977-0.39477 0.33578-0.82542 0.73096-1.0687 1.002l0.0062 0.0036s-0.05672 0.08742-0.19172 0.23254c-0.40155 0.58041-0.8177 1.2713-0.92914 1.6428-0.02939 0.09796-0.09154 0.34544-0.16226 0.57981-0.03537 0.11719-0.07353 0.23217-0.11524 0.33228-0.04171 0.10011-0.06483 0.18377-0.17363 0.26923-0.05908 0.04641-0.11643 0.06915-0.17518 0.08475 0.18151 0.15957 0.31316 0.49132 0.31316 1.126 0 1.0181 0.62401 1.2469 0.60151 1.3219-0.0225 0.07496-0.05229 0.04883-0.07855 0.0863-0.02624 0.03749 0.02207 0.70872 0.04082 0.74621 0.01875 0.03745 0.15372 0.01113 0.17622 0.04858 0.0225 0.03749-0.40034 0.51211-0.06098 0.51211 0 0 0.37914-0.09463 0.78652-0.27027-8.87e-4 -0.11444 5.36e-4 -0.24121 0.0036-0.39171 0.0075-0.36629 0.02683-0.82014 0.05271-1.2909 0.05175-0.94145 0.12734-1.9474 0.1757-2.4417 0.10499-1.0732 0.92161-1.8174 1.1994-2.1249 0.24018-0.26593 0.61092-0.27273 0.91777-0.26923 0.1033 0.0012 0.19657 0.0076 0.28164 0.0155 3e-3 -0.0207 0.0042-0.03967 0.0026-0.05478-0.01065-0.10073-0.4082-1.029-0.57258-1.0873-0.16438-0.05833-0.35513-0.01601-0.37104-0.13798-0.0064-0.04895-0.0636-0.20368-0.12867-0.37465zm-8.1943 2.0629c-0.063245 7.26e-4 -0.1243 0.0037-0.18138 0.0078-0.078572 0.27072-0.34355 1.0232-0.33486 1.3317 0.01061 0.37648 0.073897 2.8475 0.073897 2.9642 0 0.11664 0.090434 0.23859 0.090434 0.2651 0 0.02651-0.1435 0.13773-0.17002 0.24908-0.026508 0.11136 0.030824 0.67444 0.079582 0.82734 0.06506 0.20402 0.18065 0.38035 0.24391 0.36535 0.053018-0.01065 0.65544-0.27014 0.92914-0.27388 0.22257-3e-3 0.75235 0.04872 1.1886 0.185 1.79e-4 -0.06664 4.71e-4 -0.13497-1e-3 -0.20877-0.0073-0.35808-0.027-0.80972-0.05271-1.2774-0.05143-0.93542-0.12707-1.9424-0.17415-2.4236-0.0859-0.87804-0.77534-1.5332-1.0914-1.8831-0.056764-0.06285-0.334-0.13178-0.59996-0.12868zm8.9287 0c-0.24976 0.0053-0.49611 0.06975-0.54932 0.12868-0.31606 0.34992-1.006 1.005-1.0919 1.8831-0.04706 0.48126-0.12273 1.4882-0.17415 2.4236-0.02572 0.46772-0.04541 0.91936-0.05271 1.2774-0.0015 0.07362-0.0011 0.14176-1e-3 0.20826 0.43609-0.13614 0.96558-0.18751 1.188-0.18448 0.27369 0.0037 0.9927 0.28887 0.9927 0.28887 0.33936 0 0.15914-0.22126 0.18035-0.38034 0.02121-0.15907 0.1061-0.71598 0.07958-0.82734-0.02651-0.11136-0.17002-0.22257-0.17002-0.24908 0-0.02651 0.09043-0.14846 0.09043-0.2651 0-0.11665 0.06329-2.5877 0.0739-2.9642 0.0087-0.3085-0.25628-1.061-0.33486-1.3317-0.05691-4e-3 -0.11763-7e-3 -0.18087-0.0078-0.01662-1.91e-4 -0.03347-3.52e-4 -0.05013 0zm-5.4224 0.28836c0.17677 0.305 0.32199 0.59857 0.39636 0.84646 0.0381 0.127 0.09601 0.36029 0.16226 0.57981 0.03312 0.10977 0.06715 0.21604 0.09922 0.29301 0.02047 0.04914 0.04649 0.08464 0.05426 0.09819 0.01382 0.0053 0.0377 0.01521 0.06873 0.02119 0.05523 0.01068 0.12836 0.01757 0.20154 0.01757s0.14785-0.0069 0.20309-0.01757c0.02958-0.0057 0.05297-0.01467 0.06666-0.02015 0.0072-0.01289 0.03343-0.04921 0.05426-0.09922 0.03206-0.07696 0.06868-0.18324 0.1018-0.29301 0.06625-0.21952 0.1221-0.45281 0.1602-0.57981 0.07432-0.24773 0.21928-0.54117 0.39636-0.84594-0.04676 0.01953-0.09345 0.03872-0.13694 0.05684-0.3067 0.12778-0.61175 0.07596-0.84543 0.07596-0.23368 0-0.53718 0.05182-0.84388-0.07596-0.04397-0.01832-0.09118-0.03758-0.13849-0.05736z"/>
			<path d="m12.799 1.481c-0.31969 0.00284-0.63848 0.022773-0.8847 0.12196-0.17907 0.072134-0.31878 0.17585-0.42375 0.35192-0.10497 0.17607-0.17502 0.43442-0.17002 0.81804 0.0049 0.38012 0.0089 0.69167 0.01292 0.95601 0.14117 0.090264 0.33041 0.17009 0.5395 0.23409 0.45764 0.14008 1.0083 0.20309 1.3555 0.20309 0.34713 0 0.89784-0.063011 1.3555-0.20309 0.20939-0.064093 0.40011-0.14419 0.54157-0.23461 0.0045-0.26424 0.0085-0.5756 0.01344-0.9555 0.004945-0.38362-0.064533-0.64197-0.1695-0.81804-0.10497-0.17607-0.24674-0.27978-0.42581-0.35192-0.35814-0.14427-0.8699-0.12092-1.3146-0.12092-0.13899 0-0.28464-0.00232-0.42995-0.00103zm-1.4562 2.7337c0.0022 0.08947 0.0046 0.171 0.0072 0.24185 0.01181 0.31229 0.0523 0.46942 0.04186 0.4594 0.02312 0.04092 0.27707 0.46305 0.62425 0.84336 0.35374 0.38749 0.8121 0.72864 1.2128 0.72864 0.40074 0 0.85911-0.34115 1.2128-0.72864 0.34718-0.38031 0.60112-0.80242 0.62425-0.84336-0.01045 0.01002 0.03004-0.14711 0.04186-0.4594 0.0027-0.070703 0.0054-0.15207 0.0078-0.24133-0.12796 0.060133-0.265 0.11062-0.40669 0.154-0.51303 0.15703-1.0857 0.21859-1.4805 0.21859-0.39485 0-0.96544-0.06156-1.4785-0.21859-0.14194-0.043448-0.27904-0.094268-0.40721-0.15451z"/>
		</g>
	</g>
</svg>
