<?xml version="1.0" encoding="UTF-8"?>
<svg width="150" height="150" version="1.1" viewBox="0 0 39.688 39.688" xmlns="http://www.w3.org/2000/svg" xmlns:cc="http://creativecommons.org/ns#" xmlns:dc="http://purl.org/dc/elements/1.1/" xmlns:rdf="http://www.w3.org/1999/02/22-rdf-syntax-ns#">
 <metadata>
  <rdf:RDF>
   <cc:Work rdf:about="">
    <dc:format>image/svg+xml</dc:format>
    <dc:type rdf:resource="http://purl.org/dc/dcmitype/StillImage"/>
    <cc:license rdf:resource="http://creativecommons.org/licenses/by-sa/4.0/"/>
    <dc:creator>
     <cc:Agent>
      <dc:title>Gireen</dc:title>
     </cc:Agent>
    </dc:creator>
   </cc:Work>
   <cc:License rdf:about="http://creativecommons.org/licenses/by-sa/4.0/">
    <cc:permits rdf:resource="http://creativecommons.org/ns#Reproduction"/>
    <cc:permits rdf:resource="http://creativecommons.org/ns#Distribution"/>
    <cc:requires rdf:resource="http://creativecommons.org/ns#Notice"/>
    <cc:requires rdf:resource="http://creativecommons.org/ns#Attribution"/>
    <cc:permits rdf:resource="http://creativecommons.org/ns#DerivativeWorks"/>
    <cc:requires rdf:resource="http://creativecommons.org/ns#ShareAlike"/>
   </cc:License>
  </rdf:RDF>
 </metadata>
 <path d="m19.231 2.6605c-0.51704 0.00455-0.94701 0.084586-1.1369 0.27448-0.85744 0.85744 0.28195 3.3594-0.36408 4.0054-0.71685 0.71685-3.3158-1.0538-4.1875-0.18204-0.37722 0.3772-0.3543 1.0824-0.72835 1.4565-1.2248 1.2248 1.487 3.7324 0.72835 4.491-0.5762 0.5762-2.4789-0.65829-2.731-0.91038-0.28008-0.28008-0.6626 0.79389-0.91035 0.54612-2.2862-2.2864-2.9105 0.05811-3.9449 1.0924-1.8586 1.8586 2.391 3.9081 2.6704 4.1875 0.716 0.71601-0.50265 2.8618-0.12396 3.8418 0.25672 0.66438 0.306 1.69 0.306 2.0451 0 0.30298-0.60925 1.9442-0.84964 2.1846-0.41265 0.41264 0.48268 1.5809 0.24279 1.8208-0.66446 0.66445-0.68669 2.0825-1.3352 2.731-0.64344 0.64344 0.5725 1.829 0.54632 1.8814-0.27076 0.54149-1.6601 2.0028-0.06075 2.0028 0.20465 0 0.79359-0.12615 0.97092-0.30351 0.38118-0.38116 0.3512-1.2614 0.72835-1.6385 0.25288-0.25286 0.17195-0.83955 0.42482-1.0924 0.23572-0.23574 0.79775-0.25162 1.0317-0.48556 0.4153-0.41529 3.1006 0.8605 3.2772 1.2139 0.39134 0.78268 0.08143 1.5379 0.60689 2.0634 0.62192 0.62192 4.2496-0.24278 5.1584-0.24278 0.25828 0 1.2752 0.30276 1.396 0.18204 0.16168-0.1617 1.799-2.6311 2.913-1.5172 0.31962 0.31962 0.79969 0.37488 1.0924 0.6676 0.74384 0.74385-1.0913 2.3085-0.60685 3.2772 0.72912 1.4582 4.4065 0.52861 5.2191-0.12148l-0.24279-0.24278c-0.35099-0.37664-2.3001-2.8582-1.7599-3.3985 0.2182-0.2182 1.3299 0.60169 1.3958 0.6676 0.81144 0.81144 3.4769-0.74596 3.7626-1.0317 0.58001-0.58 1.9202-6.2728 1.3352-6.8579-0.44798-0.44794-0.98635-0.86501-1.3958-1.2745-1.0087-1.0087 2.161-3.5436 0.54615-5.1584-1.6261-1.6261-4.418 0.67985-4.491 0.60686-1.7628-1.7628 5.4226-6.0475 3.8234-7.6468-2.8935-2.8935-4.1594-0.4531-6.1902 1.5778-0.16959 0.16958-2.2015-0.4854-2.6095-0.4854-0.33161 0-0.30011-0.72172-0.42482-0.97111-0.2255-0.45102-0.70754-1.4965-1.0317-1.8206-0.40599-0.40599 1.8802-4.3718 1.4565-5.2193-0.53218-1.0643-0.72804-0.78862-1.4565-1.5171-0.35388-0.35388-1.9132-0.70925-3.0508-0.69929zm-9.8495 15.889c0.21491 0.01584 0.96006 0.30971 1.1016 0.4512 0.16299 0.16301-0.23862 0.66248-0.04283 0.85828 0.41279 0.41278 0.95102 0.801 1.3302 1.1802 0.24705 0.24709-0.37205 1.4019-0.45054 1.4804-0.11412 0.11409-1.313 0.70402-1.4376 0.57948-0.38058-0.38056-0.17178-2.0725-0.17178-2.7465 0-0.55888-0.57415-1.0606-0.30036-1.7165l-0.064388-0.0858c0.00913-0.0014 0.021525-0.0017 0.035663-6.94e-4zm4.0411 3.3694c0.11744 0.19575 0.07479 0.67552 0.21456 0.81529 0.91314 0.91315 0.04575 1.4134-0.51492 1.9741-0.20672 0.20672-0.93081 0.59258-1.1586 0.36475-0.41025-0.41025 1.2259-2.8011 1.459-3.1541zm0.70808 0.08579c0.32332 0.20208 0.62982 0.41524 0.83688 0.6223 0.14878 0.14876-0.25228 0.62758-0.25756 0.6223-0.23545-0.23546-0.56911-0.63965-0.4935-1.1588z" fill="#fff" stroke-width="1.25"/>
</svg>
