<?xml version="1.0" encoding="UTF-8"?>
<svg width="150" height="150" version="1.1" viewBox="0 0 39.688 39.688" xmlns="http://www.w3.org/2000/svg" xmlns:cc="http://creativecommons.org/ns#" xmlns:dc="http://purl.org/dc/elements/1.1/" xmlns:rdf="http://www.w3.org/1999/02/22-rdf-syntax-ns#">
 <metadata>
  <rdf:RDF>
   <cc:Work rdf:about="">
    <dc:format>image/svg+xml</dc:format>
    <dc:type rdf:resource="http://purl.org/dc/dcmitype/StillImage"/>
    <dc:title/>
    <cc:license rdf:resource="http://creativecommons.org/licenses/by-sa/4.0/"/>
    <dc:creator>
     <cc:Agent>
      <dc:title>Gireen</dc:title>
     </cc:Agent>
    </dc:creator>
   </cc:Work>
   <cc:License rdf:about="http://creativecommons.org/licenses/by-sa/4.0/">
    <cc:permits rdf:resource="http://creativecommons.org/ns#Reproduction"/>
    <cc:permits rdf:resource="http://creativecommons.org/ns#Distribution"/>
    <cc:requires rdf:resource="http://creativecommons.org/ns#Notice"/>
    <cc:requires rdf:resource="http://creativecommons.org/ns#Attribution"/>
    <cc:permits rdf:resource="http://creativecommons.org/ns#DerivativeWorks"/>
    <cc:requires rdf:resource="http://creativecommons.org/ns#ShareAlike"/>
   </cc:License>
  </rdf:RDF>
 </metadata>
 <g transform="matrix(.28223 0 0 .28223 -150.8 -178.96)" opacity=".96">
  <g fill="#fff">
   <rect x="606.48" y="739.79" width="27.466" height="12.329" ry="0" opacity="1"/>
   <path d="m594.32 745.98 14.125-2.7466 10.071 8.8938h-24.196z" opacity="1"/>
   <path d="m647.81 745.98-14.125-2.7466-10.071 8.8938h24.196z" opacity="1"/>
  </g>
  <g fill="none" stroke="#fff" stroke-linecap="round" stroke-linejoin="round">
   <path d="m623.58 700.76 20.139 16.178-21.502 26.28" opacity="1" stroke-width="10.452"/>
   <path d="m614.51 740.83 0.77222-12.95" opacity="1" stroke-width="4.1809"/>
   <path d="m615.25 728.11 1.7344-26.672" opacity="1" stroke-width="2.0905"/>
  </g>
  <g fill="#fff">
   <rect x="605.5" y="678.41" width="46.609" height="25.173" ry="5.9728" opacity="1"/>
   <rect x="628.79" y="673.04" width="21.502" height="12.266" ry="2.8862" opacity="1"/>
   <path d="m610.01 685.58-0.33102-10.452 6.9514-6.8686 20.192-0.29864 0.33101 20.606z" opacity="1"/>
   <rect x="549.67" y="694.16" width="61.909" height="3.5454" ry="0" opacity="1"/>
   <rect x="549.67" y="685.06" width="61.909" height="3.5454" ry="0" opacity="1"/>
   <rect x="549.67" y="689.48" width="61.909" height="3.5454" ry="0" opacity="1"/>
   <rect x="551.07" y="684.42" width="4.1589" height="14.004" opacity="1"/>
   <rect x="575.52" y="684.42" width="4.1589" height="14.004" opacity="1"/>
   <rect x="599.81" y="683.43" width="16.26" height="16.682" ry="3.9066" opacity="1"/>
  </g>
 </g>
</svg>
