<?xml version="1.0" encoding="UTF-8"?>
<svg width="150" height="150" version="1.1" viewBox="0 0 39.688 39.688" xmlns="http://www.w3.org/2000/svg" xmlns:cc="http://creativecommons.org/ns#" xmlns:dc="http://purl.org/dc/elements/1.1/" xmlns:rdf="http://www.w3.org/1999/02/22-rdf-syntax-ns#">
 <metadata>
  <rdf:RDF>
   <cc:Work rdf:about="">
    <dc:format>image/svg+xml</dc:format>
    <dc:type rdf:resource="http://purl.org/dc/dcmitype/StillImage"/>
    <dc:title/>
    <cc:license rdf:resource="http://creativecommons.org/licenses/by-sa/4.0/"/>
    <dc:creator>
     <cc:Agent>
      <dc:title>Gireen</dc:title>
     </cc:Agent>
    </dc:creator>
   </cc:Work>
   <cc:License rdf:about="http://creativecommons.org/licenses/by-sa/4.0/">
    <cc:permits rdf:resource="http://creativecommons.org/ns#Reproduction"/>
    <cc:permits rdf:resource="http://creativecommons.org/ns#Distribution"/>
    <cc:requires rdf:resource="http://creativecommons.org/ns#Notice"/>
    <cc:requires rdf:resource="http://creativecommons.org/ns#Attribution"/>
    <cc:permits rdf:resource="http://creativecommons.org/ns#DerivativeWorks"/>
    <cc:requires rdf:resource="http://creativecommons.org/ns#ShareAlike"/>
   </cc:License>
  </rdf:RDF>
 </metadata>
 <path d="m14.565 2.3585c-0.0223-0.00254-0.04572 0.00683-0.07056 0.031716-0.2181 0.21811 0.29583 1.2485 0.29583 1.4778 0 0.60724 1.8671 5.3938 1.815 5.4458-0.36836 0.36835-0.35995 0.4621-0.63306-0.08415-0.4232-0.84635-0.55514-2.4308-0.92889-2.6177-0.34361-0.17182-0.47194 0.591-0.46412 0.591 0.01185 0-0.73229-1.0416-0.92892-1.1399-0.14359-0.07179-0.19044 0.3314-0.11198 0.52885-0.21492-0.1586-0.66777-0.48379-0.85895-0.8661-0.38284-0.76576-0.698-2.5558-1.3089-3.1666-0.0477-0.047693-0.58105 0.86692-0.63306 0.97097-0.11001 0.22006-2.0914-0.8667-0.75995 0.46477 0.75792 0.75791 0.91709 2.1832 1.6041 2.8702 1.1256 1.1256 1.9645 2.6203 2.6598 4.0107 0.05484 0.10963 0.53417 1.0306 0.81368 1.5315-0.0034-0.0034-0.0088-0.0087-0.01157-0.01163-0.62767-0.62768-0.9465-1.5802-1.6041-2.2378-1.5996-1.5996-2.1807-3.0248-3.5887-4.4328-0.13533-0.13534 0.0034 0.63452-0.16897 0.54892-0.10081-0.05042-0.46051-0.5098-0.54825-0.42205-0.62208 0.62207 1.3598 2.7955 1.6882 3.1239 0.20173 0.20173 0.57058 1.4044 0.92567 2.0455-0.20769-0.20007-0.46056-0.44111-0.67192-0.65249-0.27159-0.27154-1.6165-2.2556-2.0267-1.4351-0.08495 0.16988 0.26131 0.70963 0.12686 0.84409-1.97e-4 2.2e-4 -0.76833-1.9076-0.92886-2.0682-0.64991-0.6499-1.3616-5.0658-1.9419-5.0658-0.058477 0-0.080632 0.98813-0.16897 1.0765-0.091074 0.091083-0.47973 0.24562-0.75995 0.10551-0.22268-0.11134-0.74045-0.8115-0.802-0.57028-0.25237 0.98861 0.57233 2.4938 0.75995 3.0605 0 1.379 1.6747 6.2623 2.2798 7.4725 0.14792 0.29585-1.635-0.89788-1.7309-0.80202-0.10284 0.10286 0.37996 1.2072 0.37996 1.4772 0 0.12315-1.4372-0.12838-0.84408 0.46477 0.16188 0.16191 1.8524 0.3426 1.2661 0.92889-0.23504 0.23503-1.265-0.50802-1.6461-0.12687-0.25618 0.25617 0.77437 0.74548 0.37996 1.1399-0.089353 0.08933-1.0775 0.35754-0.97094 0.46412 0.73678 0.73677 0.41086 1.086 0.802 1.4772 0.8449 0.84491 3.5649 0.11533 4.3816 0.93212 0.34197 0.34196 0.59581 0.76474 0.92889 1.0978 0.41685 0.41687 1.0929 0.1556 1.2661 0.80202-0.19541 0.19541-6.642-1.336-6.6699-1.3082-0.26902 0.26901-0.42297 0.76089-0.71722 1.0551-0.25141 0.25142 0.5062 0.92316 0.5062 1.0978 0 0.33914-0.75995 0.90186-0.75995 1.0551 0 0.51536 1.3129-0.80202 1.9419-0.80202 0.37801 0 0.54151 0.37259 0.71784 0.54892 0.89341 0.89341 3.6223 0.7521 4.3901 1.5199 0.06034 0.06032-2.1976-0.08222-2.3219 0.04207-0.26546 0.2655 1.5549 0.83702 1.6468 0.92889 0.0801 0.08008-0.12689 0.47346-0.12689 0.59099 0 0.11467 0.15494 0.64644 0.04211 0.7593-0.55838 0.55837-1.5585-0.2559-2.0682 0.25374-0.22793 0.22794-0.25745 0.72158-0.50685 0.97096-1.0527 1.0527-1.1867 1.9279-2.1698 2.9109-0.55934 0.55933 0.86593 1.4139 0.67576 1.604-0.14283 0.14285-1.4105 1.0389-1.0137 1.4357 0.24274 0.24276 5.2348-1.7327 5.2348-1.604 0 1.187-2.9863 1.2133-3.588 1.8151-0.28474 0.28471 0.49375 3.1091 1.1399 2.786 0.58288-0.29143 0.97393-1.2697 1.4351-1.7309 0.41433-0.4143 1.311-0.25523 1.773-0.71722 1.3959-1.3959 3.2223-1.5709 4.4833-2.832 0.0718-0.07179 1.4172-0.12688 1.4351-0.12688 0.65609 0-0.76873 0.9466-0.36246 1.3529 0.16287 0.16288 0.36475 0.32208 0.5489 0.5062 0.25107 0.2511 0.61853-0.22558 0.63306-0.21102 0.15065 0.15062 0.63354 0.08437 0.75998-0.04207 0.12855-0.12858 0.7188-0.15135 0.95929-0.22915 0.24088 0.07763 0.83022 0.10068 0.95866 0.22915 0.12644 0.12645 0.6093 0.1927 0.75992 0.04207 0.01468-0.01455 0.38202 0.46212 0.63309 0.21102 0.18415-0.18412 0.386-0.34332 0.5489-0.5062 0.40626-0.40627-1.0186-1.3529-0.36246-1.3529 0.01778 0 1.3633 0.05508 1.4351 0.12688 1.261 1.261 3.0874 1.4361 4.4832 2.832 0.462 0.46199 1.3587 0.30292 1.773 0.71722 0.46118 0.46118 0.85224 1.4395 1.4351 1.7309 0.64613 0.32307 1.4246-2.5013 1.1399-2.786-0.60176-0.60178-3.588-0.62808-3.588-1.8151 0-0.12863 4.9921 1.8468 5.2348 1.604 0.39687-0.39684-0.87016-1.2929-1.013-1.4357-0.19016-0.19018 1.2345-1.0447 0.67514-1.604-0.98305-0.98307-1.1171-1.8583-2.1698-2.9109-0.2494-0.24938-0.27892-0.74303-0.50685-0.97096-0.50967-0.50964-1.5098 0.30463-2.0682-0.25374-0.11283-0.11286 0.04208-0.64463 0.04208-0.7593 0-0.11753-0.20698-0.51091-0.12689-0.59099 0.09189-0.09187 1.9122-0.6634 1.6468-0.92889-0.12429-0.12429-2.3823 0.01826-2.3219-0.04207 0.7678-0.76779 3.4966-0.62647 4.39-1.5199 0.17636-0.17633 0.33986-0.54892 0.71787-0.54892 0.62908 0 1.9419 1.3174 1.9419 0.80202 0-0.15326-0.75995-0.71598-0.75995-1.0551 0-0.17468 0.75764-0.84642 0.50623-1.0978-0.29425-0.29423-0.44823-0.7861-0.71725-1.0551-0.02794-0.02785-6.4745 1.5036-6.6699 1.3082 0.17317-0.64641 0.84927-0.38514 1.2661-0.80202 0.33308-0.33309 0.58692-0.75588 0.92889-1.0978 0.81679-0.8168 3.5368-0.08721 4.3817-0.93212 0.39111-0.39113 0.06522-0.74039 0.802-1.4772 0.1066-0.10658-0.88097-0.37479-0.97032-0.46412-0.39444-0.39443 0.63552-0.88374 0.37934-1.1399-0.38115-0.38115-1.4111 0.3619-1.6461 0.12687-0.5863-0.58629 1.1049-0.76698 1.2668-0.92889 0.59313-0.59315-0.84473-0.34162-0.84473-0.46477 0-0.26992 0.4828-1.3743 0.37996-1.4772-0.09587-0.09586-1.8788 1.0979-1.7309 0.80202 0.60515-1.2103 2.2798-6.0935 2.2798-7.4725 0.18762-0.56669 1.0123-2.0719 0.75995-3.0605-0.06158-0.24122-0.57933 0.45894-0.802 0.57028-0.28022 0.14011-0.66888-0.014422-0.75995-0.10551-0.08834-0.08834-0.11046-1.0765-0.16894-1.0765-0.58037 0-1.292 4.4159-1.9419 5.0658-0.16053 0.16054-0.92869 2.0684-0.92889 2.0682-0.13445-0.13446 0.21184-0.67421 0.12689-0.84409-0.41022-0.82051-1.7552 1.1635-2.0267 1.4351-0.21139 0.21138-0.4642 0.45242-0.6719 0.65249 0.3551-0.64105 0.72394-1.8438 0.92564-2.0455 0.3284-0.32837 2.3103-2.5018 1.6882-3.1239-0.08774-0.08775-0.44744 0.37163-0.54828 0.42205-0.1721 0.0856-0.03364-0.68426-0.16894-0.54892-1.408 1.4079-1.989 2.8332-3.5887 4.4328-0.65756 0.65754-0.97636 1.6101-1.604 2.2378-0.0034 3e-3 -0.0082 0.0082-0.01157 0.01163 0.27952-0.50096 0.75885-1.4219 0.81368-1.5315 0.69524-1.3905 1.5342-2.8852 2.6598-4.0107 0.68696-0.68698 0.84614-2.1123 1.604-2.8702 1.3315-1.3315-0.64988-0.24471-0.75992-0.46477-0.052014-0.10405-0.58539-1.0187-0.63309-0.97097-0.61088 0.61087-0.92598 2.4009-1.3089 3.1666-0.19118 0.38231-0.64401 0.7075-0.85898 0.8661 0.07846-0.19745 0.0315-0.60064-0.11199-0.52885-0.19663 0.098325-0.9408 1.1399-0.92889 1.1399 0.0079 0-0.12048-0.76281-0.46412-0.591-0.37372 0.18688-0.50572 1.7714-0.92889 2.6177-0.27314 0.54626-0.2647 0.4525-0.63306 0.08415-0.05201-0.05202 1.815-4.8386 1.815-5.4458 0-0.22931 0.51393-1.2597 0.29583-1.4778-0.02484-0.024892-0.04835-0.03437-0.07056-0.031717-0.21522 0.025316-0.32241 1.2007-0.56247 0.96061-0.26309-0.26305-0.38459-0.67976-0.63371-0.92889-0.10476-0.10476-0.3792 0.84396-0.42207 0.88681-0.14774 0.14775-0.56942 0.021223-0.71722 0.16895-0.28564 0.28567-0.25073 0.88381-0.54893 1.182-0.1274 0.12742-0.29459-0.46533-0.42204-0.33789-0.03113 0.03122-0.18452 0.53335-0.25375 0.46412-0.47507-0.47507-0.2045-0.72372-0.80203-0.12622-0.10138 0.10139-0.79133 6.0859-0.91656 8.4118-0.12525-2.3258-0.81589-8.3104-0.91726-8.4118-0.59753-0.59749-0.32696-0.34885-0.802 0.12623-0.06923 0.069227-0.22248-0.43288-0.25375-0.46412-0.12742-0.12743-0.29467 0.46532-0.42207 0.33789-0.29817-0.29818-0.26323-0.89632-0.5489-1.182-0.14777-0.14775-0.56948-0.021223-0.71722-0.16895-0.0429-0.042856-0.31728-0.99158-0.42204-0.88681-0.24912 0.24913-0.37062 0.66584-0.63371 0.92889-0.24009 0.24011-0.34731-0.9353-0.56253-0.96061zm5.2795 13.61c0.11487 1.7847 0.37957 3.6411 0 4.0923-0.3799-0.45066-0.11486-2.3072 0-4.0923zm-0.73404 10.309c0.11949 6.4e-5 0.2402 0.10644 0.26924 0.23757 0.02918 0.13109-0.04434 0.23755-0.16375 0.23756-0.11944-4.2e-5 -0.24009-0.10649-0.26927-0.23756-0.02918-0.13117 0.04428-0.23757 0.16378-0.23757zm1.4674 0c0.11952 0 0.19293 0.10639 0.16378 0.23757-0.02918 0.13108-0.14983 0.23752-0.2693 0.23756-0.11941-1.6e-5 -0.1929-0.10647-0.16375-0.23756 0.02918-0.13112 0.1498-0.2375 0.26927-0.23757zm-1.6273 1.1477c0.10112 8.1e-5 0.21032 0.06285 0.28482 0.16377 0.11247 0.15234 0.11247 0.34347 0 0.42658-0.11252 0.08309-0.29526 0.02678-0.40782-0.12558-0.11255-0.15239-0.11255-0.34348 0-0.42658 0.03412-0.02523 0.07665-0.03819 0.12299-0.03819zm1.7879 0c0.04634 0 0.08822 0.01295 0.12232 0.03819 0.11255 0.0831 0.11255 0.27419 0 0.42658-0.11255 0.15235-0.29529 0.20867-0.40782 0.12558-0.11244-0.08311-0.11244-0.27424 0-0.42658 0.07451-0.10092 0.18438-0.16369 0.2855-0.16377zm-1.9989 1.371c0.0727-0.0017 0.14769 0.02173 0.21297 0.06538 0.1598 0.10683 0.2207 0.30756 0.13592 0.44858-0.08481 0.14101-0.28296 0.16898-0.44273 0.06214-0.15982-0.10682-0.22078-0.3082-0.13595-0.44923 0.04685-0.07795 0.13146-0.1247 0.22979-0.12688zm2.2093 0c0.09833 0.0022 0.18294 0.04892 0.22982 0.12688 0.08481 0.14103 0.02371 0.34241-0.13595 0.44923-0.15977 0.10683-0.35795 0.07886-0.44276-0.06214-0.08478-0.14102-0.02371-0.34176 0.13592-0.44858 0.06528-0.04363 0.14029-0.06704 0.21297-0.06538z" fill="#fff"/>
</svg>
