<?xml version="1.0" encoding="UTF-8"?>
<svg width="150" height="150" version="1.1" viewBox="0 0 39.688 39.688" xmlns="http://www.w3.org/2000/svg" xmlns:cc="http://creativecommons.org/ns#" xmlns:dc="http://purl.org/dc/elements/1.1/" xmlns:rdf="http://www.w3.org/1999/02/22-rdf-syntax-ns#">
 <metadata>
  <rdf:RDF>
   <cc:Work rdf:about="">
    <dc:format>image/svg+xml</dc:format>
    <dc:type rdf:resource="http://purl.org/dc/dcmitype/StillImage"/>
    <dc:title/>
    <cc:license rdf:resource="http://creativecommons.org/licenses/by-sa/4.0/"/>
    <dc:creator>
     <cc:Agent>
      <dc:title>Gireen</dc:title>
     </cc:Agent>
    </dc:creator>
   </cc:Work>
   <cc:License rdf:about="http://creativecommons.org/licenses/by-sa/4.0/">
    <cc:permits rdf:resource="http://creativecommons.org/ns#Reproduction"/>
    <cc:permits rdf:resource="http://creativecommons.org/ns#Distribution"/>
    <cc:requires rdf:resource="http://creativecommons.org/ns#Notice"/>
    <cc:requires rdf:resource="http://creativecommons.org/ns#Attribution"/>
    <cc:permits rdf:resource="http://creativecommons.org/ns#DerivativeWorks"/>
    <cc:requires rdf:resource="http://creativecommons.org/ns#ShareAlike"/>
   </cc:License>
  </rdf:RDF>
 </metadata>
 <g transform="matrix(.26473 0 0 .26473 36.889 -67.146)" fill="#fff" opacity=".96" stroke-width=".95385">
  <path transform="translate(-171.43 -365.71)" d="m70.609 633.27v111.41h72.615v-111.41z" opacity="1"/>
  <rect x="-74.886" y="362.59" width="20.377" height="29.924" opacity="1"/>
  <path d="m-116.76 363.26 11.533-0.31173 1.5585 8.4161 0.3117 21.508h-18.702l0.429-23.127z" opacity="1"/>
  <path d="m-115.26 347.22 10.745-6.8676 10.089-1.8123 0.21043 12.382-11.86 5.3711 0.58525 9.9706-12.576 1.8598z" opacity="1"/>
  <path d="m-12.005 362.69-11.533-0.31171-1.5585 8.416-0.31171 21.508h18.702l-0.429-23.127z" opacity="1"/>
  <path d="m-13.722 347.67-10.745-6.8676-22.715-2.3174 12.416 12.887 11.86 5.371-0.58526 9.9706 12.576 1.8598z" opacity="1"/>
  <rect x="-96.53" y="264.32" width="64.039" height="8.5422" opacity="1"/>
  <rect x="-96.53" y="372.23" width="64.039" height="8.5422" opacity="1"/>
 </g>
</svg>
