<?xml version="1.0" encoding="UTF-8"?>
<svg width="100" height="100" version="1.1" viewBox="0 0 26.458 26.458" xmlns="http://www.w3.org/2000/svg">
	<g fill="#fff">
		<path d="m19.844 3.9688v3.9688c0 0.71437 2.1696 2.6458 2.6458 2.6458 0.47625 1e-6 2.6458-1.9315 2.6458-2.6458v-3.9688h-5.2917zm0.82011 1.0842h3.6504v2.621c0 0.22769-0.11529 0.38513-0.25373 0.56999-0.13844 0.18486-0.31801 0.37846-0.50591 0.55707-0.1879 0.17861-0.38394 0.34244-0.55862 0.46664-0.087339 0.062099-0.16791 0.11365-0.24598 0.154-0.078068 0.040342-0.14374 0.076481-0.25993 0.076481-0.1162 0-0.18135-0.036139-0.25942-0.076481-0.078069-0.040342-0.16071-0.091897-0.24805-0.154-0.17468-0.1242-0.37072-0.28803-0.55862-0.46664-0.1879-0.17861-0.36541-0.37221-0.50384-0.55707-0.13844-0.18486-0.25632-0.3423-0.25632-0.56999v-2.621zm0.47697 0.47646v2.1446c0-0.013376 0.045629 0.13227 0.1602 0.28525s0.27788 0.33141 0.45114 0.49609c0.17325 0.16469 0.3577 0.31726 0.50746 0.42375 0.074883 0.053243 0.14183 0.094147 0.18965 0.11886 0.016323 0.0084333 0.029697 0.013589 0.040825 0.017053 0.011144-0.0034613 0.024928-0.0085713 0.041341-0.017053 0.047815-0.024709 0.11426-0.065613 0.18914-0.11886 0.14977-0.10649 0.33266-0.25906 0.50591-0.42375 0.17325-0.16469 0.33657-0.34311 0.45114-0.49609 0.11457-0.15298 0.16226-0.29863 0.16226-0.28525v-2.1446h-2.6991z"/>
		<path d="m11.842 5.1811c0.037988 0.071289 0.080126 0.1417 0.12712 0.21136 0.24951 0.36981 0.43544 0.63718 0.61702 0.79685 0.18159 0.15967 0.34744 0.22893 0.64286 0.22893 0.29543 1e-7 0.46075-0.069257 0.64234-0.22893 0.18159-0.15967 0.36958-0.42704 0.61908-0.79685 0.046963-0.069606 0.089157-0.14012 0.12712-0.21136h-2.7755zm-0.29559 0.33641c-0.031005 0.18721-0.077438 0.40654-0.14004 0.53175-0.062182 0.12439-0.16819 0.29231-0.26923 0.42426 0.033975 0.080251 0.072874 0.1727 0.12092 0.2744 0.10683 0.22612 0.25198 0.48554 0.4222 0.67593 0.15166 0.16964 0.37862 0.25731 0.65784 0.29869 0.27921 0.041383 0.59762 0.031523 0.8909 0.031523 0.29329 0 0.61324 0.0098613 0.89245-0.031523 0.27922-0.041382 0.50668-0.12905 0.65836-0.29869 0.17021-0.19037 0.31284-0.44982 0.41961-0.67593 0.047917-0.10148 0.088231-0.19375 0.12247-0.27389-0.10112-0.132-0.207-0.30029-0.26923-0.42478-0.062479-0.12495-0.10904-0.34376-0.14004-0.53072-0.022498 0.036969-0.045561 0.07395-0.07028 0.11059-0.2503 0.37101-0.44731 0.66384-0.69143 0.8785-0.24412 0.21465-0.54687 0.33435-0.92191 0.33435-0.37503 0-0.6778-0.11969-0.92191-0.33435-0.24412-0.21465-0.43905-0.50749-0.68936-0.8785-0.024963-0.037002-0.048614-0.074281-0.071313-0.11162zm-0.78962 1.1539c-0.14012 0.012225-0.34572 0.072352-0.51625 0.20877-0.24803 0.19843-0.20774 0.24805-0.41858 0.29456-0.046442 0.010245-0.13797 0.023574-0.25838 0.048576 0.00102 0.39848 0.0031006 1.1952 0.0031006 1.3234 0 0.02676-0.002779 0.049198-0.0067179 0.06873 0.0040989 0.0034 0.00668 0.0058918 0.010852 0.0093018 0.043116 0.035214 0.089184 0.071389 0.12506 0.094051 0.022418 0.014165 0.044366 0.020991 0.048059 0.022738-0.0011205 2.28e-5 -0.0040748-9.64e-5 -0.0082683-5.168e-4 0.090462 0.011845 0.15489 0.070264 0.18862 0.11627 0.034815 0.047494 0.052634 0.092825 0.068213 0.14056 0.031156 0.095476 0.048362 0.20491 0.060462 0.3359 0.02419 0.26198 0.020461 0.60454-0.011369 0.9865-0.03174 0.38086-0.076187 0.64275-0.13694 0.83406-0.053998 0.17002-0.11464 0.22274-0.22893 0.45579 2.836e-4 0.0067 8.258e-4 0.013554 0.0010335 0.020154 0.00615 0.19224-0.02533 0.35346-0.074931 0.44648-0.049605 0.092979-0.13017 0.25425-0.12402 0.44028 0.00615 0.18604 0.44644 1.2899 0.45889 1.3953 0.012446 0.10542 0.080567 0.84956 0.093017 1.0294 0.01245 0.17983 0.031 0.5085-0.049609 0.74414-0.02069 0.06048-0.035771 0.10694-0.047542 0.14469 0.24072 0.0042 0.50314 0.008698 0.78858 0.011368 0.35072 0.0033 0.70139 0.0038 0.97255 0 0.12678-0.0019 0.2308-0.005301 0.31213-0.009301-0.50016-0.16947-0.82898-0.44011-1.033-0.72916-0.33824-0.47915-0.3359-0.98857-0.3359-1.0878s-0.0024-0.61067 0.3359-1.0899c0.14874-0.21069 0.36374-0.41192 0.66301-0.57102-0.18508-0.02691-0.35121-0.06683-0.48524-0.13384-0.1254-0.0627-0.18226-0.15444-0.25011-0.26407-0.06785-0.10963-0.1339-0.24396-0.19895-0.39636-0.13009-0.3048-0.25565-0.68359-0.3576-1.0645-0.10195-0.38091-0.17898-0.76031-0.20516-1.0723-0.01307-0.15599-0.014789-0.29501 0.006201-0.41961 0.02099-0.1246 0.0629-0.26743 0.21497-0.34003 0.14391-0.068731 0.31895-0.099939 0.53485-0.12867 0.21591-0.028731 0.46837-0.047841 0.73639-0.060978 0.46899-0.022989 0.9845-0.02807 1.4175-0.028939 0.06186-1.241e-4 0.12224 1e-7 0.18035 0 0.46488 0 1.0634 0.0026709 1.5994 0.028939 0.26802 0.013137 0.52048 0.032247 0.73639 0.060978 0.21591 0.028735 0.38935 0.059943 0.5333 0.12867 0.15207 0.072605 0.19562 0.21543 0.21652 0.34003 0.02103 0.1246 0.019311 0.26363 0.006201 0.41961-0.02621 0.31198-0.1032 0.69138-0.20516 1.0723-0.10195 0.38095-0.22957 0.75974-0.35967 1.0645-0.06505 0.1524-0.12904 0.28673-0.19689 0.39636-0.06785 0.10963-0.12472 0.20137-0.25011 0.26407-0.13415 0.06708-0.30047 0.10694-0.48576 0.13384 0.29968 0.1591 0.51478 0.36034 0.66353 0.57102 0.3382 0.47919 0.3359 0.99064 0.3359 1.0899s0.002289 0.60864-0.3359 1.0878c-0.20403 0.28904-0.53341 0.55969-1.034 0.72916 0.08124 0.0041 0.18473 0.007501 0.31109 0.009301 0.27119 0.0038 0.62389 0.0033 0.97462 0 0.28526-0.0027 0.54748-0.007098 0.78806-0.011368-0.01177-0.03775-0.026852-0.08421-0.047542-0.14469-0.08061-0.23565-0.062059-0.56431-0.049609-0.74414 0.01241-0.17983 0.080567-0.92398 0.093017-1.0294 0.0124-0.10538 0.45269-1.2092 0.45889-1.3953 0.0062-0.18604-0.07442-0.3473-0.12402-0.44028-0.0496-0.09302-0.081111-0.25425-0.074931-0.44648 2.14e-4 -0.0066 7.82e-4 -0.013454 0.001033-0.020154-0.11427-0.23305-0.17603-0.28578-0.22996-0.45579-0.06068-0.19129-0.1052-0.45322-0.13694-0.83406-0.03187-0.38196-0.034029-0.72452-0.009819-0.9865 0.0121-0.13099 0.029302-0.24042 0.060462-0.3359 0.01558-0.047738 0.033392-0.093066 0.068212-0.14056 0.033732-0.046008 0.09817-0.10443 0.18862-0.11627-0.004314 2.688e-4 -0.007572 2.31e-5 -0.008785 0 0.003241-0.0017477 0.024614-0.0080602 0.047026-0.022221 0.03587-0.022661 0.084-0.058837 0.12712-0.094051 0.003558-0.0029063 0.00683-0.0058847 0.010335-0.008785-0.004043-0.019692-0.006718-0.042183-0.006718-0.069246 0-0.12817 0.002085-0.92494 0.003101-1.3234-0.12066-0.025066-0.21239-0.038317-0.2589-0.048576-0.21084-0.046505-0.17053-0.096126-0.41858-0.29456-0.17184-0.13747-0.37917-0.19719-0.51935-0.20877-0.032734 0.075634-0.070993 0.16139-0.11679 0.25838-0.11539 0.24436-0.272 0.53318-0.48834 0.77515-0.243 0.27179-0.5805 0.38649-0.91209 0.43563-0.33159 0.049145-0.66932 0.037207-0.95291 0.037207-0.28358 0-0.62184 0.011938-0.95343-0.037207-0.3316-0.049146-0.66908-0.16384-0.91209-0.43563-0.21632-0.24195-0.3729-0.53079-0.48834-0.77515-0.045809-0.096954-0.082504-0.18276-0.11472-0.25838-0.001241 1.016e-4 -0.002365-1.092e-4 -0.003617 0zm6.5608 0.66611c-0.001095 0.42823-0.002466 1.0304-0.002584 1.1762 0.01264 0.019837 0.038847 0.055094 0.073897 0.095601 0.034556 0.039942 0.077927 0.085873 0.12712 0.13591v-1.3312c-0.067516-0.028901-0.13396-0.054347-0.19844-0.076481zm-8.1773 5.168e-4c-0.063956 0.021983-0.12994 0.047329-0.19689 0.075964v1.3296c0.048409-0.04941 0.090873-0.094848 0.12506-0.13436 0.035045-0.040507 0.061771-0.075764 0.074414-0.095601 0.00213-0.00334 0.0010971-0.0025776 0.0020671-0.0051676-1.839e-4 -0.15061-0.0030109-0.73747-0.0046509-1.1705zm-0.62063 0.30747c-0.13062 0.089878-0.25683 0.1978-0.37104 0.32711v1.4997c0.11572-0.10011 0.24443-0.21285 0.37104-0.32711v-1.4997zm9.4201 0v1.5007c0.12591 0.11332 0.25385 0.22512 0.36897 0.32453v-1.5002c-0.11363-0.12842-0.23912-0.23563-0.36897-0.32504zm-10.213 0.9803c-0.3457 0.59058-0.35012 0.56509-0.32349 0.62632 0.031016 0.07131 0.13022 0.13953 0.12092 0.18604-0.00833 0.04165-0.2353 0.39167-0.28267 0.54674 0.015772-0.00565 0.029242-0.010005 0.045475-0.01602 0.14151-0.052427 0.298-0.11979 0.43977-0.19534v-1.1477zm11.006 0.0010335v1.1467c0.14178 0.07555 0.29829 0.14291 0.43977 0.19534 0.016008 0.0059325 0.029398 0.0099243 0.044958 0.015503-0.047684-0.1553-0.27435-0.50461-0.28267-0.54622-0.0093-0.046506 0.08991-0.11473 0.12092-0.18604 0.026611-0.061198 0.02213-0.035763-0.32298-0.62528zm-5.7144 0.24236c-0.28051 5.866e-4 -0.59243 0.0031511-0.90072 0.010852v3.0949c0.03966 0.0035 0.07965 0.006602 0.11937 0.009302 0.28311 0.01932 0.56954 0.027676 0.78135 0.031006v-3.1461zm0.42375 0v3.1461c0.21226-0.0034 0.49904-0.011746 0.78135-0.031006 0.03892-0.0027 0.07793-0.005902 0.11679-0.009302v-3.0949c-0.30721-0.0077289-0.61828-0.010284-0.89814-0.010852zm-1.7461 0.025322c-0.01496 6.863e-4 -0.030108 0.001337-0.044958 0.002067-0.26085 0.012786-0.50411 0.032157-0.70125 0.058394-0.1725 0.022957-0.30796 0.055775-0.37672 0.081132-0.0028 0.00718-0.006519 0.018351-0.009819 0.03824-0.0111 0.065328-0.013397 0.17693-0.002067 0.31213 0.02272 0.27039 0.09381 0.63661 0.1912 1.0005 0.09739 0.36388 0.22096 0.72872 0.34003 1.0077 0.05954 0.13945 0.11761 0.25818 0.16795 0.33951 0.04405 0.07116 0.09245 0.11023 0.0863 0.11007 0.05181 0.02373 0.18238 0.052675 0.34933 0.079065v-3.0288zm3.068 0v3.0288c0.16753-0.02657 0.29832-0.055792 0.34985-0.079582-0.0025-0.0024 0.043223-0.04078 0.085783-0.10955 0.05034-0.08133 0.10841-0.20007 0.16795-0.33951 0.11908-0.27897 0.24264-0.64381 0.34003-1.0077 0.09739-0.36384 0.16848-0.73006 0.1912-1.0005 0.01131-0.1352 0.009339-0.2468-0.00155-0.31213-0.0033-0.019834-0.007019-0.031052-0.009819-0.03824-0.069-0.025378-0.20643-0.058124-0.3793-0.081132-0.19714-0.026237-0.43992-0.045609-0.70073-0.058394-0.01429-7.005e-4 -0.029019-0.0013981-0.043409-0.002067zm-5.4462 0.069763c-0.072977 0.079067-0.15775 0.1644-0.25063 0.2527-0.24989 0.23757-0.55009 0.49668-0.76584 0.68161-0.25223 0.2162-0.5886 0.36344-0.86713 0.46664-0.047626 0.01764-0.090702 0.031719-0.13436 0.046509-0.11593 0.29693-0.3376 0.79327-0.42013 1.0821-0.12402 0.43408-0.68214 1.6743-0.86816 1.972-0.015971 0.02555-0.03533 0.056873-0.05426 0.087333 0.13685 0.05945 0.36041 0.15854 0.56482 0.26717 0.14166 0.07529 0.28549 0.1542 0.40411 0.22841 0.059313 0.03712 0.11217 0.07348 0.15813 0.10955 0.045965 0.03607 0.088042 0.05442 0.13126 0.14624 0.044042 0.093579 0.021836 0.14012 0.013436 0.17983s-0.018493 0.07406-0.033073 0.1111c-0.02916 0.07409-0.071718 0.15744-0.12144 0.25218-0.099444 0.18949-0.23477 0.42174-0.37259 0.65216-0.13782 0.23043-0.27725 0.45879-0.38292 0.6351-0.052836 0.08815-0.097025 0.16262-0.12712 0.21652-0.00129 0.0024-8.24e-4 0.004001-0.002067 0.006201 0.015396 0.02204 0.028025 0.042708 0.05271 0.073898 0.072884 0.092079 0.17795 0.21244 0.28732 0.33383 0.0024 0.0027 0.0043079 0.005052 0.0067179 0.007752 0.29287-0.327 0.95177-1.0362 1.0439-1.1865 0.11782-0.19224 1.7813-4.038 1.8102-4.1238 0.028939-0.085769 0.099288-0.20926 0.13488-0.35037 0.03559-0.14111 0.063781-0.46409 0.094051-0.82734 0.030184-0.36218 0.032647-0.68729 0.011886-0.91209-0.010381-0.1124-0.028896-0.20103-0.042891-0.24391-0.00126-0.00388-0.0010735-0.0056412-0.0010335-0.0062012-8.64e-5 -3.703e-4 -5.572e-4 -9.942e-4 -0.0010336-0.0020671-0.036504-0.016132-0.08377-0.02508-0.11524-0.044958-0.054039-0.034136-0.10582-0.073246-0.15348-0.11162zm7.8248 0c-0.047648 0.038364-0.099958 0.077487-0.154 0.11162-0.03212 0.020286-0.07925 0.030783-0.11679 0.047026-0.0017 0.0039-1.34e-4 4.124e-4 -0.002067 0.0062012-0.014 0.042885-0.030961 0.13151-0.041341 0.24391-0.02073 0.2248-0.020342 0.54991 0.009818 0.91209 0.03027 0.36328 0.051212 0.68739 0.095602 0.82734 0.04807 0.12581 0.07907 0.2646 0.108 0.35037 0.028929 0.08578 1.7193 3.9315 1.8371 4.1238 0.092048 0.15018 0.75023 0.85873 1.0433 1.186 0.002148-0.002382 0.004055-0.004336 0.006201-0.006718 0.1094-0.12139 0.21596-0.24226 0.28887-0.33435 0.02469-0.03119 0.03731-0.051868 0.05271-0.073898-0.001289-0.0023-7.67e-4 -0.003901-0.002067-0.006201-0.030103-0.053897-0.074284-0.12837-0.12712-0.21652-0.10568-0.17631-0.24666-0.40467-0.38447-0.6351-0.13782-0.23043-0.27365-0.46267-0.3731-0.65216-0.04972-0.094744-0.090213-0.1781-0.11937-0.25218-0.01458-0.037038-0.02674-0.071394-0.03514-0.1111-0.00839-0.039709-0.02802-0.086248 0.01602-0.17983 0.043219-0.091835 0.084771-0.11018 0.13074-0.14624 0.045966-0.036075 0.09882-0.072424 0.15813-0.10955 0.11863-0.074252 0.26245-0.15312 0.40411-0.22841 0.20442-0.10865 0.42764-0.20772 0.56431-0.26717-0.018928-0.030462-0.038289-0.061779-0.05426-0.087333-0.18603-0.29766-0.74414-1.5379-0.86816-1.972-0.082549-0.2889-0.30473-0.78519-0.42065-1.0821-0.043292-0.014712-0.086037-0.028984-0.13332-0.046509-0.27847-0.1032-0.61492-0.25046-0.86713-0.46664-0.21576-0.18494-0.51543-0.44404-0.76533-0.68161-0.093711-0.089088-0.17659-0.17311-0.25063-0.2527zm-3.9667 3.4773c-1.1064 0.01107-1.6042 0.36962-1.8573 0.72812-0.25703 0.36417-0.25786 0.74672-0.25786 0.84594s8.38e-4 0.47974 0.25786 0.84388c0.25706 0.36417 0.76692 0.73019 1.9105 0.73019 1.1436 0 1.655-0.36602 1.912-0.73019 0.25706-0.36414 0.25787-0.74466 0.25787-0.84388s-8.04e-4 -0.48177-0.25787-0.84594c-0.25703-0.36417-0.76848-0.72812-1.912-0.72812-0.0089 0-0.018012-4.4e-5 -0.026872 0-0.0088 4.4e-5 -0.017644-8.7e-5 -0.026354 0zm-7.4151 1.4351c-0.086409 0.14668-0.17711 0.30734-0.25632 0.46354v3.1672c0.030072 0.02517 0.057641 0.047534 0.08785 0.072864 0.10762 0.09026 0.20917 0.1743 0.30541 0.25373 0.089768-0.08395 0.43586-0.39236 0.52658-0.55707-0.068792-0.074648-0.13602-0.14709-0.20929-0.22841-0.11219-0.12453-0.2205-0.24904-0.30437-0.35502-0.041934-0.05298-0.078334-0.09989-0.10749-0.14676-0.014577-0.02343-0.027023-0.046534-0.039274-0.075964-0.012249-0.02943-0.03147-0.06237-0.01912-0.14263 0.010985-0.07142 0.020973-0.074976 0.033073-0.099736s0.027774-0.051395 0.044958-0.082165c0.014866-0.02662 0.032022-0.057267 0.050643-0.089917v-2.1146c-0.038881-0.02244-0.077413-0.044662-0.11265-0.065112zm14.938 0c-0.03581 0.020811-0.074647 0.043292-0.1142 0.066146v2.1089c0.01971 0.03451 0.03764 0.066656 0.053227 0.094568 0.01719 0.03077 0.030791 0.057405 0.042891 0.082165s0.02415 0.028316 0.03514 0.099736c0.01236 0.080278-0.007377 0.1132-0.019637 0.14263s-0.026244 0.052534-0.040824 0.075964c-0.029159 0.046864-0.06347 0.093771-0.10542 0.14676-0.083896 0.10598-0.19473 0.23101-0.30696 0.35553-0.073226 0.081251-0.13958 0.15329-0.20774 0.22789 0.090799 0.16486 0.43717 0.47395 0.52658 0.55759 0.096419-0.079573 0.198-0.16376 0.30592-0.25425 0.030409-0.025497 0.0581-0.048048 0.088367-0.073381v-3.1647c-0.079463-0.15684-0.17055-0.31828-0.25735-0.4656zm-14.401 0.30334v1.17c0.01379-0.02296 0.027575-0.04571 0.041341-0.06873 0.13623-0.22779 0.26937-0.45596 0.36122-0.63097 0.040395-0.07697 0.069847-0.13574 0.089917-0.18345-0.025331-0.01819-0.050528-0.035045-0.08785-0.058395-0.10336-0.06469-0.24253-0.14227-0.3793-0.21497-0.00817-0.0043-0.016956-0.008896-0.025322-0.013436zm13.865 0c-0.008359 0.004487-0.017153 0.009095-0.025321 0.013436-0.13678 0.072699-0.27543 0.15028-0.37879 0.21497-0.03732 0.02336-0.06252 0.040195-0.08785 0.058395 0.02008 0.047708 0.04747 0.10652 0.08785 0.18345 0.091846 0.175 0.22498 0.40318 0.36122 0.63097 0.014252 0.02383 0.028575 0.047548 0.042891 0.071314v-1.1725zm-15.082 1.2955c-0.060079 0.14875-0.11756 0.26962-0.16071 0.33435-0.099221 0.14883-0.080623 0.16133-0.14883 0.16743-0.068209 0.0061-0.19844-0.01245-0.29146 0.11782-0.079589 0.11143-0.21765 0.55835-0.27544 0.81339 0.21767-0.02117 0.45401-0.02968 0.66353 0.10129 0.059913 0.03745 0.13401 0.09182 0.21291 0.15244v-1.6867zm16.299 0.002583v1.6841c0.078842-0.060591 0.15303-0.11502 0.21291-0.15244 0.20991-0.13121 0.44489-0.12255 0.66249-0.10129-0.057784-0.25504-0.19584-0.70196-0.27544-0.81339-0.09302-0.13028-0.22324-0.11172-0.29146-0.11782-0.06822-0.0062-0.049631-0.0186-0.14883-0.16743-0.042895-0.064342-0.099993-0.18421-0.15968-0.33176zm-8.7152 0.71262c-0.0059 1.03e-4 -0.01166 4.49e-4 -0.01757 5.17e-4 -0.09463 0.0011-0.18267 0.003819-0.2496 0.009819-0.05857 0.0053-0.10568 0.018663-0.10904 0.018603-0.0647 0.02828-0.08127 0.022485-0.11576 0.026355-0.01694 0.0019-0.035287 0.004085-0.054777 0.005685v0.62218c0.37508 0.0018 0.62372 0.003234 0.90072 0.004134v-0.6842c-0.11125-0.0016-0.22732-0.003801-0.3359-0.003101-6e-3 3.8e-5 -0.012147-1.02e-4 -0.018087 0zm1.0583 0c-0.03066 2.6e-5 -0.061757 2.77e-4 -0.093017 5.17e-4 -0.06251 4.81e-4 -0.12575 0.001167-0.18759 0.002067v0.68575c0.23378 4.57e-4 0.58422-4.1e-5 0.89814 0v-0.62787c-0.01878-0.0016-0.03641-0.003268-0.05271-0.005168-0.03448-0.0039-0.05107 0.001905-0.11576-0.026355-0.0033 4.4e-5 -0.04996-0.013353-0.10852-0.018603-0.06693-0.0061-0.15548-0.008719-0.25011-0.009819-0.02957-3.43e-4 -0.059784-5.42e-4 -0.090434-5.17e-4zm-4.0881 0.056844c-9.176e-4 0.0073-0.0019038 0.014191-0.0025838 0.022221-0.014371 0.16837-0.028534 0.44432-0.023254 0.59325 0.12008 2.71e-4 0.51587 0.002517 0.76274 0.003617v-0.60565c-0.22936-0.0034-0.44629-0.007202-0.62683-0.010852-0.044445-8.9e-4 -0.070353-0.001684-0.11007-0.002584zm7.1903 0c-0.039519 8.87e-4 -0.06531 0.001684-0.10955 0.002584-0.18106 0.0036-0.39874 0.007402-0.6289 0.010852v0.61857c0.32525-2.3e-4 0.60588-5.89e-4 0.7643-5.16e-4 0.0069-0.14457-0.008295-0.43507-0.023255-0.60927-6.88e-4 -8e-3 -0.001684-0.014901-0.002584-0.022221zm-5.1289 0.018087c-0.25596 0.0035-0.5766 0.0032-0.90072 5.17e-4v0.60203c0.345 0.0017 0.51277 0.002235 0.90072 0.004135v-0.60668zm3.068 0v0.61392c0.34919-9.4e-5 0.56479 2.35e-4 0.90072 0v-0.6134c-0.32405 0.0026-0.64477 3e-3 -0.90072-5.17e-4zm-5.0788 1.0216c-0.088399 0.27279-0.25455 0.93098-0.2899 1.2563-0.043841 0.40341-0.30704 1.7628-0.35088 2.1224-0.043841 0.35952-0.26717 3.4164-0.24236 3.6644 0.024802 0.24805-0.13408 0.83903 0.26975 0.76688 0.40383-0.07215 3.0324 0.13748 3.1306 0.20877 0.046739 0.033959 0.19791-0.46874 0.34726-1.0175-0.27255-0.0015-0.63317-0.005704-1.0237-0.017054-0.36669-0.0107-0.739-0.027177-1.0392-0.054777-0.1501-0.0138-0.28225-0.03146-0.39067-0.05271-0.05421-0.01063-0.10213-0.0207-0.14831-0.03669s-0.091856-0.02956-0.14831-0.0863c-0.099556-0.10004-0.10015-0.171-0.12712-0.27337-0.026973-0.10236-0.050523-0.22746-0.072347-0.36897-0.043647-0.283-0.07932-0.63475-0.10129-0.98444-0.021968-0.34966-0.029871-0.69474-0.01757-0.96893 0.00615-0.1371 0.016698-0.25492 0.037207-0.35553 0.010256-0.05031 0.02098-0.09605 0.042892-0.14418 0.021911-0.04813 0.051775-0.11328 0.14418-0.15451 0.093198-0.04162 0.14165-0.02477 0.19172-0.01757 0.050063 0.0072 0.099654 0.020667 0.15606 0.037207 0.1128 0.03307 0.2474 0.082 0.40411 0.14469 0.31342 0.12536 0.70595 0.30173 1.1017 0.48628 0.58696 0.27369 1.0922 0.52272 1.4304 0.69143 0.02839-0.32659 0.049507-0.64697 0.041857-0.74828-0.005189-0.06873-0.027087-0.13791-0.041857-0.2005-0.08527-0.13378-0.34282-0.53879-0.45165-0.71934-0.12505-0.20739-0.37337-0.63681-0.55087-1.1482-0.09292-0.26776-0.18225-0.6672-0.25218-1.0315-0.03497-0.18213-0.064703-0.35408-0.085783-0.49248s-0.033073-0.22641-0.033073-0.30851c0-0.07818 0.001184-0.11042 0.002584-0.1881-0.79805-0.0037-1.5923-0.007685-1.9332-0.008785zm2.3554 0.010852c-0.0013 0.06303-0.0031 0.12873-0.0031 0.18604 0 7.89e-4 0.011472 0.11281 0.031522 0.24443s0.047649 0.29933 0.081649 0.47646c0.06801 0.35423 0.16017 0.75208 0.23668 0.97255 0.16138 0.465 0.39481 0.87155 0.51366 1.0687 0.07261 0.12043 0.21552 0.34629 0.32918 0.52555 0.12219-0.19264 0.26238-0.41477 0.32918-0.52555 0.11885-0.19712 0.35231-0.60366 0.51366-1.0687 0.07651-0.22047 0.16815-0.61832 0.23616-0.97255 0.034-0.17713 0.062125-0.34484 0.082165-0.47646 0.0201-0.13162 0.028939-0.24364 0.028939-0.24443 0-0.07235-0.001284-0.10496-0.002584-0.18035-0.45073 0-0.88095-1.99e-4 -1.1886-0.001034-0.30983-8.84e-4 -0.73928-0.002551-1.1886-0.004651zm4.7382 0.004651c-0.3737-9e-6 -1.1564 8.09e-4 -1.9373 0.001034 0.0013 0.07562 0.002584 0.10539 0.002584 0.18035 0 0.082099-0.01405 0.17011-0.03514 0.30851s-0.050823 0.31035-0.085783 0.49248c-0.06993 0.36426-0.15719 0.7637-0.25011 1.0315-0.1775 0.51144-0.42531 0.94086-0.55035 1.1482-0.10944 0.18152-0.37011 0.59075-0.45372 0.72192-0.01469 0.06189-0.035735 0.13013-0.040824 0.19792-0.0077 0.1013 0.013467 0.42168 0.041857 0.74828 0.33763-0.1687 0.84171-0.41769 1.4289-0.69143 0.3958-0.18454 0.78832-0.36091 1.1017-0.48628 0.15672-0.06269 0.29336-0.11162 0.40618-0.14469 0.05641-0.01654 0.10599-0.030007 0.15606-0.037207s0.096471-0.02405 0.18965 0.01757c0.0924 0.041239 0.1228 0.10638 0.14469 0.15451 0.02191 0.04813 0.034699 0.09387 0.044959 0.14418 0.02051 0.10062 0.03049 0.21844 0.03669 0.35553 0.0123 0.2742 0.0044 0.61927-0.01757 0.96893-0.02196 0.34968-0.05764 0.70143-0.10129 0.98444-0.02183 0.14151-0.045377 0.26661-0.072347 0.36897s-0.02911 0.17332-0.12867 0.27337c-0.05645 0.05675-0.10058 0.069793-0.14676 0.085783-0.04619 0.01599-0.09409 0.026577-0.14831 0.037207-0.10843 0.02125-0.24056 0.03891-0.39067 0.05271-0.30023 0.0276-0.67458 0.044077-1.0413 0.054777-0.38932 0.01135-0.74979 0.015564-1.0222 0.017054 0.14935 0.54877 0.30052 1.0515 0.34726 1.0175 0.09811-0.0713 2.7267-0.28092 3.1306-0.20877 0.40381 0.07215 0.24494-0.51883 0.26975-0.76688 0.0248-0.24801-0.19851-3.3049-0.24236-3.6644-0.04385-0.35956-0.30703-1.7189-0.35088-2.1224-0.03474-0.3196-0.19578-0.9597-0.28525-1.2408zm-12.47 0.026872c-0.039593 1.27e-4 -0.08 0.002168-0.11989 0.005168 0.019404 0.09667 0.055385 0.1742 0.1049 0.19895 0.099215 0.04961-0.45877 0.90537-0.57671 1.1224-0.11782 0.21704-0.39688 0.58911-0.41548 0.71934s-0.049661 1.1348-0.055811 1.3953c-0.00621 0.26041 0.037216 0.43408 0.086816 0.46509 0.049615 0.03101 0.074414 0.23564 0.16123 0.26045 0.086813 0.02475 0.19844 0.043362 0.24805 0.012402 0.049646-0.03101 0.024852-0.26669 0.012402-0.34726-0.012405-0.08061 0.024812-0.11157 0.043408-0.074415 0.018601 0.03722 0.037221 0.13643 0.17983 0.15503 0.14268 0.0186 0.14883-0.012444 0.14883-0.074414 0-0.06201-0.21079-0.78135-0.22324-0.86196-0.012405-0.08061 0.26666-0.72554 0.5209-0.88057 0.25424-0.15498 0.28521-0.16123 0.29766-0.13022 0.012405 0.03101-0.012399 0.17363 0.093018 0.21704 0.10541 0.04341 0.27286 0.080607 0.33486 0.037207 0.062012-0.04341 0.29766-0.99218 0.31626-1.1224 0.017452-0.12209 0.0023906-0.29346 0.082166-0.3297-0.075046-0.06329-0.14571-0.12296-0.22893-0.19275-0.2731-0.22904-0.57111-0.47141-0.67593-0.53692-0.028608-0.01785-0.17393-0.038244-0.33435-0.037724zm17.841 0c-0.1604-5.27e-4 -0.30572 0.019829-0.33435 0.037724-0.10484 0.065525-0.40276 0.30788-0.67593 0.53692-0.083191 0.069754-0.15364 0.12948-0.22841 0.19275 0.08028 0.035813 0.065213 0.20738 0.082682 0.3297 0.0186 0.13022 0.25425 1.079 0.31626 1.1224 0.06201 0.0434 0.22948 0.006203 0.33486-0.037207 0.10546-0.04341 0.080568-0.18603 0.093018-0.21704 0.0124-0.031 0.043451-0.024769 0.29766 0.13022 0.25425 0.15503 0.53335 0.79996 0.5209 0.88057-0.0124 0.08062-0.22324 0.79995-0.22324 0.86196 0 0.06197 0.0062 0.093014 0.14883 0.074414 0.14262-0.0186 0.16123-0.11782 0.17983-0.15503 0.0186-0.037169 0.055858-0.006205 0.043408 0.074415-0.01236 0.080579-0.037198 0.31626 0.012402 0.34726 0.04961 0.03096 0.16123 0.012408 0.24805-0.012402 0.08682-0.0248 0.11163-0.22944 0.16123-0.26045 0.04962-0.03101 0.092916-0.20468 0.086816-0.46509-0.0062-0.26045-0.037211-1.265-0.055811-1.3953-0.0186-0.13022-0.29765-0.5023-0.41548-0.71934-0.11782-0.21704-0.67594-1.0728-0.57671-1.1224 0.049495-0.024762 0.084977-0.10229 0.10439-0.19895-0.04013-0.003048-0.080559-0.005037-0.12041-0.005168zm-12.221 3.885c-0.010408 0.06312-0.020532 0.14121-0.025322 0.24805-0.01117 0.24898-0.00371 0.5872 0.01757 0.92604 0.021285 0.33885 0.056844 0.68049 0.097669 0.94516 0.02041 0.13234 0.041748 0.24514 0.062528 0.32401 0.0118 0.04488 0.021871 0.066767 0.022221 0.072347 0.01791 0.0057 0.040968 0.012837 0.075448 0.019637 0.05077 0.0099 0.11861 0.019512 0.19327 0.028422v-2.4019c-0.02279-0.0093-0.04842-0.020189-0.070279-0.028939-0.1498-0.05993-0.27738-0.10449-0.3669-0.13074-0.00273-8e-4 -0.0035411-0.001267-0.0062011-0.002067zm6.6037 0c-0.0027 8e-4 -0.002984 0.001267-0.005684 0.002067-0.08954 0.02625-0.21761 0.07081-0.36742 0.13074-0.02329 0.0093-0.048027 0.019515-0.072347 0.029455v2.4024c0.07688-0.0091 0.14341-0.019276 0.19534-0.029456 0.03296-0.0065 0.055681-0.014027 0.073381-0.019637 7.91e-4 -0.0062 0.010611-0.028287 0.022221-0.072347 0.02078-0.07887 0.044185-0.19168 0.064595-0.32401 0.04082-0.26467 0.076389-0.60632 0.097669-0.94516s0.02874-0.67706 0.01757-0.92604c-0.0048-0.10684-0.014912-0.18493-0.025322-0.24805zm-0.86713 0.3421c-0.18692 0.08266-0.38585 0.17387-0.58601 0.26717-0.10691 0.04984-0.21205 0.09904-0.31471 0.1478v1.88c0.05113-0.0013 0.10308-0.002634 0.15658-0.004134 0.25603-0.0075 0.51413-0.017977 0.74414-0.032557v-2.2583zm-4.8695 5.17e-4v2.2577c0.23031 0.01461 0.48782 0.025077 0.74414 0.032557 0.05356 0.0016 0.10543 0.002834 0.15658 0.004134v-1.8795c-0.10264-0.04873-0.2078-0.09795-0.31471-0.1478-0.20024-0.09337-0.39899-0.18445-0.58601-0.26717zm1.3224 0.61753v1.6852c0.21515 0.0031 0.39892 0.004251 0.54467 0.004651 0.11875-0.45381 0.21765-0.85272 0.23254-0.90486 0.01155-0.04042 0.030789-0.18684 0.051159-0.37569-0.17591-0.0887-0.47213-0.2366-0.82837-0.40928zm2.2226 0.001034c-0.3557 0.17265-0.6514 0.3203-0.82682 0.40876 0.02035 0.18856 0.039619 0.33479 0.051159 0.37517 0.01489 0.05213 0.1138 0.45104 0.23254 0.90486 0.14558-3.21e-4 0.32901-0.001451 0.54312-0.004651v-1.6841z"/>
		<path d="m13.229 1.2697c-0.28535 0-0.54897 0.031426-0.77566 0.13849-0.2267 0.10707-0.42646 0.28563-0.59531 0.63459-0.36618 0.75665-0.38071 0.93382-0.36742 1.4046 0.013838 0.48821 0.019881 1.2653 0.47852 1.9451 0.24951 0.36981 0.43543 0.63718 0.61702 0.79685 0.18159 0.15967 0.34743 0.22893 0.64286 0.22893 0.29543 1e-7 0.46075-0.069256 0.64234-0.22893 0.18159-0.15967 0.36958-0.42704 0.61908-0.79685 0.45864-0.67977 0.46473-1.4569 0.47852-1.9451 0.013342-0.47073-7.22e-4 -0.64791-0.3669-1.4046-0.16885-0.34896-0.36913-0.52752-0.59583-0.63459-0.2267-0.10707-0.49186-0.13849-0.77721-0.13849zm-0.68936 0.74207c0.053572-0.001594 0.12135 0.021303 0.16381 0.056844 0.04247 0.03554 0.062214 0.072121 0.074414 0.10129 0.02435 0.05833 0.026106 0.096884 0.031006 0.13488 0.00983 0.075984 0.01664 0.14847 0.03514 0.20877 0.0185 0.060301 0.04105 0.1004 0.08785 0.13488 0.046803 0.034475 0.13036 0.07028 0.29714 0.07028 0.16678 0 0.24982-0.035804 0.29662-0.07028 0.0468-0.034476 0.071417-0.074574 0.089917-0.13488 0.0185-0.060301 0.02534-0.13279 0.03514-0.20877 0.00491-0.037992 0.007123-0.076546 0.031523-0.13488 0.0122-0.029165 0.031437-0.065745 0.073897-0.10129 0.042466-0.035541 0.11076-0.058444 0.16433-0.056844 0.20368 0.006064 0.42591 0.085934 0.64027 0.17983l-0.1695 0.38654c-0.13026-0.057058-0.23904-0.077993-0.3421-0.1018-0.00704 0.052532-0.008675 0.092473-0.029455 0.1602-0.035938 0.11714-0.10763 0.2546-0.24185 0.35347-0.13421 0.098862-0.31874 0.15245-0.5488 0.15245-0.23006 0-0.41304-0.053584-0.54725-0.15245-0.13421-0.098862-0.20591-0.23633-0.24185-0.35347-0.0208-0.067642-0.022455-0.1077-0.029455-0.1602-0.10306 0.02381-0.21132 0.044746-0.34158 0.1018l-0.17002-0.38654c0.21436-0.093899 0.43711-0.17377 0.64079-0.17983zm-0.80564 1.0108c0.002816-1.796e-4 0.005698-6.76e-5 0.008268 0 0.00514 1.353e-4 0.009703 8.095e-4 0.013953 0.0010335 0.01699 9e-4 0.028774 0.0032644 0.039274 0.0056844 0.021 0.004831 0.038237 0.01075 0.056327 0.01757 0.036186 0.013633 0.07685 0.030636 0.12299 0.05271 0.09229 0.044148 0.20498 0.10508 0.32039 0.16795 0.11541 0.062864 0.23206 0.12851 0.32608 0.18345 0.094021 0.054943 0.15426 0.088771 0.20154 0.12506 0.089157 0.068426 0.11858 0.14476 0.154 0.23048 0.03542 0.085714 0.069707 0.16387 0.054777 0.27544-0.010706 0.080295-0.065713 0.12451-0.10335 0.14676-0.037635 0.022253-0.072954 0.032435-0.10955 0.040824-0.073191 0.016777-0.15471 0.02083-0.24598 0.01757-0.18254-0.0065164-0.39591-0.04518-0.57413-0.15813-0.23086-0.14631-0.34532-0.37968-0.39842-0.57619-0.02655-0.098257-0.038572-0.18821-0.039274-0.26355-4e-4 -0.037671 5.1e-5 -0.071734 0.007751-0.10749 0.00384-0.017877 0.009695-0.036706 0.021705-0.060461 0.01202-0.023755 0.031052-0.059916 0.085782-0.084233 8.7e-4 -3.88e-4 0.036213-0.011906 0.049093-0.013436 0.00322-3.825e-4 0.005969-8.538e-4 0.008785-0.0010335zm2.9895 0c0.00514-1.352e-4 0.010613 2.685e-4 0.017053 0.0010335 0.01288 0.001527 0.049771 0.013048 0.050643 0.013436 0.05473 0.024317 0.074289 0.060477 0.086299 0.084233 0.01203 0.023756 0.015321 0.042584 0.019121 0.060461 0.0077 0.035753 0.010169 0.069816 0.009818 0.10749-7e-4 0.075342-0.012197 0.16322-0.038757 0.26148-0.053113 0.19651-0.16757 0.43195-0.39842 0.57826-0.17822 0.11295-0.39159 0.15161-0.57413 0.15813-0.091266 0.003258-0.17486-7.93e-4 -0.24805-0.01757-0.036591-0.0083888-0.069847-0.018572-0.10749-0.040824-0.037636-0.022253-0.09317-0.066466-0.10387-0.14676-0.01494-0.11157 0.01729-0.18972 0.05271-0.27544 0.035418-0.085714 0.065364-0.16205 0.15451-0.23048 0.047282-0.036287 0.10907-0.071664 0.20309-0.12661 0.094022-0.054943 0.2086-0.11904 0.32401-0.1819 0.11541-0.062864 0.23017-0.1238 0.32246-0.16795 0.046146-0.022074 0.08681-0.039077 0.12299-0.05271 0.01809-0.006816 0.033767-0.01274 0.054777-0.01757 0.0105-0.00242 0.022284-0.0047884 0.039274-0.0056844 0.00425-2.24e-4 0.008813-8.982e-4 0.013953-0.0010335zm-2.8246 0.39532c0.0037 0.01893 0.002351 0.030581 0.007751 0.050643 0.039243 0.1452 0.1233 0.30517 0.26148 0.39274 0.10194 0.064608 0.27671 0.10457 0.41651 0.10955 0.046585 0.00167 0.075827-0.0039715 0.10904-0.0077515-0.0044-0.017905-0.002418-0.017209-0.009818-0.03514-0.020545-0.049721-0.061857-0.10045-0.058911-0.10232-0.005366-0.0034222-0.07679-0.049915-0.16382-0.10077-0.090787-0.053054-0.20383-0.1186-0.31626-0.17983-0.089774-0.0489-0.17134-0.089903-0.24598-0.12712zm2.6696 5.168e-4c-0.074701 0.037228-0.156 0.077591-0.24598 0.12661-0.11243 0.061239-0.22547 0.12678-0.31626 0.17983-0.087081 0.050886-0.16045 0.097402-0.16588 0.10077 0.003319 0.0018727-0.036299 0.052598-0.056844 0.10232-0.0074 0.017844-0.005518 0.017305-0.009818 0.03514 0.033205 0.00378 0.062964 0.0094115 0.10955 0.0077515 0.13976-0.0049893 0.31405-0.044946 0.416-0.10955 0.13818-0.087575 0.22224-0.24754 0.26148-0.39274 0.005349-0.019872 0.004179-0.031509 0.007751-0.050126z"/>
	</g>
</svg>
