<?xml version="1.0" encoding="UTF-8" standalone="no"?>
<!DOCTYPE svg PUBLIC "-//W3C//DTD SVG 1.1//EN" "http://www.w3.org/Graphics/SVG/1.1/DTD/svg11.dtd">
<svg version="1.1"
xmlns="http://www.w3.org/2000/svg"
xmlns:svg="http://www.w3.org/2000/svg"
xml:space="preserve"
x="0px" y="0px"
width="53.433px" height="72.173px"
viewBox="0 0 53.433 72.173"
enable-background="new 0 0 53.433 72.173">
<g>
	<path style="fill:#ffffff"
	d="M 16.712891 0 L 18.689453 2.609375 C 21.717453 6.603375 22.540859 10.505656 21.005859 13.597656 C 19.698859 16.227656 17.065625 17.603516 15.140625 17.603516 C 14.545625 17.603516 13.730516 17.469891 13.228516 16.837891 C 12.669516 16.134891 12.564641 14.879641 12.931641 13.306641 L 14.396484 7.0078125 L 10.505859 12.173828 C 1.2728626 24.430828 -1.8970625 35.929469 1.0859375 46.355469 C 6.0559375 63.716469 26.120656 71.624125 26.972656 71.953125 L 27.542969 72.173828 L 28.087891 71.894531 C 28.942891 71.456531 49.060031 60.979016 52.832031 43.541016 C 54.721031 34.814016 52.142969 25.939063 45.167969 17.164062 L 43.785156 15.427734 L 42.853516 17.441406 C 41.876516 19.554406 41.285375 20.399375 40.984375 20.734375 C 40.560375 20.153375 39.946547 18.755656 39.435547 17.597656 C 37.045547 12.174656 32.598984 2.0787812 19.958984 0.42578125 L 16.712891 0 z M 17.572266 22.617188 L 35.40625 22.617188 L 35.40625 26.214844 L 33.460938 26.214844 L 33.460938 29.8125 L 21.542969 29.8125 L 21.542969 26.214844 L 17.572266 26.214844 L 8.0292969 49.03125 L 8.0292969 45.253906 L 17.572266 22.617188 z M 19.6875 31.714844 L 26.552734 31.714844 L 26.552734 38.431641 L 17.199219 38.431641 L 19.6875 31.714844 z M 28.449219 31.714844 L 35.308594 31.714844 L 37.802734 38.431641 L 28.449219 38.431641 L 28.449219 31.714844 z M 16.498047 40.330078 L 26.552734 40.330078 L 26.552734 46.111328 L 14.351562 46.111328 L 16.498047 40.330078 z M 28.449219 40.330078 L 38.505859 40.330078 L 40.652344 46.111328 L 28.449219 46.111328 L 28.449219 40.330078 z M 14.351562 48.011719 L 26.552734 48.011719 L 26.552734 53.810547 L 16.503906 53.810547 L 14.351562 48.011719 z M 28.449219 48.011719 L 40.652344 48.011719 L 38.5 53.810547 L 28.449219 53.810547 L 28.449219 48.011719 z M 17.207031 55.708984 L 26.552734 55.708984 L 26.552734 62.408203 L 19.6875 62.408203 L 17.207031 55.708984 z M 28.449219 55.708984 L 37.796875 55.708984 L 35.308594 62.408203 L 28.449219 62.408203 L 28.449219 55.708984 z"/>
</g>
</svg>
