<?xml version="1.0" encoding="UTF-8"?>
<!-- Created with Inkscape (http://www.inkscape.org/) -->
<svg width="150" height="150" version="1.1" viewBox="0 0 39.688 39.688" xmlns="http://www.w3.org/2000/svg" xmlns:cc="http://creativecommons.org/ns#" xmlns:dc="http://purl.org/dc/elements/1.1/" xmlns:rdf="http://www.w3.org/1999/02/22-rdf-syntax-ns#">
 <metadata>
  <rdf:RDF>
   <cc:Work rdf:about="">
    <dc:format>image/svg+xml</dc:format>
    <dc:type rdf:resource="http://purl.org/dc/dcmitype/StillImage"/>
    <dc:title/>
    <cc:license rdf:resource="http://creativecommons.org/licenses/by-sa/4.0/"/>
    <dc:creator>
     <cc:Agent>
      <dc:title>Gireen</dc:title>
     </cc:Agent>
    </dc:creator>
   </cc:Work>
   <cc:License rdf:about="http://creativecommons.org/licenses/by-sa/4.0/">
    <cc:permits rdf:resource="http://creativecommons.org/ns#Reproduction"/>
    <cc:permits rdf:resource="http://creativecommons.org/ns#Distribution"/>
    <cc:requires rdf:resource="http://creativecommons.org/ns#Notice"/>
    <cc:requires rdf:resource="http://creativecommons.org/ns#Attribution"/>
    <cc:permits rdf:resource="http://creativecommons.org/ns#DerivativeWorks"/>
    <cc:requires rdf:resource="http://creativecommons.org/ns#ShareAlike"/>
   </cc:License>
  </rdf:RDF>
 </metadata>
 <g transform="translate(0 -257.31)">
  <g transform="matrix(.28222 0 0 .28222 -359.78 445.5)" fill="#fff" opacity=".96">
   <path d="m1332.1-584.89c-2.2012 5e-5 -4.2413 0.58627-5.8334 2.1785-0.9384 0.9383-1.1866 2.4788-2.1527 3.4452-1.6734 1.6733-4.7389 2.4426-6.4603 4.164-1.6425 1.6425-2.2435 4.8265-3.8772 6.4602-1.7406 1.7406-2.1779 12.456-3.129 13.408-0.7175 0.71756-3.4452 3.426-3.4452 4.5942 0 2.0585-4.1089 6.3719-1.5792 8.9016 0.1176 0.11758 3.5529-6.1921 5.598-5.1696 1.6063 0.80315 1.0899 1.3492 2.1527 2.412 2.2036 2.2036 3.9554 0.65349 5.9584 2.6565 2.9382 0.69181 5.0079 1.6326 10.451 1.6086 1.1784 1.1786 5.4536-0.76215 6.7469 0.53131 0.7923 0.79224 1.5071-0.57563 2.3698 1.5792 1.448 3.4895 5.2045 3.6952 5.2045 3.6952 0-1.1357-1.3671-3.3005-1.0184-3.9379 0.3105-0.56769 1.261-0.8337 2.0332-1.1876 0.7726 0.35423 1.7244 0.6196 2.0352 1.1876 0.3487 0.63736-1.0185 2.8022-1.0185 3.9379 0 0 3.7566-0.20568 5.2047-3.6952 0.8626-2.1548 1.5755-0.78695 2.3678-1.5792 1.2934-1.2935 5.5702 0.64731 6.7487-0.53131 5.4435 0.0239 7.5132-0.91681 10.451-1.6086 2.0031-2.003 3.7531-0.45296 5.9567-2.6565 1.0628-1.0629 0.5464-1.6089 2.1527-2.412 2.045-1.0225 5.4821 5.2872 5.5998 5.1696 2.5297-2.5297-1.5791-6.8431-1.5791-8.9016 0-1.1682-2.7278-3.8766-3.4453-4.5942-0.9512-0.95115-1.3884-11.667-3.129-13.408-1.6337-1.6337-2.2347-4.8177-3.8772-6.4602-1.7215-1.7214-4.787-2.4908-6.4602-4.164-0.9663-0.96637-1.2143-2.5069-2.1529-3.4452-1.592-1.5923-3.632-2.1785-5.8333-2.1785-4.4754-1.5e-4 -9.6022 2.4132-13.022 3.7338-3.4191-1.3207-8.5447-3.734-13.02-3.7338zm8.8813 27.574c0.674-9e-5 1.2208 0.56181 1.2208 1.2556s-0.5468 1.2576-1.2208 1.2575c-0.6739-1.4e-4 -1.2207-0.56382-1.2207-1.2575 0-0.69367 0.5468-1.2555 1.2207-1.2556zm8.2784 0c0.6739 1.2e-4 1.219 0.56197 1.219 1.2556 0 0.69366-0.5451 1.2573-1.219 1.2575-0.674 9e-5 -1.2207-0.56365-1.2207-1.2575s0.5467-1.2557 1.2207-1.2556zm-8.2067 6.6753c0.6345-5e-5 1.1492 0.52965 1.1491 1.184 0 0.65414-0.5147 1.1858-1.1491 1.1858-0.6343 7e-5 -1.149-0.53164-1.149-1.1858-2e-4 -0.6543 0.5145-1.184 1.149-1.184zm8.135 0c0.6346-5e-5 1.1473 0.52965 1.1471 1.184 0 0.65413-0.5127 1.1858-1.1471 1.1858-0.6343 7e-5 -1.149-0.53163-1.149-1.1858-2e-4 -0.6543 0.5146-1.184 1.149-1.184zm-7.453 6.4602c0.6937 0 1.2557 0.56372 1.2557 1.2575s-0.562 1.2556-1.2557 1.2556c-0.6938 0-1.2556-0.56189-1.2556-1.2556s0.5618-1.2575 1.2556-1.2575zm6.771 0c0.6939 0 1.2556 0.56372 1.2556 1.2575s-0.5617 1.2556-1.2556 1.2556c-0.6937 0-1.2557-0.56189-1.2557-1.2556s0.562-1.2575 1.2557-1.2575z" opacity="1"/>
   <path d="m1338.2-651.08c-0.9667 0-1.7463 0.77957-1.7463 1.7463v16.144h-16.149c-0.9667 0-1.7409 0.77958-1.7409 1.7463v14.608c0 0.9667 0.7742 1.7409 1.7409 1.7409h16.149v16.149c0 0.9667 0.7796 1.7463 1.7463 1.7463h14.603c0.9667 0 1.7463-0.77957 1.7463-1.7463v-16.149h16.149c0.9667 0 1.7409-0.77418 1.7409-1.7409v-14.608c0-0.96669-0.7742-1.7463-1.7409-1.7463h-16.149v-16.144c0-0.96673-0.7796-1.7463-1.7463-1.7463z" opacity="1"/>
  </g>
 </g>
</svg>
