<?xml version="1.0" encoding="UTF-8"?>
<svg width="100" height="100" version="1.1" viewBox="0 0 26.458 26.458" xmlns="http://www.w3.org/2000/svg">
	<g fill="#fff">
		<path d="m25.135 7.9375v-3.9688h-5.2917v3.9688c0 0.71438 2.1696 2.6458 2.6458 2.6458 0.47625 1e-6 2.6458-1.9315 2.6458-2.6458z"/>
		<path d="m11.842 5.1811c0.037988 0.071289 0.080126 0.1417 0.12712 0.21136 0.24951 0.36981 0.43543 0.63718 0.61702 0.79685 0.18159 0.15967 0.34742 0.22893 0.64286 0.22893 0.29543 1e-7 0.46075-0.069255 0.64234-0.22893 0.18159-0.15967 0.36958-0.42704 0.61908-0.79685 0.046963-0.069606 0.089157-0.14012 0.12712-0.21136h-2.7755zm-0.29559 0.33641c-0.031005 0.18721-0.077438 0.40654-0.14004 0.53175-0.062188 0.12439-0.16819 0.29231-0.26923 0.42426 0.033975 0.080251 0.072874 0.1727 0.12092 0.2744 0.10683 0.22612 0.25198 0.48554 0.4222 0.67593 0.15167 0.16964 0.37862 0.25731 0.65784 0.29869 0.27922 0.041383 0.59761 0.031523 0.8909 0.031523 0.29329 0 0.61324 0.0098613 0.89245-0.031523 0.27922-0.041383 0.50668-0.12905 0.65836-0.29869 0.17021-0.19037 0.31284-0.44982 0.41961-0.67593 0.047917-0.10148 0.088231-0.19375 0.12247-0.27389-0.10112-0.132-0.20699-0.30028-0.26923-0.42478-0.062479-0.12495-0.10904-0.34376-0.14004-0.53072-0.022498 0.036969-0.045561 0.07395-0.07028 0.11059-0.25032 0.37101-0.44731 0.66384-0.69143 0.8785-0.24412 0.21466-0.54687 0.33435-0.92191 0.33435-0.37504 0-0.67779-0.11969-0.92191-0.33435-0.24412-0.21466-0.43905-0.50749-0.68936-0.8785-0.024963-0.037002-0.048614-0.074281-0.071313-0.11162zm-0.78962 1.1539c-0.14012 0.012224-0.34572 0.072349-0.51625 0.20877-0.24804 0.19843-0.20774 0.24805-0.41858 0.29456-0.046442 0.010245-0.13797 0.023575-0.25838 0.048576 0.0010178 0.39849 0.0031006 1.1952 0.0031006 1.3234 0 0.027064-0.002675 0.049554-0.0067179 0.069246 0.0036059 0.0029847 0.0071897 0.0057938 0.010852 0.008785 0.043116 0.035214 0.089184 0.071389 0.12506 0.094051 0.022418 0.014165 0.044366 0.020991 0.048059 0.022738-0.00178 3.62e-5 -0.0069903-5.931e-4 -0.017053-0.0015503 0.095113 0.00906 0.16259 0.069813 0.1974 0.11731 0.034815 0.047494 0.052634 0.092825 0.068213 0.14056 0.031156 0.095476 0.048362 0.20491 0.060462 0.3359 0.02419 0.26198 0.020461 0.60454-0.011369 0.9865-0.03174 0.38086-0.076188 0.64275-0.13694 0.83406-0.053998 0.17002-0.11464 0.22274-0.22893 0.45579 2.836e-4 0.0067 8.258e-4 0.013554 0.0010335 0.020154 0.00615 0.19224-0.025328 0.35346-0.074931 0.44648-0.049605 0.093-0.13017 0.25425-0.12402 0.44028 0.00615 0.18604 0.44644 1.2899 0.45889 1.3953 0.012448 0.10542 0.080567 0.84956 0.093017 1.0294 0.01245 0.17983 0.031 0.5085-0.049609 0.74414-0.02069 0.06048-0.03576 0.10694-0.047542 0.14469 0.24072 0.0042 0.50314 0.008698 0.78858 0.011368 0.35072 0.0033 0.70138 0.0038 0.97255 0 0.12727-0.001877 0.23434-0.005286 0.31574-0.009301-0.5015-0.16933-0.83226-0.43963-1.0366-0.72916-0.33824-0.47918-0.3359-0.98857-0.3359-1.0878 0-0.099219-0.002353-0.61067 0.3359-1.0899 0.14875-0.21073 0.36365-0.41186 0.66301-0.57102-0.18501-0.027017-0.35123-0.066838-0.48524-0.13384-0.1254-0.062699-0.18226-0.15444-0.25011-0.26407-0.067852-0.10963-0.1339-0.24396-0.19895-0.39636-0.1301-0.3048-0.25565-0.68359-0.3576-1.0645-0.10195-0.38094-0.17895-0.7603-0.20516-1.0723-0.01307-0.15599-0.014789-0.29501 0.006201-0.41961 0.020989-0.12461 0.062901-0.26742 0.21497-0.34003 0.14394-0.068731 0.31895-0.099939 0.53485-0.12867 0.21591-0.028734 0.46837-0.047841 0.73639-0.060978 0.53603-0.026276 1.133-0.028939 1.5978-0.028939 0.46488 0 1.0634 0.002666 1.5994 0.028939 0.26802 0.013137 0.52048 0.032244 0.73639 0.060978 0.21591 0.028735 0.38935 0.059943 0.5333 0.12867 0.15207 0.072608 0.19562 0.21543 0.21652 0.34003 0.02103 0.12461 0.019311 0.26362 0.006201 0.41961-0.026213 0.31199-0.1032 0.69134-0.20516 1.0723-0.10195 0.38095-0.22957 0.75974-0.35967 1.0645-0.065049 0.1524-0.12904 0.28673-0.19689 0.39636-0.067852 0.10963-0.12472 0.20137-0.25011 0.26407-0.13413 0.067066-0.30054 0.10682-0.48576 0.13384 0.2997 0.15916 0.51477 0.3603 0.66353 0.57102 0.33823 0.47919 0.3359 0.99064 0.3359 1.0899 0 0.099219 0.002348 0.60861-0.3359 1.0878-0.20446 0.28965-0.53576 0.56036-1.0382 0.72967 0.081209 0.004054 0.18888 0.007015 0.31523 0.008785 0.27119 0.0038 0.62389 0.0033 0.97462 0 0.28526-0.0027 0.54747-0.007098 0.78806-0.011368-0.01178-0.03776-0.026852-0.08421-0.047542-0.14469-0.08061-0.23565-0.062059-0.56431-0.049609-0.74414 0.01241-0.17983 0.080567-0.92398 0.093017-1.0294 0.0124-0.1054 0.45269-1.2092 0.45889-1.3953 0.0062-0.18604-0.07442-0.34728-0.12402-0.44028-0.0496-0.09302-0.081131-0.25425-0.074931-0.44648 2.14e-4 -0.0066 7.82e-4 -0.013454 0.001033-0.020154-0.11427-0.23304-0.17603-0.28578-0.22996-0.45579-0.06068-0.19129-0.1052-0.45322-0.13694-0.83406-0.03187-0.38196-0.034029-0.72452-0.009819-0.9865 0.0121-0.13099 0.029302-0.24042 0.060462-0.3359 0.01558-0.047738 0.033392-0.093066 0.068212-0.14056 0.03482-0.047492 0.1023-0.10825 0.1974-0.11731-0.01006 9.575e-4 -0.01616 0.0010702-0.018086 0.0010335 0.003241-0.0017476 0.02513-0.0080602 0.047542-0.022221 0.03587-0.022661 0.084-0.058837 0.12712-0.094051 0.003558-0.0029063 0.00683-0.0058847 0.010335-0.008785-0.004043-0.019692-0.006718-0.042183-0.006718-0.069246 0-0.12817 0.002085-0.92494 0.003101-1.3234-0.12066-0.025066-0.21239-0.038317-0.2589-0.048576-0.21084-0.046507-0.17053-0.096122-0.41858-0.29456-0.17184-0.13747-0.37917-0.19719-0.51935-0.20877-0.032734 0.075634-0.070993 0.16139-0.11679 0.25838-0.11539 0.24436-0.272 0.53318-0.48834 0.77515-0.243 0.27179-0.5805 0.38649-0.91209 0.43563-0.33159 0.049146-0.66932 0.037207-0.95291 0.037207-0.28359 0-0.62184 0.011939-0.95343-0.037207-0.3316-0.049146-0.66908-0.16384-0.91209-0.43563-0.21632-0.24195-0.3729-0.53079-0.48834-0.77515-0.045809-0.096954-0.082504-0.18276-0.11472-0.25838-0.001241 1.016e-4 -0.002365-1.092e-4 -0.003617 0zm6.5608 0.66611c-0.001095 0.42823-0.002466 1.0304-0.002584 1.1762 0.01264 0.019837 0.038847 0.055094 0.073897 0.095601 0.070092 0.081017 0.17556 0.18714 0.29507 0.30076 0.23902 0.22723 0.53587 0.48478 0.74982 0.66818 0.1775 0.15215 0.48275 0.29591 0.73846 0.39067 0.016008 0.0059325 0.029398 0.0099243 0.044958 0.015503-0.047684-0.1553-0.27435-0.50461-0.28267-0.54622-0.0093-0.046508 0.08991-0.11472 0.12092-0.18604 0.03101-0.071314 0.02128-0.022332-0.52245-0.96945-0.30647-0.5339-0.80281-0.80351-1.2154-0.94516zm-8.1773 5.168e-4c-0.41239 0.14175-0.90816 0.41121-1.2144 0.94465-0.54372 0.94712-0.55345 0.89814-0.52245 0.96945 0.031018 0.071312 0.13022 0.13953 0.12092 0.18604-0.0083284 0.04165-0.2353 0.39167-0.28267 0.54674 0.015772-0.0056508 0.029242-0.010005 0.045475-0.01602 0.25576-0.09476 0.56097-0.23854 0.73846-0.39067 0.21396-0.18339 0.50926-0.44095 0.74827-0.66818 0.11951-0.11361 0.22446-0.21974 0.29456-0.30076 0.035046-0.040508 0.061771-0.075764 0.074414-0.095601 0.0021294-0.0033417 0.0010993-0.002581 0.0020671-0.0051676-1.839e-4 -0.15061-0.0030089-0.73746-0.0046509-1.1705zm4.0886 1.5312c-0.46352 0-1.0565 0.0018175-1.5782 0.027388-0.26085 0.012786-0.50411 0.032157-0.70125 0.058394-0.1725 0.022957-0.30793 0.055775-0.37672 0.081132-0.002826 0.0071787-0.006469 0.018348-0.009819 0.03824-0.0111 0.065328-0.013427 0.17692-0.002067 0.31213 0.022719 0.2704 0.093813 0.63658 0.1912 1.0005 0.097386 0.36388 0.22096 0.72872 0.34003 1.0077 0.059538 0.13948 0.11761 0.25818 0.16795 0.33951 0.044048 0.071165 0.092447 0.11023 0.0863 0.11007 0.10122 0.046369 0.50243 0.11358 0.89038 0.14004 0.39425 0.0269 0.79747 0.033073 0.99219 0.033073 0.19471 0 0.6-0.006183 0.99426-0.033073 0.38852-0.026497 0.78992-0.094183 0.89038-0.14056-0.002465-0.002378 0.043216-0.040783 0.085783-0.10955 0.050337-0.081334 0.10841-0.20003 0.16795-0.33951 0.11908-0.27897 0.24264-0.64381 0.34003-1.0077 0.097387-0.36388 0.16848-0.73005 0.1912-1.0005 0.01131-0.1352 0.009445-0.2468-0.00155-0.31213-0.003344-0.019837-0.006993-0.031052-0.009819-0.03824-0.069002-0.025378-0.20643-0.058124-0.3793-0.081132-0.19714-0.026237-0.43988-0.045609-0.70073-0.058394-0.52171-0.025574-1.1147-0.027388-1.5782-0.027388zm-3.9129 0.094051c-0.073668 0.079814-0.15505 0.16434-0.24908 0.25373-0.2499 0.23757-0.55009 0.49668-0.76584 0.68161-0.25223 0.2162-0.5886 0.36344-0.86713 0.46664-0.047626 0.017645-0.090702 0.031716-0.13436 0.046509-0.11593 0.29693-0.3376 0.79325-0.42013 1.0821-0.12402 0.43408-0.68213 1.6743-0.86816 1.972-0.015971 0.025554-0.03533 0.056871-0.05426 0.087333 0.13686 0.05945 0.3604 0.15853 0.56482 0.26717 0.14166 0.07529 0.28549 0.1542 0.40411 0.22841 0.059313 0.037125 0.11216 0.073484 0.15813 0.10955 0.045965 0.036073 0.088042 0.054415 0.13126 0.14624 0.044043 0.093587 0.021836 0.14012 0.013436 0.17983-0.008396 0.039708-0.018493 0.074064-0.033073 0.1111-0.02916 0.074085-0.071718 0.15744-0.12144 0.25218-0.099445 0.18949-0.23477 0.42173-0.37259 0.65216-0.13782 0.23043-0.27725 0.45879-0.38292 0.6351-0.052837 0.088154-0.097025 0.16262-0.12712 0.21652-0.0012921 0.0024-8.27e-4 0.004001-0.002067 0.006201 0.015397 0.02204 0.028025 0.042708 0.05271 0.073898 0.072884 0.092083 0.17795 0.21244 0.28732 0.33383 0.0023991 0.002663 0.0043145 0.005089 0.0067179 0.007752 0.29287-0.327 0.95176-1.0362 1.0439-1.1865 0.11782-0.19224 1.7813-4.038 1.8102-4.1238 0.028939-0.08577 0.099286-0.20926 0.13488-0.35037 0.035591-0.14111 0.063781-0.46408 0.094051-0.82734 0.030184-0.36218 0.032647-0.68729 0.011886-0.91209-0.010381-0.1124-0.028896-0.20103-0.042891-0.24391-0.00126-0.00388-0.0010735-0.0056412-0.0010335-0.0062012-8.64e-5 -3.703e-4 -5.572e-4 -9.942e-4 -0.0010336-0.0020671-0.036504-0.016085-0.08377-0.02508-0.11524-0.044958-0.054463-0.034404-0.10708-0.074001-0.15503-0.11265zm7.8264 0.0010335c-0.047648 0.038364-0.099958 0.077487-0.154 0.11162-0.03212 0.020286-0.07925 0.030783-0.11679 0.047026-0.0017 0.0039-1.34e-4 4.124e-4 -0.002067 0.0062012-0.014 0.042885-0.030961 0.13151-0.041341 0.24391-0.02073 0.2248-0.020342 0.54991 0.009818 0.91209 0.03027 0.36328 0.049352 0.6944 0.095602 0.82734s0.106 0.26461 0.13488 0.35037c0.02888 0.08577 1.6924 3.9315 1.8102 4.1238 0.092048 0.15018 0.75023 0.85873 1.0433 1.186 0.002148-0.002382 0.004055-0.004336 0.006201-0.006718 0.1094-0.12139 0.21596-0.24226 0.28887-0.33435 0.02469-0.03119 0.03731-0.051868 0.05271-0.073898-0.001289-0.0023-7.67e-4 -0.003901-0.002067-0.006201-0.030103-0.053897-0.074284-0.12837-0.12712-0.21652-0.10568-0.17631-0.24666-0.40467-0.38447-0.6351-0.13782-0.23042-0.27365-0.46267-0.3731-0.65216-0.04972-0.094744-0.090213-0.1781-0.11937-0.25218-0.01458-0.037038-0.02674-0.071394-0.03514-0.1111-0.00839-0.039709-0.02802-0.086252 0.01602-0.17983 0.043219-0.091835 0.084771-0.11018 0.13074-0.14624 0.045966-0.036075 0.09882-0.072424 0.15813-0.10955 0.11863-0.074252 0.26245-0.15312 0.40411-0.22841 0.20442-0.10864 0.42765-0.20772 0.56431-0.26717-0.018924-0.030462-0.038289-0.061779-0.05426-0.087333-0.18603-0.29766-0.74414-1.5379-0.86816-1.972-0.082549-0.28891-0.30473-0.78519-0.42065-1.0821-0.043292-0.014712-0.086037-0.028984-0.13332-0.046509-0.27847-0.1032-0.61492-0.25046-0.86713-0.46664-0.21576-0.18494-0.51543-0.44404-0.76533-0.68161-0.093711-0.089089-0.17658-0.17311-0.25063-0.2527zm-3.9135 3.4773c-1.1436 0-1.6534 0.36395-1.9105 0.72812-0.25706 0.36417-0.25786 0.74672-0.25786 0.84594 0 0.099218 8.1e-4 0.47971 0.25786 0.84388 0.25706 0.36417 0.7669 0.73019 1.9105 0.73019 1.1436 0 1.655-0.36602 1.912-0.73019 0.25706-0.36416 0.25787-0.74466 0.25787-0.84388 0-0.099218-8.04e-4 -0.48177-0.25787-0.84594-0.25706-0.36417-0.76845-0.72812-1.912-0.72812zm-7.4683 1.4351c-0.18219 0.30926-0.38308 0.68094-0.4563 0.94103-0.11162 0.39686-0.28525 0.84336-0.38447 0.99219-0.099223 0.14883-0.080623 0.16133-0.14883 0.16743-0.068211 0.0061-0.19844-0.01245-0.29146 0.11782-0.07959 0.11143-0.21765 0.55835-0.27544 0.81339 0.21767-0.02117 0.45401-0.029679 0.66353 0.10129 0.17581 0.10988 0.44998 0.34027 0.7245 0.57051 0.10762 0.090256 0.20917 0.1743 0.30541 0.25373 0.089768-0.083946 0.43586-0.39236 0.52658-0.55707-0.068792-0.074652-0.13602-0.14709-0.20929-0.22841-0.1122-0.12453-0.2205-0.24904-0.30437-0.35502-0.041935-0.052984-0.078334-0.099891-0.10749-0.14676-0.014577-0.02343-0.027023-0.046534-0.039274-0.075964-0.01225-0.029426-0.03147-0.062367-0.01912-0.14263 0.010986-0.07142 0.020973-0.074976 0.033073-0.099736s0.027772-0.051395 0.044958-0.082165c0.034372-0.061548 0.07904-0.14077 0.13281-0.23048 0.10754-0.17941 0.24669-0.4068 0.38292-0.63459 0.13623-0.22779 0.26937-0.45596 0.36122-0.63097 0.040396-0.076974 0.069846-0.13574 0.089917-0.18345-0.025332-0.01819-0.050528-0.035035-0.08785-0.058395-0.10336-0.064694-0.24252-0.14227-0.3793-0.21497-0.17408-0.092522-0.39367-0.21924-0.56172-0.31678zm14.938 0c-0.16787 0.097556-0.38726 0.22433-0.56121 0.31678-0.13678 0.072699-0.27543 0.15028-0.37879 0.21497-0.03732 0.02336-0.06252 0.040195-0.08785 0.058395 0.02008 0.047708 0.04747 0.10652 0.08785 0.18345 0.091846 0.175 0.22498 0.40318 0.36122 0.63097 0.13624 0.22779 0.27745 0.45517 0.38499 0.63459 0.053773 0.089707 0.098439 0.16893 0.13281 0.23048 0.01719 0.03077 0.030791 0.057405 0.042891 0.082165s0.02415 0.028316 0.03514 0.099736c0.01236 0.080278-0.007377 0.1132-0.019637 0.14263s-0.026244 0.052534-0.040824 0.075964c-0.029159 0.046864-0.06347 0.093771-0.10542 0.14676-0.083896 0.10598-0.19473 0.23101-0.30696 0.35553-0.073226 0.081251-0.13959 0.15329-0.20774 0.22789 0.090795 0.16486 0.43717 0.47395 0.52658 0.55759 0.096419-0.079573 0.198-0.16376 0.30592-0.25425 0.27459-0.23024 0.54923-0.46064 0.72502-0.57051 0.20991-0.13121 0.44489-0.12255 0.66249-0.10129-0.057784-0.25504-0.19584-0.70196-0.27544-0.81339-0.09302-0.13028-0.22324-0.11172-0.29146-0.11782-0.06822-0.0062-0.04962-0.0186-0.14883-0.16743-0.09922-0.14883-0.27286-0.59533-0.38447-0.99219-0.073149-0.26008-0.27409-0.63177-0.4563-0.94103zm-7.9794 2.3141c-0.02443 9.6e-5 -0.048687 2.42e-4 -0.072347 5.17e-4 -0.09463 0.0011-0.18267 0.003819-0.2496 0.009819s-0.11861 0.02247-0.10749 0.01757c-0.06615 0.02914-0.08252 0.023488-0.11731 0.027388-0.03478 4e-3 -0.07455 0.007319-0.12092 0.009819-0.09274 5e-3 -0.21118 0.007818-0.34985 0.009818-0.27734 0.0039-0.63186 0.0033-0.98444 0-0.35259-0.0033-0.70294-0.010103-0.97255-0.015503-0.044446-8.9e-4 -0.070353-0.001684-0.11007-0.002584-9.174e-4 0.0073-0.0019038 0.014191-0.0025838 0.022221-0.014371 0.16837-0.028534 0.44432-0.023254 0.59325 0.57028 0.0013 2.6581 0.01329 3.6225 0.01602 0.94606 0.0027 3.0019-2.82e-4 3.6194 0 0.0069-0.14457-0.008295-0.43507-0.023255-0.60927-6.88e-4 -8e-3 -0.001684-0.014901-0.002584-0.022221-0.03954 8.87e-4 -0.06531 0.001684-0.10955 0.002584-0.2696 0.0054-0.61996 0.012203-0.97255 0.015503-0.35259 0.0033-0.7071 0.0039-0.98444 0-0.13867-2e-3 -0.25659-0.004818-0.34933-0.009818-0.04637-0.0025-0.08665-0.005919-0.12144-0.009819-0.03479-0.0039-0.05117 0.001702-0.11731-0.027388 0.01112 0.0049-0.04004-0.01157-0.10697-0.01757-0.06693-0.0061-0.15548-0.008719-0.25011-0.009819-0.18926-0.0022-0.40806 0.004134-0.58394 0.004134-0.13191 0-0.28696-0.003751-0.43615-0.004651-0.02487-1.42e-4 -0.049467-9.6e-5 -0.073897 0zm-3.0339 1.0966c-0.0884 0.27279-0.25455 0.93096-0.2899 1.2563-0.043843 0.40341-0.30704 1.7628-0.35088 2.1224-0.043843 0.35954-0.26717 3.4163-0.24236 3.6644 0.024804 0.24805-0.13409 0.83903 0.26975 0.76688 0.40384-0.07215 3.0324 0.13748 3.1306 0.20877 0.04675 0.03397 0.19791-0.46874 0.34726-1.0175-0.27255-0.0015-0.63317-0.005704-1.0237-0.017054-0.36669-0.0107-0.739-0.027177-1.0392-0.054777-0.1501-0.0138-0.28225-0.03146-0.39067-0.05271-0.05421-0.01063-0.10213-0.0207-0.14831-0.03669s-0.091856-0.02956-0.14831-0.0863c-0.099556-0.10005-0.10015-0.171-0.12712-0.27337-0.026973-0.10236-0.050523-0.22746-0.072347-0.36897-0.043647-0.28301-0.07932-0.63475-0.10129-0.98444-0.021968-0.34967-0.029871-0.69474-0.01757-0.96893 0.00615-0.1371 0.016698-0.25492 0.037207-0.35553 0.010256-0.05031 0.02098-0.09605 0.042892-0.14418 0.021911-0.04813 0.051775-0.11327 0.14418-0.15451 0.093199-0.04162 0.14165-0.02477 0.19172-0.01757 0.050064 0.0072 0.099656 0.020667 0.15606 0.037207 0.11281 0.03307 0.2474 0.082 0.40411 0.14469 0.31342 0.12537 0.70595 0.30173 1.1017 0.48628 0.58696 0.27369 1.0922 0.52272 1.4304 0.69143 0.02839-0.32659 0.049507-0.64697 0.041857-0.74828-0.00519-0.06873-0.027087-0.13791-0.041857-0.2005-0.08527-0.13378-0.3428-0.53879-0.45165-0.71934-0.12505-0.20739-0.37337-0.6368-0.55087-1.1482-0.09292-0.26776-0.18225-0.6672-0.25218-1.0315-0.03497-0.18213-0.064703-0.35408-0.085783-0.49248s-0.033073-0.2264-0.033073-0.30851c0-0.07818 0.001184-0.11042 0.002584-0.1881-0.79806-0.0037-1.5923-0.007685-1.9332-0.008785zm2.3554 0.010852c-0.0013 0.06303-0.0031 0.12873-0.0031 0.18604 0 7.89e-4 0.011472 0.11281 0.031522 0.24443s0.047649 0.29933 0.081649 0.47646c0.06801 0.35424 0.16017 0.75208 0.23668 0.97255 0.16138 0.465 0.39481 0.87155 0.51366 1.0687 0.07261 0.12043 0.21552 0.34629 0.32918 0.52555 0.12219-0.19264 0.26238-0.41477 0.32918-0.52555 0.11885-0.19712 0.3523-0.60366 0.51366-1.0687 0.07651-0.22047 0.16815-0.61831 0.23616-0.97255 0.034-0.17713 0.062125-0.34484 0.082165-0.47646 0.0201-0.13162 0.028939-0.24364 0.028939-0.24443 0-0.07235-0.001284-0.10496-0.002584-0.18035-0.45074 0-0.88095-1.99e-4 -1.1886-0.001034-0.30984-8.84e-4 -0.73928-0.002551-1.1886-0.004651zm4.7382 0.004651c-0.37371-9e-6 -1.1564 8.09e-4 -1.9373 0.001034 0.0013 0.07562 0.002584 0.10539 0.002584 0.18035 0 0.08211-0.01405 0.17011-0.03514 0.30851s-0.050823 0.31035-0.085783 0.49248c-0.06993 0.36426-0.15719 0.7637-0.25011 1.0315-0.1775 0.51145-0.42531 0.94086-0.55035 1.1482-0.10944 0.18152-0.37011 0.59075-0.45372 0.72192-0.01469 0.06189-0.035714 0.13013-0.040824 0.19792-0.0077 0.1013 0.013467 0.42168 0.041857 0.74828 0.33763-0.1687 0.84171-0.41769 1.4289-0.69143 0.39581-0.18454 0.78832-0.3609 1.1017-0.48628 0.15672-0.06269 0.29336-0.11162 0.40618-0.14469 0.05641-0.01654 0.10599-0.030007 0.15606-0.037207s0.09647-0.02405 0.18965 0.01757c0.0924 0.04124 0.1228 0.10638 0.14469 0.15451 0.02191 0.04813 0.034699 0.09387 0.044959 0.14418 0.02051 0.10062 0.03049 0.21844 0.03669 0.35553 0.0123 0.2742 0.0044 0.61926-0.01757 0.96893-0.02196 0.34968-0.05764 0.70143-0.10129 0.98444-0.02183 0.14151-0.045377 0.26661-0.072347 0.36897s-0.02911 0.17332-0.12867 0.27337c-0.05645 0.05675-0.10058 0.069793-0.14676 0.085783-0.04619 0.01599-0.09409 0.026577-0.14831 0.037207-0.10843 0.02125-0.24056 0.03891-0.39067 0.05271-0.30023 0.0276-0.67458 0.044077-1.0413 0.054777-0.38932 0.01135-0.74979 0.015564-1.0222 0.017054 0.14935 0.54877 0.30051 1.0515 0.34726 1.0175 0.09811-0.0713 2.7267-0.28092 3.1306-0.20877 0.40383 0.07215 0.24494-0.51883 0.26975-0.76688 0.0248-0.24803-0.19851-3.3048-0.24236-3.6644-0.04385-0.35956-0.30703-1.7189-0.35088-2.1224-0.03474-0.31962-0.19578-0.9597-0.28525-1.2408zm-12.47 0.026872c-0.039593 1.27e-4 -0.08 0.002161-0.11989 0.005168 0.019382 0.096895 0.0553 0.17415 0.1049 0.19895 0.099217 0.04961-0.45877 0.90537-0.57671 1.1224-0.11782 0.21704-0.39688 0.58911-0.41548 0.71934s-0.049661 1.1348-0.055811 1.3953c-0.00621 0.26043 0.037213 0.43408 0.086816 0.46509 0.049615 0.03101 0.074412 0.23564 0.16123 0.26045 0.086815 0.02475 0.19844 0.043362 0.24805 0.012402 0.049648-0.03101 0.024852-0.26667 0.012402-0.34726-0.012405-0.08061 0.02481-0.11159 0.043408-0.074415 0.018601 0.03722 0.037218 0.13643 0.17983 0.15503 0.14268 0.0186 0.14883-0.012444 0.14883-0.074414 0-0.06201-0.21079-0.78135-0.22324-0.86196-0.012405-0.08061 0.26666-0.72554 0.5209-0.88057 0.25424-0.155 0.28521-0.16123 0.29766-0.13022 0.012405 0.03101-0.012401 0.17363 0.093018 0.21704 0.10542 0.04341 0.27286 0.080607 0.33486 0.037207 0.062012-0.04341 0.29766-0.99218 0.31626-1.1224 0.017452-0.12209 0.0023857-0.29346 0.082166-0.3297-0.075046-0.063293-0.14571-0.12296-0.22893-0.19275-0.2731-0.22904-0.57111-0.47141-0.67593-0.53692-0.028608-0.01785-0.17393-0.038238-0.33435-0.037724zm17.841 0c-0.1604-5.27e-4 -0.30572 0.019829-0.33435 0.037724-0.10484 0.065525-0.40276 0.30788-0.67593 0.53692-0.083191 0.069754-0.15364 0.12948-0.22841 0.19275 0.08028 0.035813 0.065213 0.20738 0.082682 0.3297 0.0186 0.13022 0.25425 1.079 0.31626 1.1224 0.06201 0.0434 0.22946 0.006203 0.33486-0.037207 0.10546-0.04341 0.080568-0.18603 0.093018-0.21704 0.0124-0.031 0.04343-0.02479 0.29766 0.13022 0.25425 0.15503 0.53335 0.79996 0.5209 0.88057-0.0124 0.08062-0.22324 0.79995-0.22324 0.86196 0 0.06197 0.0062 0.093014 0.14883 0.074414 0.14262-0.0186 0.16123-0.11782 0.17983-0.15503 0.0186-0.03719 0.055858-0.006205 0.043408 0.074415-0.01236 0.0806-0.037198 0.31626 0.012402 0.34726 0.04961 0.03096 0.16123 0.012408 0.24805-0.012402 0.08682-0.0248 0.11163-0.22944 0.16123-0.26045 0.04962-0.03101 0.092916-0.20466 0.086816-0.46509-0.0062-0.26045-0.037211-1.265-0.055811-1.3953-0.0186-0.13022-0.29765-0.5023-0.41548-0.71934-0.11782-0.21704-0.67594-1.0728-0.57671-1.1224 0.049495-0.024762 0.084977-0.10229 0.10439-0.19895-0.04013-0.003048-0.080559-0.005037-0.12041-0.005168zm-12.221 3.885c-0.010408 0.06312-0.020532 0.14121-0.025322 0.24805-0.01117 0.24898-0.00371 0.5872 0.01757 0.92604 0.021285 0.33885 0.056847 0.68049 0.097669 0.94516 0.02041 0.13234 0.041748 0.24514 0.062528 0.32401 0.0118 0.04488 0.021871 0.066767 0.022221 0.072347 0.01791 0.0057 0.040968 0.012837 0.075448 0.019637 0.08383 0.01643 0.20586 0.031909 0.34778 0.044959 0.28384 0.02609 0.65141 0.04215 1.0134 0.05271 0.47652 0.01388 0.86 0.016473 1.1229 0.017053 0.11875-0.45381 0.21765-0.85272 0.23254-0.90486 0.01155-0.04042 0.030789-0.18684 0.051159-0.37569-0.28763-0.14502-0.89475-0.44724-1.5648-0.75964-0.39201-0.18278-0.78046-0.35712-1.08-0.47697-0.1498-0.05993-0.27738-0.10449-0.3669-0.13074-0.00273-8e-4 -0.0035411-0.001267-0.0062011-0.002067zm6.6037 0c-0.0027 8e-4 -0.002984 0.001267-0.005684 0.002067-0.08954 0.02625-0.21761 0.07081-0.36742 0.13074-0.2996 0.11986-0.68801 0.29369-1.08 0.47646-0.67053 0.31262-1.278 0.61582-1.5653 0.76068 0.02035 0.18857 0.039619 0.33478 0.051159 0.37517 0.01489 0.05213 0.1138 0.45104 0.23254 0.90486 0.26366-5.81e-4 0.64743-0.003203 1.1234-0.017053 0.36199-0.01055 0.72951-0.02661 1.0134-0.05271 0.14193-0.01305 0.26394-0.028529 0.34778-0.044959 0.03296-0.0065 0.055681-0.014027 0.073381-0.019637 7.91e-4 -0.0062 0.010611-0.028287 0.022221-0.072347 0.02078-0.07887 0.044185-0.19168 0.064595-0.32401 0.04082-0.26467 0.076389-0.60632 0.097669-0.94516s0.02874-0.67706 0.01757-0.92604c-0.0048-0.10684-0.014912-0.18493-0.025322-0.24805z"/>
		<path d="m13.229 1.2697c-0.28535 0-0.54897 0.031426-0.77566 0.13849-0.2267 0.10707-0.42646 0.28563-0.59531 0.63459-0.36618 0.75665-0.38071 0.93382-0.36742 1.4046 0.013838 0.48821 0.019881 1.2653 0.47852 1.9451 0.24951 0.36981 0.43543 0.63718 0.61702 0.79685 0.18159 0.15967 0.34743 0.22893 0.64286 0.22893 0.29543 1e-7 0.46075-0.069256 0.64234-0.22893 0.18159-0.15967 0.36958-0.42704 0.61908-0.79685 0.45864-0.67977 0.46473-1.4569 0.47852-1.9451 0.013342-0.47073-7.22e-4 -0.64791-0.3669-1.4046-0.16885-0.34896-0.36913-0.52752-0.59583-0.63459-0.2267-0.10707-0.49186-0.13849-0.77721-0.13849zm-0.68936 0.74207c0.053572-0.001594 0.12135 0.021303 0.16381 0.056844 0.04247 0.03554 0.062214 0.072121 0.074414 0.10129 0.02435 0.05833 0.026106 0.096884 0.031006 0.13488 0.00983 0.075984 0.01664 0.14847 0.03514 0.20877 0.0185 0.060301 0.04105 0.1004 0.08785 0.13488 0.046803 0.034475 0.13036 0.07028 0.29714 0.07028 0.16678 0 0.24982-0.035804 0.29662-0.07028 0.0468-0.034476 0.071417-0.074574 0.089917-0.13488 0.0185-0.060301 0.02534-0.13279 0.03514-0.20877 0.00491-0.037992 0.007123-0.076546 0.031523-0.13488 0.0122-0.029165 0.031437-0.065745 0.073897-0.10129 0.042466-0.035541 0.11076-0.058444 0.16433-0.056844 0.20368 0.006064 0.42591 0.085934 0.64027 0.17983l-0.1695 0.38654c-0.13026-0.057058-0.23904-0.077993-0.3421-0.1018-0.00704 0.052532-0.008675 0.092473-0.029455 0.1602-0.035938 0.11714-0.10763 0.2546-0.24185 0.35347-0.13421 0.098862-0.31874 0.15245-0.5488 0.15245-0.23006 0-0.41304-0.053584-0.54725-0.15245-0.13421-0.098862-0.20591-0.23633-0.24185-0.35347-0.0208-0.067642-0.022455-0.1077-0.029455-0.1602-0.10306 0.02381-0.21132 0.044746-0.34158 0.1018l-0.17002-0.38654c0.21436-0.093899 0.43711-0.17377 0.64079-0.17983zm-0.80977 1.0129c0.002816-5.05e-5 0.005698-6.77e-5 0.008268 0 0.00514 1.352e-4 0.009703 2.927e-4 0.013953 5.167e-4 0.01699 9e-4 0.028774 0.0037812 0.039274 0.0062012 0.02101 0.004832 0.038754 0.01075 0.056844 0.01757 0.036187 0.013632 0.07684 0.030636 0.12299 0.05271 0.09229 0.044148 0.20498 0.10508 0.32039 0.16795 0.11541 0.062864 0.23206 0.12851 0.32608 0.18345 0.094021 0.054943 0.15581 0.088771 0.20309 0.12506 0.089153 0.068426 0.11703 0.14476 0.15245 0.23048 0.03542 0.085714 0.06919 0.16387 0.05426 0.27544-0.010706 0.080295-0.065713 0.12399-0.10335 0.14624-0.037635 0.022253-0.072954 0.032951-0.10955 0.041341-0.073191 0.016777-0.15471 0.02083-0.24598 0.01757-0.18253-0.0065164-0.39591-0.04518-0.57412-0.15813-0.23086-0.14631-0.34532-0.37968-0.39842-0.57619-0.02655-0.098257-0.038572-0.18821-0.039274-0.26355-4e-4 -0.037671 5.68e-4 -0.071734 0.008268-0.10749 0.00384-0.017877 0.009177-0.037223 0.021187-0.060978 0.01202-0.023755 0.031063-0.059399 0.085783-0.083716 8.7e-4 -3.88e-4 0.036213-0.012423 0.049093-0.013953 0.00322-3.825e-4 0.005969-4.663e-4 0.008785-5.167e-4zm2.9905 0c0.005629-1.353e-4 0.011647-2.483e-4 0.018087 5.167e-4 0.01288 0.001527 0.04822 0.013565 0.049092 0.013953 0.05473 0.024317 0.073773 0.05996 0.085783 0.083716 0.01198 0.023755 0.017904 0.043101 0.021704 0.060978 0.007648 0.035753 0.008103 0.069816 0.007752 0.10749-7e-4 0.075342-0.012714 0.16529-0.039274 0.26355-0.053112 0.19651-0.16757 0.42988-0.39842 0.57619-0.17822 0.11295-0.39159 0.15161-0.57413 0.15813-0.091269 0.003258-0.17279-7.93e-4 -0.24598-0.01757-0.036595-0.008389-0.071915-0.019088-0.10956-0.041341-0.037633-0.022253-0.092652-0.065949-0.10335-0.14624-0.01494-0.11156 0.01729-0.18972 0.05271-0.27544 0.035417-0.085714 0.064845-0.16205 0.154-0.23048 0.047282-0.036287 0.10959-0.070114 0.20361-0.12506 0.09402-0.054943 0.2086-0.12059 0.32401-0.18345 0.11541-0.062864 0.23017-0.1238 0.32246-0.16795 0.046147-0.022074 0.08681-0.039077 0.12299-0.05271 0.01809-0.006816 0.035317-0.01274 0.056327-0.01757 0.0105-0.00242 0.020217-0.0053051 0.037207-0.0062012 0.004245-2.24e-4 0.009357-3.815e-4 0.014986-5.167e-4zm-2.8257 0.39532c0.0037 0.01893 0.002868 0.03058 0.008268 0.050643 0.039242 0.1452 0.1233 0.30517 0.26148 0.39274 0.10194 0.064608 0.27623 0.10456 0.416 0.10955 0.046585 0.00167 0.076344-0.0044882 0.10955-0.0082682-0.0044-0.017905-0.002418-0.017209-0.009818-0.03514-0.020554-0.049721-0.060682-0.09993-0.057361-0.1018-0.005922-0.003682-0.078599-0.050583-0.16536-0.10129-0.090789-0.053054-0.20383-0.11808-0.31626-0.17932-0.090226-0.049146-0.17163-0.089814-0.2465-0.12712zm2.6701 0c-0.074867 0.03731-0.15575 0.077978-0.24598 0.12712-0.11243 0.061238-0.22547 0.12626-0.31626 0.17932-0.087097 0.050896-0.16048 0.097936-0.16588 0.10129 0.003325 0.0018728-0.036299 0.052082-0.056844 0.1018-0.0074 0.017844-0.005519 0.017304-0.009819 0.03514 0.033205 0.00378 0.062448 0.0099282 0.10904 0.0082682 0.13976-0.0049894 0.31405-0.044946 0.416-0.10955 0.13818-0.087575 0.22276-0.24754 0.262-0.39274 0.0054-0.020062 0.004051-0.031713 0.007751-0.050643z"/>
	</g>
</svg>
