<?xml version="1.0" encoding="UTF-8"?>
<svg width="150" height="150" version="1.1" viewBox="0 0 39.688 39.688" xmlns="http://www.w3.org/2000/svg" xmlns:cc="http://creativecommons.org/ns#" xmlns:dc="http://purl.org/dc/elements/1.1/" xmlns:rdf="http://www.w3.org/1999/02/22-rdf-syntax-ns#">
 <metadata>
  <rdf:RDF>
   <cc:Work rdf:about="">
    <dc:format>image/svg+xml</dc:format>
    <dc:type rdf:resource="http://purl.org/dc/dcmitype/StillImage"/>
    <dc:title/>
    <cc:license rdf:resource="http://creativecommons.org/licenses/by-sa/4.0/"/>
    <dc:creator>
     <cc:Agent>
      <dc:title>Gireen</dc:title>
     </cc:Agent>
    </dc:creator>
   </cc:Work>
   <cc:License rdf:about="http://creativecommons.org/licenses/by-sa/4.0/">
    <cc:permits rdf:resource="http://creativecommons.org/ns#Reproduction"/>
    <cc:permits rdf:resource="http://creativecommons.org/ns#Distribution"/>
    <cc:requires rdf:resource="http://creativecommons.org/ns#Notice"/>
    <cc:requires rdf:resource="http://creativecommons.org/ns#Attribution"/>
    <cc:permits rdf:resource="http://creativecommons.org/ns#DerivativeWorks"/>
    <cc:requires rdf:resource="http://creativecommons.org/ns#ShareAlike"/>
   </cc:License>
  </rdf:RDF>
 </metadata>
 <path d="m19.354 6.0972c-0.41363 0.00364-0.75761 0.067669-0.90953 0.21958-0.68595 0.68595 0.22556 2.6875-0.29126 3.2043-0.57348 0.57348-2.6526-0.84301-3.35-0.14563-0.30178 0.30176-0.28344 0.86595-0.58268 1.1652-0.97986 0.97987 1.1896 2.9859 0.58268 3.5928-0.46096 0.46096-1.9831-0.52663-2.1848-0.7283-0.22406-0.22406-0.53008 0.63511-0.72828 0.4369-1.829-1.8291-2.3284 0.04649-3.1559 0.87393-1.4869 1.4869 1.9128 3.1265 2.1363 3.35 0.5728 0.57281-0.40212 2.2894-0.09917 3.0734 0.20538 0.5315 0.2448 1.352 0.2448 1.6361 0 0.24238-0.4874 1.5554-0.67971 1.7477-0.33012 0.33011 0.38614 1.2647 0.19423 1.4566-0.53157 0.53156-0.54935 1.666-1.0682 2.1848-0.51475 0.51475 0.458 1.4632 0.43706 1.5051-0.21661 0.43319-1.3281 1.6022-0.0486 1.6022 0.16372 0 0.63487-0.10092 0.77674-0.24281 0.30494-0.30493 0.28096-1.0091 0.58268-1.3108 0.2023-0.20229 0.13756-0.67164 0.33986-0.87393 0.18858-0.18859 0.6382-0.2013 0.82534-0.38845 0.33224-0.33223 2.4805 0.6884 2.6218 0.97111 0.31307 0.62614 0.06514 1.2303 0.48551 1.6507 0.49754 0.49754 3.3997-0.19422 4.1267-0.19422 0.20662 0 1.0202 0.24221 1.1168 0.14563 0.12934-0.12936 1.4392-2.1049 2.3304-1.2138 0.2557 0.2557 0.63975 0.2999 0.87394 0.53408 0.59507 0.59508-0.87301 1.8468-0.48548 2.6218 0.5833 1.1666 3.5252 0.42289 4.1753-0.09718l-0.19423-0.19422c-0.28079-0.30131-1.8401-2.2866-1.4079-2.7188 0.17456-0.17456 1.0639 0.48135 1.1166 0.53408 0.64915 0.64915 2.7815-0.59677 3.0101-0.82534 0.46401-0.464 1.5362-5.0182 1.0682-5.4863-0.35838-0.35835-0.78908-0.69201-1.1166-1.0196-0.80694-0.80694 1.7288-2.8349 0.43692-4.1267-1.3009-1.3009-3.5344 0.54388-3.5928 0.48549-1.4102-1.4102 4.3381-4.838 3.0587-6.1174-2.3148-2.3148-3.3275-0.36248-4.9522 1.2622-0.13567 0.13566-1.7612-0.38832-2.0876-0.38832-0.26529 0-0.24009-0.57738-0.33986-0.77689-0.1804-0.36082-0.56603-1.1972-0.82534-1.4565-0.32479-0.32479 1.5042-3.4974 1.1652-4.1754-0.42574-0.85146-0.58243-0.6309-1.1652-1.2137-0.2831-0.2831-1.5306-0.5674-2.4406-0.55943zm-7.8796 12.711c0.17193 0.01267 0.76805 0.24777 0.88125 0.36096 0.13039 0.13041-0.1909 0.52998-0.03426 0.68662 0.33023 0.33022 0.76082 0.6408 1.0642 0.94416 0.19764 0.19767-0.29764 1.1215-0.36043 1.1843-0.0913 0.09127-1.0504 0.56322-1.1501 0.46358-0.30446-0.30445-0.13742-1.658-0.13742-2.1972 0-0.4471-0.45932-0.8485-0.24029-1.3732l-0.05151-0.06864c0.0073-0.0011 0.01722-0.0014 0.02853-5.55e-4zm3.2329 2.6955c0.09395 0.1566 0.05983 0.54042 0.17165 0.65223 0.73051 0.73052 0.0366 1.1307-0.41194 1.5793-0.16538 0.16538-0.74465 0.47406-0.92691 0.2918-0.3282-0.3282 0.98071-2.2409 1.1672-2.5233zm0.56646 0.06863c0.25866 0.16166 0.50386 0.33219 0.6695 0.49784 0.11902 0.11901-0.20182 0.50206-0.20605 0.49784-0.18836-0.18837-0.45529-0.51172-0.3948-0.92703z" fill="#fff"/>
</svg>
