<?xml version="1.0" encoding="utf-8"?>
<!DOCTYPE svg PUBLIC "-//W3C//DTD SVG 1.1//EN" "http://www.w3.org/Graphics/SVG/1.1/DTD/svg11.dtd">
<svg version="1.1"
xmlns="http://www.w3.org/2000/svg"
xml:space="preserve"
x="0px" y="0px"
width="53.433px" height="72.173px"
viewBox="0 0 53.433 72.173"
enable-background="new 0 0 53.433 72.173">
<g>
	<path fill="#FFFFFF"
	d="M45.167,17.165l-1.382-1.738l-0.932,2.014c-0.977,2.113-1.567,2.958-1.868,3.293
	c-0.424-0.581-1.038-1.979-1.549-3.137c-2.39-5.423-6.837-15.519-19.477-17.172L16.713,0l1.977,2.609 c3.028,3.994,3.851,7.896,2.316,10.988c-1.307,2.63-3.941,4.007-5.866,4.007c-0.595,0-1.409-0.134-1.911-0.766 c-0.559-0.703-0.665-1.958-0.298-3.531l1.466-6.299l-3.892,5.165C1.272,24.43-1.897,35.93,1.086,46.356 c4.97,17.361,25.035,25.268,25.887,25.597l0.57,0.22l0.545-0.278c0.855-0.438,20.973-10.916,24.745-28.354 C54.722,34.814,52.142,25.94,45.167,17.165z M50.161,42.949c-3.16,14.642-19.559,24.421-22.774,26.213 c-3.262-1.404-19.518-9.056-23.669-23.559c-2.47-8.63-0.246-18.188,6.608-28.453c0.208,0.584,0.483,1.041,0.761,1.391 c0.922,1.161,2.362,1.8,4.054,1.8c3.28,0,6.701-2.271,8.316-5.527c0.998-2.004,2.029-5.878-0.752-11.033 c8.766,2.53,12.131,10.166,14.225,14.92c1.311,2.976,2.176,4.939,4.016,4.939c1.32,0,2.328-1.089,3.394-3.038 C49.782,28.121,51.742,35.632,50.161,42.949z"/>
	<polygon fill="#FFFFFF" points="28.45,31.714 28.45,38.431 37.802,38.431 35.309,31.714"/>
	<polygon fill="#FFFFFF" points="28.45,40.331 28.45,46.112 40.653,46.112 38.505,40.331"/>
	<polygon fill="#FFFFFF" points="19.688,62.409 26.553,62.409 26.553,55.709 17.208,55.709"/>
	<polygon fill="#FFFFFF" points="28.45,62.409 35.309,62.409 37.796,55.709 28.45,55.709"/>
	<polygon fill="#FFFFFF" points="14.352,46.112 26.553,46.112 26.553,40.331 16.498,40.331"/>
	<polygon fill="#FFFFFF" points="17.199,38.431 26.553,38.431 26.553,31.714 19.688,31.714"/>
	<polygon fill="#FFFFFF" points="28.45,53.81 38.5,53.81 40.653,48.011 28.45,48.011"/>
	<polygon fill="#FFFFFF" points="16.504,53.81 26.553,53.81 26.553,48.011 14.352,48.011"/>
	<polygon fill="#FFFFFF" points="33.46,26.215 35.406,26.215 35.406,22.617 17.572,22.617 8.03,45.253 8.03,49.031 17.572,26.215 21.543,26.215 21.543,29.813 33.46,29.813"/>
</g>
</svg>
