/* XPM */
static char * unvanquished_xpm[] = {
"32 32 741 2",
"  	c None",
". 	c #424242",
"+ 	c #565656",
"@ 	c #626262",
"# 	c #676767",
"$ 	c #707070",
"% 	c #767676",
"& 	c #7A7B7B",
"* 	c #7E7F7E",
"= 	c #7E7E7E",
"- 	c #7F7E7F",
"; 	c #818080",
"> 	c #7D7D7D",
", 	c #777777",
"' 	c #6E6E6E",
") 	c #434243",
"! 	c #535353",
"~ 	c #4C4B4C",
"{ 	c #484848",
"] 	c #474747",
"^ 	c #444444",
"/ 	c #414141",
"( 	c #404040",
"_ 	c #3B3B3B",
": 	c #343434",
"< 	c #2A2A29",
"[ 	c #505050",
"} 	c #989993",
"| 	c #9C9F8F",
"1 	c #919A88",
"2 	c #929C8C",
"3 	c #94A19A",
"4 	c #9FB0AC",
"5 	c #A8B2AD",
"6 	c #B5BAB1",
"7 	c #BABDB6",
"8 	c #B0B7B4",
"9 	c #A9B4B4",
"0 	c #A4B0B2",
"a 	c #95A6A8",
"b 	c #789B9F",
"c 	c #6B6C6C",
"d 	c #576869",
"e 	c #628487",
"f 	c #617D80",
"g 	c #60878C",
"h 	c #60888C",
"i 	c #618786",
"j 	c #577978",
"k 	c #335254",
"l 	c #334A4C",
"m 	c #455350",
"n 	c #626B61",
"o 	c #859282",
"p 	c #929B94",
"q 	c #313333",
"r 	c #000000",
"s 	c #C6CAB6",
"t 	c #BFD1B2",
"u 	c #B0C2A4",
"v 	c #A3C1A6",
"w 	c #9AC7B9",
"x 	c #95CAC6",
"y 	c #A2C4BB",
"z 	c #AECDC3",
"A 	c #A6CAC4",
"B 	c #95BFBB",
"C 	c #97C1C2",
"D 	c #8DBDC3",
"E 	c #76A1A7",
"F 	c #509CA5",
"G 	c #555757",
"H 	c #53777B",
"I 	c #679296",
"J 	c #6DA8B0",
"K 	c #72BBC6",
"L 	c #74CAD5",
"M 	c #78C4C6",
"N 	c #51B4BB",
"O 	c #25727A",
"P 	c #32676B",
"Q 	c #3F6968",
"R 	c #5D7066",
"S 	c #8AA38F",
"T 	c #A3AF9C",
"U 	c #2A2C2B",
"V 	c #C1CDB2",
"W 	c #B9C9AD",
"X 	c #AED3B6",
"Y 	c #9ED2B9",
"Z 	c #97DBD2",
"` 	c #93D5CF",
" .	c #94D1CD",
"..	c #82CCCE",
"+.	c #5AB9C2",
"@.	c #5EB8C0",
"#.	c #58AFBB",
"$.	c #54A6B4",
"%.	c #428792",
"&.	c #29747F",
"*.	c #464848",
"=.	c #416366",
"-.	c #4D7F85",
";.	c #5CB0BC",
">.	c #67BCC8",
",.	c #6DC7D2",
"'.	c #63C9D1",
").	c #3FBBC6",
"!.	c #247A82",
"~.	c #2A7781",
"{.	c #356B70",
"].	c #3C7779",
"^.	c #3E564E",
"/.	c #25312E",
"(.	c #272727",
"_.	c #3F4040",
":.	c #C6D3BC",
"<.	c #C2E5CD",
"[.	c #B4EED9",
"}.	c #AFEDDD",
"|.	c #A9E2DD",
"1.	c #9CD4D1",
"2.	c #8CCBCE",
"3.	c #57C4CD",
"4.	c #58BAC5",
"5.	c #4FB9C7",
"6.	c #45B1C2",
"7.	c #309BAC",
"8.	c #218391",
"9.	c #116B78",
"0.	c #2E3132",
"a.	c #2D5F65",
"b.	c #39838D",
"c.	c #4BA9B7",
"d.	c #5CC1D0",
"e.	c #69C5D2",
"f.	c #5FCCD5",
"g.	c #5BBAC3",
"h.	c #38686D",
"i.	c #418995",
"j.	c #3A848E",
"k.	c #1B585E",
"l.	c #335B5D",
"m.	c #2E3E3E",
"n.	c #252526",
"o.	c #3D3D3D",
"p.	c #C6CDB8",
"q.	c #C1EAD5",
"r.	c #B1EAD5",
"s.	c #B5F5ED",
"t.	c #C0EAE4",
"u.	c #A4D9D9",
"v.	c #7CC3C5",
"w.	c #61C2C8",
"x.	c #5EC5CF",
"y.	c #53C1CF",
"z.	c #46C1D1",
"A.	c #2FAEBE",
"B.	c #1D909E",
"C.	c #246E77",
"D.	c #1A1F1F",
"E.	c #206B74",
"F.	c #277A84",
"G.	c #348691",
"H.	c #56A1AE",
"I.	c #58A4B2",
"J.	c #69A8B1",
"K.	c #538188",
"L.	c #00191B",
"M.	c #001A1D",
"N.	c #0B3B3E",
"O.	c #2A7A7F",
"P.	c #28686E",
"Q.	c #35656B",
"R.	c #1F2020",
"S.	c #3A3B3B",
"T.	c #C9D4C1",
"U.	c #BFE6D2",
"V.	c #B0EFDE",
"W.	c #B6EFE2",
"X.	c #B4E5E0",
"Y.	c #9CDDDC",
"Z.	c #98D9DC",
"`.	c #7CD1D6",
" +	c #6BCCD3",
".+	c #59C0CB",
"++	c #4EBFCF",
"@+	c #39AEBF",
"#+	c #3997A6",
"$+	c #367C86",
"%+	c #141A1A",
"&+	c #1F7480",
"*+	c #2C8F9F",
"=+	c #3CAEC0",
"-+	c #5EBFCF",
";+	c #67C7D7",
">+	c #8ED8E2",
",+	c #8DD8E0",
"'+	c #497579",
")+	c #001D1F",
"!+	c #0E4F53",
"~+	c #1F6971",
"{+	c #26616D",
"]+	c #181818",
"^+	c #393B3B",
"/+	c #C4D1C6",
"(+	c #BDDACD",
"_+	c #A9DED2",
":+	c #98DDD4",
"<+	c #7FDEDF",
"[+	c #ABE7EB",
"}+	c #A0E2E6",
"|+	c #8CDBDE",
"1+	c #5BC5CC",
"2+	c #45B1BB",
"3+	c #3FA6B3",
"4+	c #36A1B0",
"5+	c #4C9EAA",
"6+	c #367680",
"7+	c #131819",
"8+	c #1F6974",
"9+	c #2D8795",
"0+	c #348F9D",
"a+	c #43B6C7",
"b+	c #57CCDC",
"c+	c #65D3DE",
"d+	c #74DAE3",
"e+	c #5EAEB4",
"f+	c #418388",
"g+	c #114A4E",
"h+	c #001E20",
"i+	c #001416",
"j+	c #141516",
"k+	c #383A3A",
"l+	c #C4CEC5",
"m+	c #BAD5D1",
"n+	c #A5D7D1",
"o+	c #56CACA",
"p+	c #65D4D4",
"q+	c #94E2E3",
"r+	c #9DE0E2",
"s+	c #93DBDE",
"t+	c #66BFC4",
"u+	c #4EAFB9",
"v+	c #48B7C8",
"w+	c #54A7B4",
"x+	c #4B9AA6",
"y+	c #36737C",
"z+	c #131616",
"A+	c #20555E",
"B+	c #2D7C88",
"C+	c #208594",
"D+	c #26A3B6",
"E+	c #30B4C8",
"F+	c #3AB8CA",
"G+	c #4FCEDD",
"H+	c #3A9FAB",
"I+	c #4CCDDB",
"J+	c #268995",
"K+	c #146C79",
"L+	c #00272A",
"M+	c #002527",
"N+	c #131B1C",
"O+	c #363738",
"P+	c #BCC5C2",
"Q+	c #BBD4D2",
"R+	c #81C4C3",
"S+	c #62C1C4",
"T+	c #52BFC5",
"U+	c #6DCFD3",
"V+	c #76C9C8",
"W+	c #82C9CC",
"X+	c #78C5C9",
"Y+	c #5CA8B1",
"Z+	c #5CAEBB",
"`+	c #53A4B1",
" @	c #46ADBD",
".@	c #367A85",
"+@	c #121314",
"@@	c #214B52",
"#@	c #2A6872",
"$@	c #136C7B",
"%@	c #1A91A8",
"&@	c #2292AE",
"*@	c #31A0BF",
"=@	c #41B1CE",
"-@	c #3B98AF",
";@	c #43B7D4",
">@	c #289CBC",
",@	c #12748F",
"'@	c #01333C",
")@	c #002729",
"!@	c #111C1E",
"~@	c #333535",
"{@	c #899495",
"]@	c #3E5456",
"^@	c #0E383C",
"/@	c #49848A",
"(@	c #60BDC9",
"_@	c #51BBCB",
":@	c #4AACBA",
"<@	c #57B4BC",
"[@	c #5EA8B0",
"}@	c #63ACB6",
"|@	c #6EB8C4",
"1@	c #53A2B0",
"2@	c #459AAA",
"3@	c #367A88",
"4@	c #111212",
"5@	c #234E58",
"6@	c #165E6F",
"7@	c #0C5163",
"8@	c #1D728B",
"9@	c #1A83A6",
"0@	c #2193B8",
"a@	c #2C9FC3",
"b@	c #2A93B2",
"c@	c #2BA1C5",
"d@	c #1E9ABE",
"e@	c #0D7A98",
"f@	c #2283A0",
"g@	c #2B5D69",
"h@	c #121A1B",
"i@	c #333637",
"j@	c #011D1F",
"k@	c #012023",
"l@	c #012124",
"m@	c #02292D",
"n@	c #488C9A",
"o@	c #5CC3DB",
"p@	c #48B5CC",
"q@	c #43B2C7",
"r@	c #4EABBE",
"s@	c #70AEBB",
"t@	c #64A3B2",
"u@	c #50A5BC",
"v@	c #46A1BE",
"w@	c #377C93",
"x@	c #0F1010",
"y@	c #123F4B",
"z@	c #0C3A45",
"A@	c #0B4757",
"B@	c #0E7896",
"C@	c #148AAE",
"D@	c #158BB0",
"E@	c #138EAF",
"F@	c #1897B9",
"G@	c #12A0C6",
"H@	c #0992B7",
"I@	c #087490",
"J@	c #3697B0",
"K@	c #52909D",
"L@	c #131414",
"M@	c #353839",
"N@	c #000F11",
"O@	c #001214",
"P@	c #011B1D",
"Q@	c #012225",
"R@	c #193C42",
"S@	c #71C1D7",
"T@	c #5FBDD6",
"U@	c #47B6D2",
"V@	c #62B2C6",
"W@	c #63AABC",
"X@	c #57A5B9",
"Y@	c #509FB5",
"Z@	c #4990A5",
"`@	c #3B7E8E",
" #	c #0D0E0F",
".#	c #0A4A54",
"+#	c #0B4E58",
"@#	c #0C636F",
"##	c #0C8194",
"$#	c #0B8296",
"%#	c #0C8A9D",
"&#	c #0F9AAB",
"*#	c #15ACBD",
"=#	c #0E98A9",
"-#	c #078BA2",
";#	c #197A91",
">#	c #39A1B8",
",#	c #5A8C96",
"'#	c #121415",
")#	c #3A3D3D",
"!#	c #000E10",
"~#	c #00090A",
"{#	c #011B1E",
"]#	c #6AB3C6",
"^#	c #6AC1D7",
"/#	c #75C9DE",
"(#	c #87CDDB",
"_#	c #68BDCB",
":#	c #5BBCCB",
"<#	c #56B6C6",
"[#	c #4FACBA",
"}#	c #408790",
"|#	c #0A0D0D",
"1#	c #0A5156",
"2#	c #0C6C73",
"3#	c #0B5960",
"4#	c #0F838D",
"5#	c #10848F",
"6#	c #11A0AD",
"7#	c #1398A2",
"8#	c #0C9EAA",
"9#	c #0A808D",
"0#	c #09849B",
"a#	c #217D92",
"b#	c #3A8A9C",
"c#	c #608D94",
"d#	c #121617",
"e#	c #3D3F3F",
"f#	c #394647",
"g#	c #00090B",
"h#	c #000708",
"i#	c #001315",
"j#	c #011F21",
"k#	c #2B5660",
"l#	c #3E7480",
"m#	c #92BEC6",
"n#	c #9CD7E0",
"o#	c #7FCDD8",
"p#	c #70CCD8",
"q#	c #68CAD4",
"r#	c #63CAD2",
"s#	c #4BB3BA",
"t#	c #2C6F7A",
"u#	c #235E64",
"v#	c #158C93",
"w#	c #1BB0BB",
"x#	c #19A1AC",
"y#	c #179AA6",
"z#	c #149CAA",
"A#	c #1396A5",
"B#	c #0B899B",
"C#	c #087E9B",
"D#	c #167997",
"E#	c #2386A2",
"F#	c #437D8C",
"G#	c #6A8C92",
"H#	c #131717",
"I#	c #3E3F40",
"J#	c #8BA2A6",
"K#	c #01090B",
"L#	c #000607",
"M#	c #000D0F",
"N#	c #001A1C",
"O#	c #001D20",
"P#	c #092B2E",
"Q#	c #235156",
"R#	c #5B868C",
"S#	c #9DD8DF",
"T#	c #9CDFE4",
"U#	c #96DFE4",
"V#	c #5CA5AB",
"W#	c #1A525D",
"X#	c #214F57",
"Y#	c #15393F",
"Z#	c #10656B",
"`#	c #21ACB7",
" $	c #21B4C3",
".$	c #1FA9BB",
"+$	c #13A2B7",
"@$	c #0CA6BF",
"#$	c #0E8EAD",
"$$	c #0E81AB",
"%$	c #217F9E",
"&$	c #257793",
"*$	c #467684",
"=$	c #698F93",
"-$	c #161717",
";$	c #3E3E3E",
">$	c #384244",
",$	c #000C0E",
"'$	c #001517",
")$	c #042225",
"!$	c #163F43",
"~$	c #204B50",
"{$	c #5E878A",
"]$	c #9DD1D4",
"^$	c #6D9B9E",
"/$	c #0A3338",
"($	c #072E34",
"_$	c #082E34",
":$	c #116772",
"<$	c #1F9FAF",
"[$	c #1FA5B9",
"}$	c #1BA2B9",
"|$	c #0FA7C4",
"1$	c #099EBD",
"2$	c #0C97C3",
"3$	c #1C7BA3",
"4$	c #277E9F",
"5$	c #2C7B97",
"6$	c #498F9F",
"7$	c #729698",
"8$	c #000506",
"9$	c #000A0C",
"0$	c #001113",
"a$	c #021F21",
"b$	c #062326",
"c$	c #0B282B",
"d$	c #062B2E",
"e$	c #022428",
"f$	c #032529",
"g$	c #052C31",
"h$	c #062E34",
"i$	c #155C68",
"j$	c #218FA1",
"k$	c #1F8A9E",
"l$	c #1B9EBA",
"m$	c #1194B0",
"n$	c #0CA3C5",
"o$	c #0A95B8",
"p$	c #1387B3",
"q$	c #3290B3",
"r$	c #3094B7",
"s$	c #398BA7",
"t$	c #5193A2",
"u$	c #749296",
"v$	c #3C3C3C",
"w$	c #000709",
"x$	c #011C20",
"y$	c #021D21",
"z$	c #042328",
"A$	c #12434B",
"B$	c #228697",
"C$	c #2698AE",
"D$	c #218AA1",
"E$	c #1E87A0",
"F$	c #14829C",
"G$	c #0D8CA9",
"H$	c #0B8DAC",
"I$	c #0F90B8",
"J$	c #2999C8",
"K$	c #40AFD7",
"L$	c #3EA5C9",
"M$	c #4897B2",
"N$	c #5794A3",
"O$	c #6F8A8B",
"P$	c #171717",
"Q$	c #3A3A3A",
"R$	c #000C0D",
"S$	c #011518",
"T$	c #03191C",
"U$	c #031C20",
"V$	c #317989",
"W$	c #3097AC",
"X$	c #2098B2",
"Y$	c #14778F",
"Z$	c #128AA9",
"`$	c #12728B",
" %	c #0D7F9E",
".%	c #0C80A5",
"+%	c #1588B5",
"@%	c #38A5CE",
"#%	c #48A6C5",
"$%	c #4BB1D0",
"%%	c #53AAC0",
"&%	c #5E979C",
"*%	c #678B87",
"=%	c #161616",
"-%	c #000304",
";%	c #000405",
">%	c #001012",
",%	c #000F10",
"'%	c #011012",
")%	c #0A1E20",
"!%	c #132C2F",
"~%	c #092125",
"{%	c #16414A",
"]%	c #2B93A8",
"^%	c #15849D",
"/%	c #0C7693",
"(%	c #126D88",
"_%	c #177393",
":%	c #0D7397",
"<%	c #0A79A1",
"[%	c #2D8AA9",
"}%	c #3AA9C9",
"|%	c #4EAAC1",
"1%	c #47AFC6",
"2%	c #48AEC0",
"3%	c #689794",
"4%	c #678883",
"5%	c #151515",
"6%	c #000303",
"7%	c #001213",
"8%	c #04181B",
"9%	c #1B383C",
"0%	c #355A63",
"a%	c #3D646E",
"b%	c #368190",
"c%	c #249AAF",
"d%	c #117689",
"e%	c #0D7A90",
"f%	c #12819F",
"g%	c #1786A6",
"h%	c #0C7393",
"i%	c #0F82A5",
"j%	c #3595AE",
"k%	c #3A95AC",
"l%	c #469EB1",
"m%	c #44A2B3",
"n%	c #4BA8B1",
"o%	c #73A19E",
"p%	c #7F9992",
"q%	c #141414",
"r%	c #3A393A",
"s%	c #02171A",
"t%	c #132D31",
"u%	c #1A373B",
"v%	c #45717C",
"w%	c #4B929D",
"x%	c #29838E",
"y%	c #1F7079",
"z%	c #0D8FA4",
"A%	c #0C7E94",
"B%	c #0E7A99",
"C%	c #0F7FA3",
"D%	c #2894BA",
"E%	c #329FC0",
"F%	c #36A1C3",
"G%	c #489AAD",
"H%	c #499FAA",
"I%	c #58ADB2",
"J%	c #7FB2AF",
"K%	c #90AAA3",
"L%	c #050909",
"M%	c #222724",
"N%	c #2E322E",
"O%	c #000507",
"P%	c #03171A",
"Q%	c #04191C",
"R%	c #021619",
"S%	c #21535D",
"T%	c #287F8D",
"U%	c #227280",
"V%	c #0D6A82",
"W%	c #0D7089",
"X%	c #0F7392",
"Y%	c #166C8D",
"Z%	c #348AAB",
"`%	c #349BC0",
" &	c #3894B2",
".&	c #51878F",
"+&	c #669596",
"@&	c #778F8A",
"#&	c #96AAA2",
"$&	c #99A49B",
"%&	c #1B1B1B",
"&&	c #D2D9C9",
"*&	c #C5D4C7",
"=&	c #ADBAAC",
"-&	c #3C413C",
";&	c #05191C",
">&	c #0D282B",
",&	c #1C4D59",
"'&	c #1D6A7B",
")&	c #125566",
"!&	c #0C657D",
"~&	c #0E6074",
"{&	c #136984",
"]&	c #33768F",
"^&	c #407688",
"/&	c #467686",
"(&	c #447582",
"_&	c #5A8282",
":&	c #6F8A86",
"<&	c #84978F",
"[&	c #9CA99F",
"}&	c #9BA59A",
"|&	c #1E1E1E",
"1&	c #444544",
"2&	c #D1D7CD",
"3&	c #D2E1D3",
"4&	c #BDCABB",
"5&	c #8A968C",
"6&	c #000404",
"7&	c #000B0D",
"8&	c #3E6469",
"9&	c #276369",
"0&	c #1E6770",
"a&	c #186875",
"b&	c #175766",
"c&	c #187791",
"d&	c #116577",
"e&	c #266572",
"f&	c #507077",
"g&	c #4D6C74",
"h&	c #475F5E",
"i&	c #486364",
"j&	c #617874",
"k&	c #7A9692",
"l&	c #8C9C92",
"m&	c #A0A99B",
"n&	c #9FA99A",
"o&	c #282928",
"p&	c #424141",
"q&	c #868880",
"r&	c #A9B0A2",
"s&	c #9BA397",
"t&	c #7A8981",
"u&	c #050708",
"v&	c #050809",
"w&	c #070A0B",
"x&	c #0A1011",
"y&	c #0C1516",
"z&	c #0F1718",
"A&	c #2A4146",
"B&	c #2C616A",
"C&	c #1B5662",
"D&	c #195260",
"E&	c #1F3238",
"F&	c #254048",
"G&	c #1C3A41",
"H&	c #345459",
"I&	c #406268",
"J&	c #354847",
"K&	c #354845",
"L&	c #2F5251",
"M&	c #46514D",
"N&	c #5D6560",
"O&	c #6B746B",
"P&	c #788473",
"Q&	c #5D645B",
"R&	c #191919",
"S&	c #0E0E0E",
"T&	c #060606",
"U&	c #050505",
"V&	c #040404",
"W&	c #050504",
"X&	c #060506",
"Y&	c #070707",
"Z&	c #090909",
"`&	c #0A0A0A",
" *	c #0B0B0B",
".*	c #0C0C0C",
"+*	c #0D0D0D",
"@*	c #080808",
"#*	c #090808",
"                                                                ",
"                                                                ",
"  . + @ # $ % & * = - ; = > , ' ) + ! ~ { ] ^ ^ ^ / ( ( _ : <   ",
"  [ } | 1 2 3 4 5 6 7 8 9 0 a b c d e f g h i j k l m n o p q r ",
"  ^ s t u v w x y z A B C D E F G H I J K L M N O P Q R S T U r ",
"  . V W X Y Z `  ...+.@.#.$.%.&.*.=.-.;.>.,.'.).!.~.{.].^./.(.r ",
"  _.:.<.[.}.|.1.2.3.4.5.6.7.8.9.0.a.b.c.d.e.f.g.h.i.j.k.l.m.n.r ",
"  o.p.q.r.s.t.u.v.w.x.y.z.A.B.C.D.E.F.G.H.I.J.K.L.M.N.O.P.Q.R.r ",
"  S.T.U.V.W.X.Y.Z.`. +.+++@+#+$+%+&+*+=+-+;+>+,+'+)+)+!+~+{+]+r ",
"  ^+/+(+_+:+<+[+}+|+1+2+3+4+5+6+7+8+9+0+a+b+c+d+e+f+g+h+h+i+j+r ",
"  k+l+m+n+o+p+q+r+s+t+u+v+w+x+y+z+A+B+C+D+E+F+G+H+I+J+K+L+M+N+r ",
"  O+P+Q+R+S+T+U+V+W+X+Y+Z+`+ @.@+@@@#@$@%@&@*@=@-@;@>@,@'@)@!@r ",
"  ~@{@]@^@/@(@_@:@<@[@}@|@1@2@3@4@5@6@7@8@9@0@a@b@c@d@e@f@g@h@r ",
"  i@j@k@l@m@n@o@p@q@r@s@t@u@v@w@x@y@z@A@B@C@D@E@F@G@H@I@J@K@L@r ",
"  M@N@O@P@Q@R@S@T@U@V@W@X@Y@Z@`@ #.#+#@###$#%#&#*#=#-#;#>#,#'#r ",
"  )#!#~#N@{#l@]#^#/#(#_#:#<#[#}#|#1#2#3#4#5#6#7#8#9#0#a#b#c#d#r ",
"  e#f#g#h#i#j#k#l#m#n#o#p#q#r#s#t#u#v#w#x#y#z#A#B#C#D#E#F#G#H#r ",
"  I#J#K#L#M#N#O#P#Q#R#S#T#U#V#W#X#Y#Z#`# $.$+$@$#$$$%$&$*$=$-$r ",
"  ;$>$L#L#,$'$N#)$!$~${$]$^$/$($_$_$:$<$[$}$|$1$2$3$4$5$6$7$]+r ",
"  ;$L#L#8$9$0$'$M.a$b$c$d$e$f$g$h$i$j$k$l$m$n$o$p$q$r$s$t$u$]+r ",
"  v$L#L#8$w$N@O@i+i+i#i+x$y$z$A$B$C$D$E$F$G$H$I$J$K$L$M$N$O$P$r ",
"  Q$8$w$8$8$R$0$i#0$0$0$S$T$U$V$W$X$Y$Z$`$ %.%+%@%#%$%%%&%*%=%r ",
"  Q$-%h#8$;%L#M#O@>%,%'%)%!%~%{%]%^%/%(%_%:%<%[%}%|%1%2%3%4%5%r ",
"  Q$6%-%8$;%;%g#N@7%>%8%9%0%a%b%c%d%e%f%g%h%i%j%k%l%m%n%o%p%q%r ",
"  r%6%-%8$8$;%8$~#!#O@s%t%u%v%w%x%y%z%A%B%C%D%E%F%G%H%I%J%K%P$r ",
"  Q$L%M%N%O%;%;%;%~#N@O@P%Q%R%S%T%U%V%W%X%Y%Z%`% &.&+&@&#&$&%&r ",
"  o.&&*&=&-&;%-%-%8$M#N@;&>&Q%,&'&)&!&~&{&]&^&/&(&_&:&<&[&}&|&r ",
"  1&2&3&4&5&-%-%-%6&7&N@N@8&9&0&a&b&c&d&e&f&g&h&i&j&k&l&m&n&o&r ",
"  p&q&r&s&t&u&u&v&w&x&y&z&A&B&C&D&E&F&G&H&I&J&K&L&M&N&O&P&Q&R&r ",
"    S&T&U&V&V&V&W&X&Y&Z&`& *.*+*+*S&.*`&Z&@*@*@*Z&Z&Z&#*Z&T&r r ",
"      r r r r r r r r r r r r r r r r r r r r r r r r r r r r   ",
"                                                                "};
