<?xml version="1.0" encoding="UTF-8" standalone="no"?>
<!-- Created with Inkscape (http://www.inkscape.org/) -->

<svg
   xmlns:dc="http://purl.org/dc/elements/1.1/"
   xmlns:cc="http://creativecommons.org/ns#"
   xmlns:rdf="http://www.w3.org/1999/02/22-rdf-syntax-ns#"
   xmlns:svg="http://www.w3.org/2000/svg"
   xmlns="http://www.w3.org/2000/svg"
   xmlns:xlink="http://www.w3.org/1999/xlink"
   xmlns:sodipodi="http://sodipodi.sourceforge.net/DTD/sodipodi-0.dtd"
   xmlns:inkscape="http://www.inkscape.org/namespaces/inkscape"
   width="2050.3"
   height="1433.6779"
   id="svg2"
   version="1.1"
   inkscape:version="0.48.3.1 r9886"
   sodipodi:docname="logos-final.svg">
  <title
     id="title3903">Unvanquished</title>
  <defs
     id="defs4">
    <filter
       color-interpolation-filters="sRGB"
       height="1"
       y="0"
       width="1"
       x="0"
       inkscape:menu-tooltip="Light areas turn to black"
       inkscape:menu="Color"
       inkscape:label="Recolour cyan"
       id="filter3501">
      <feColorMatrix
         result="result1"
         values="0 0 0 0 0.411 0 0 0 0 0.874 0 0 0 0 0.98 0 0 0 1 0 "
         in="SourceGraphic"
         id="feColorMatrix3503" />
    </filter>
    <filter
       id="filter3517"
       inkscape:label="Whiten + glow"
       y="-0.2"
       x="-0.2"
       width="1.4"
       height="1.4"
       color-interpolation-filters="sRGB">
      <feColorMatrix
         id="feColorMatrix3521"
         in="SourceGraphic"
         values="3 0 0 0 0 0 3 0 0 0 0 0 3 0 0 0 0 0 1 0 "
         result="result2" />
      <feGaussianBlur
         stdDeviation="16"
         id="feGaussianBlur3527"
         in="SourceAlpha"
         result="result3" />
      <feColorMatrix
         id="feColorMatrix3531"
         values="0 0 0 0 1 0 0 0 0 1 0 0 0 0 1 0 0 0 0.75 0 "
         result="result1" />
      <feMerge
         id="feMerge3535">
        <feMergeNode
           inkscape:collect="always"
           id="feMergeNode3537"
           in="result1" />
        <feMergeNode
           inkscape:collect="always"
           id="feMergeNode3539"
           in="result2" />
      </feMerge>
    </filter>
  </defs>
  <sodipodi:namedview
     id="base"
     pagecolor="#000000"
     bordercolor="#666666"
     borderopacity="1.0"
     inkscape:pageopacity="0"
     inkscape:pageshadow="2"
     inkscape:zoom="1"
     inkscape:cx="1035.7505"
     inkscape:cy="510.62639"
     inkscape:document-units="px"
     inkscape:current-layer="g3568"
     showgrid="false"
     inkscape:window-width="1855"
     inkscape:window-height="1056"
     inkscape:window-x="65"
     inkscape:window-y="24"
     inkscape:window-maximized="1"
     fit-margin-top="0"
     fit-margin-left="0"
     fit-margin-right="0"
     fit-margin-bottom="-2.7755576e-17" />
  <metadata
     id="metadata7">
    <rdf:RDF>
      <cc:Work
         rdf:about="">
        <dc:format>image/svg+xml</dc:format>
        <dc:type
           rdf:resource="http://purl.org/dc/dcmitype/StillImage" />
        <dc:title>Unvanquished</dc:title>
        <dc:date>2012-03-30</dc:date>
        <dc:creator>
          <cc:Agent>
            <dc:title>Gireen</dc:title>
          </cc:Agent>
        </dc:creator>
        <dc:rights>
          <cc:Agent>
            <dc:title>CC BY-SA 3.0</dc:title>
          </cc:Agent>
        </dc:rights>
        <dc:publisher>
          <cc:Agent>
            <dc:title>Unvanquished Development</dc:title>
          </cc:Agent>
        </dc:publisher>
        <dc:description>Logo designs for Unvanquished.</dc:description>
        <dc:contributor>
          <cc:Agent>
            <dc:title>Darren Salt</dc:title>
          </cc:Agent>
        </dc:contributor>
      </cc:Work>
    </rdf:RDF>
  </metadata>
  <g
     inkscape:label="Layer 1"
     inkscape:groupmode="layer"
     id="layer1"
     transform="translate(1012.575,-35.981869)">
    <g
       style="fill:#262626;fill-opacity:1"
       id="g4098"
       transform="translate(17.22496,114.60687)">
      <path
         inkscape:connector-curvature="0"
         id="path3806"
         d="m -547.00011,46.875 -3.99989,5.5 -136.5,0 -4.49998,-5.5 -2e-5,-125.5 73.125,0 0,63.971563 4.875,0 0,-63.97156 67,-3e-6 z"
         style="fill:#262626;fill-opacity:1"
         sodipodi:nodetypes="ccccccccccc" />
      <path
         sodipodi:nodetypes="ccccccccccc"
         inkscape:connector-curvature="0"
         id="path3804"
         d="m -540,52.375003 0,-131.000003 47,0 21,46 0,-46 43.00001,0 0,131.000003 L -472,52.375 -492.99999,6.3749999 -493,52.375003 z"
         style="fill:#262626;fill-opacity:1" />
      <path
         sodipodi:nodetypes="cccccccc"
         inkscape:connector-curvature="0"
         id="path3008-0"
         d="m -422,52.375003 0,-131 57,-3e-6 -0.5,51 29,-50.999997 59.5,-3e-6 -73.5,131 z"
         style="fill:#262626;fill-opacity:1" />
      <use
         x="0"
         y="0"
         xlink:href="#path3804"
         id="use3982"
         transform="translate(350,0)"
         width="744.09448"
         height="1052.3622" />
      <path
         sodipodi:nodetypes="ccccccccccccccc"
         inkscape:connector-curvature="0"
         id="path3826"
         d="m -67.5,-78.624997 -4.5,5.499997 0,120 4.5,5.500003 90.5,0 16,12 0,-12 -55,-45.0000031 0,-40.9999999 5,0 0,39.0000034 50,41.4999966 0,-120 -4.5,-5.499997 z"
         style="fill:#262626;fill-opacity:1" />
      <path
         sodipodi:nodetypes="ccccccccccc"
         style="fill:#262626;fill-opacity:1"
         d="m 156.99976,46.875 -4.49976,5.5 -102,3e-6 L 46.00002,46.875 46,-78.607471 l 56,-0.01753 0,64.000001 5,0 0,-63.999998 49.99987,-3e-6 z"
         id="path3860"
         inkscape:connector-curvature="0" />
      <path
         sodipodi:nodetypes="ccccc"
         inkscape:connector-curvature="0"
         id="path3862"
         d="m 164,52.375003 0,-131.000003 45,0 0,131.000003 z"
         style="fill:#262626;fill-opacity:1" />
      <path
         style="fill:#262626;fill-opacity:1"
         d="m 1026,0.83758194 0,130.99999806 56.125,0 0,-48.999998 4.9062,0 0,48.999998 49.9688,0 0,-130.99999806 -49.9688,0 0,49.00000006 -4.9062,0 0,-49.00000006 z"
         transform="translate(-692,-79.462582)"
         id="path3877"
         inkscape:connector-curvature="0"
         sodipodi:nodetypes="ccccccccccccc" />
      <path
         sodipodi:nodetypes="cccccccccccc"
         inkscape:connector-curvature="0"
         id="path3884"
         d="m 555,-29.625 -47,0 0,-5 54.9999,0 0,-43.999997 -110.9999,0 0,130.999997 110.9999,0 0,-44.0000001 -54.9999,0 0,-5 47,0"
         style="fill:#262626;fill-opacity:1" />
      <path
         id="path3889"
         d="m 570,-78.624598 0,130.999596 94.5,0 L 681,31.875 l 0,-90 -16.5,-20.5 z m 56,43.999598 5,0 0,42.9999999 -5,0 z"
         style="fill:#262626;fill-opacity:1"
         inkscape:connector-curvature="0"
         sodipodi:nodetypes="cccccccccccc" />
      <path
         style="fill:#262626;fill-opacity:1"
         d="m 912.5,0.83758194 -4.5,5.49999996 0,71.0000001 4.5,5.5 56.5,0 0,5 -61,0 0,38.499998 4.5,5.5 102.3438,0.006 4.1562,-5.09375 0,-71.412248 -4.5,-5.5 -50.5,0 0,-5 55,0 0,-38.5001701 -4.5,-5.49982996 z"
         id="path3821"
         inkscape:connector-curvature="0"
         sodipodi:nodetypes="ccccccccccccccccccc"
         transform="translate(-692,-79.462582)" />
      <use
         x="0"
         y="0"
         xlink:href="#path3008-0"
         id="use3859"
         transform="matrix(-1,0,0,-1,-618.99975,-26.249997)"
         width="1373"
         height="647" />
    </g>
    <g
       id="g3568"
       transform="translate(-122,371.29756)">
      <path
         style="fill:#69dffa;fill-opacity:1"
         d="m 136.16,595.41215 -14.58502,25.9449 0,-30.1949 0,-30.19489 17.04215,0 17.04216,0 -2.45714,4.25 z"
         id="path3880"
         inkscape:connector-curvature="0" />
      <path
         style="fill:#69dffa;fill-opacity:1"
         d="M 649.15625 838.28125 L 649.15625 888.28125 L 1050.6562 888.28125 C 1060.6267 870.60745 1069.2449 856.01561 1078.1562 838.28125 L 649.15625 838.28125 z M 654.8125 844.46875 L 675.96875 844.46875 L 675.96875 862.96875 L 677.375 862.96875 L 677.375 844.46875 L 696.75 844.46875 L 696.75 880.75 L 695.59375 882.34375 L 656.125 882.34375 L 654.8125 880.75 L 654.8125 844.46875 z M 698.78125 844.46875 L 712.375 844.46875 L 718.4375 857.78125 L 718.4375 844.46875 L 730.875 844.46875 L 730.875 882.34375 L 718.4375 882.34375 L 712.375 869.03125 L 712.375 882.34375 L 698.78125 882.34375 L 698.78125 844.46875 z M 732.875 844.46875 L 749.375 844.46875 L 749.21875 859.21875 L 757.625 844.46875 L 774.8125 844.46875 L 753.5625 882.34375 L 732.875 882.34375 L 732.875 844.46875 z M 777.28125 844.46875 L 797.9375 844.46875 L 797.9375 882.34375 L 781.46875 882.34375 L 781.625 867.59375 L 773.21875 882.34375 L 756.03125 882.34375 L 777.28125 844.46875 z M 799.96875 844.46875 L 813.5625 844.46875 L 819.625 857.78125 L 819.625 844.46875 L 832.0625 844.46875 L 832.0625 882.34375 L 819.625 882.34375 L 813.5625 869.03125 L 813.5625 882.34375 L 799.96875 882.34375 L 799.96875 844.46875 z M 835.40625 844.46875 L 864.875 844.46875 L 866.1875 846.0625 L 866.1875 880.75 L 851.71875 868.75 L 851.71875 857.46875 L 850.28125 857.46875 L 850.28125 869.34375 L 866.1875 882.34375 L 866.1875 885.8125 L 861.5625 882.34375 L 835.40625 882.34375 L 834.09375 880.75 L 834.09375 846.0625 L 835.40625 844.46875 z M 868.21875 844.46875 L 884.40625 844.46875 L 884.40625 862.96875 L 885.84375 862.96875 L 885.84375 844.46875 L 900.3125 844.46875 L 900.3125 880.75 L 899 882.34375 L 869.5 882.34375 L 868.21875 880.75 L 868.21875 844.46875 z M 902.34375 844.46875 L 915.34375 844.46875 L 915.34375 882.34375 L 902.34375 882.34375 L 902.34375 844.46875 z M 918.65625 844.46875 L 948.15625 844.46875 L 949.46875 846.0625 L 949.46875 857.1875 L 933.5625 857.1875 L 933.5625 858.625 L 948.15625 858.625 L 949.46875 860.21875 L 949.46875 880.875 L 948.25 882.34375 L 918.65625 882.34375 L 917.375 880.75 L 917.375 869.625 L 935 869.625 L 935 868.1875 L 918.65625 868.1875 L 917.375 866.59375 L 917.375 846.0625 L 918.65625 844.46875 z M 951.5 844.46875 L 967.71875 844.46875 L 967.71875 858.625 L 969.125 858.625 L 969.125 844.46875 L 983.59375 844.46875 L 983.59375 882.34375 L 969.125 882.34375 L 969.125 868.1875 L 967.71875 868.1875 L 967.71875 882.34375 L 951.5 882.34375 L 951.5 844.46875 z M 985.59375 844.46875 L 1017.6875 844.46875 L 1017.6875 857.1875 L 1001.8125 857.1875 L 1001.8125 858.625 L 1015.375 858.625 L 1015.375 868.1875 L 1001.8125 868.1875 L 1001.8125 869.625 L 1017.6875 869.625 L 1017.6875 882.34375 L 985.59375 882.34375 L 985.59375 844.46875 z M 1019.7188 844.46875 L 1047.0625 844.46875 L 1051.8125 850.40625 L 1051.8125 876.40625 L 1047.0625 882.34375 L 1019.7188 882.34375 L 1019.7188 844.46875 z M 1035.9062 857.1875 L 1035.9062 869.625 L 1037.375 869.625 L 1037.375 857.1875 L 1035.9062 857.1875 z "
         transform="translate(-890.575,-335.31569)"
         id="path3878" />
      <g
         id="g3881">
        <path
           sodipodi:nodetypes="ccccccccccccccccccccsccccccccsccsccsccccscccccccccccccccccccccccccccccccccccccccccccccccccccccccsccccccccccccccccccscscccccscscccccccccccccccccscccccccccscccccccccccccccccsscccccccccccccccc"
           d="m -30.834433,310.03962 c 3.410609,-2.29598 8.713418,-6.34011 11.78405,-8.98695 l 5.330156,-4.97006 c 1.432547,-1.98072 3.655024,-2.63966 5.0875621,0.063 l 1.141678,3.33325 3.065951,8.02717 0,-25.53916 -40.1591481,0 0.01471,2.16657 -1.228501,5.80372 -1.228522,5.80372 -0.06426,6.54935 -0.06426,6.54937 1.251203,1.56454 c 1.899306,0.92206 4.525712,1.68495 7.504035,3.55891 l 1.364242,0.251 6.201083,-4.17452 -2e-5,4e-5 4e-5,0 z m 26.2543451,17.05684 c 0,-0.80949 1.230683,-1.43604 -3.242438,-9.10209 -2.2771901,-4.90544 -3.5938761,-8.07621 -3.6023041,-9.29762 -0.008,-1.22141 -0.229301,-2.98529 -0.305154,-4.82368 -0.184667,-1.26026 0.03073,-3.2734 -1.805566,-2.33677 l -10.913804,8.57889 c -3.173201,2.39426 -7.839538,4.1952 -9.424782,7.64683 l 1.994378,2.80088 1.36243,2.13892 5.444405,2.68937 c 5.446032,2.69017 8.166822,3.34182 15.2037891,3.6414 l 5.289046,0.3827 z m -230.3037821,79.56814 3.39065,-1.41328 1.08153,-2.016 c 1.47377,-2.74715 1.61611,-2.36385 -3.83825,-7.95584 l -4.91977,-5.0123 -1.25533,0.0491 c 0.076,5.4788 0.0603,10.95131 0,16.43015 l 0.7516,0.6657 c 0.83004,0.73518 1.5046,0.34747 4.78957,-0.74759 l 0,4e-5 z m 230.4588301,79.60727 4e-6,-125.58896 -1.982069,0.0747 C -17.47729,361.577 -24.031672,351.2905 -27.791087,343.25275 l -4.330774,-4.64133 -4.172782,-2.43483 -2.003897,-0.0549 0.23956,1.58416 6.433776,7.81648 3.905956,4.75889 -0.142677,7.38477 0.552451,6.97499 -0.302871,6.18076 -0.587265,6.14926 -1.286066,3.7306 -0.432957,-4.55953 0.267507,-10.9049 -0.617253,-10.306 -0.544183,-3.09678 c -0.907563,-1.32182 -4.751159,-5.79799 -7.691686,-9.48476 l -6.13637,-7.8695 -3.891582,-1.60759 0.43731,3.49888 c -0.222143,1.21669 1.356935,3.80351 -0.560188,4.22246 -0.429263,1.87133 -1.928195,8.48222 -4.024941,16.30834 l -3.591123,13.53588 -2.226911,5.10648 c -0.450163,1.03229 0.931926,-7.09439 1.295656,-9.33525 0.529719,-0.98742 1.917384,-7.1364 3.083695,-13.66443 l 2.436523,-12.81478 c -0.21845,-1.70244 -0.389515,-1.73423 0.761702,-3.34211 l -0.754976,-7.15621 -2.733999,-3.49317 -2.923601,-3.80839 -5.160642,-1.89943 -7.46728,-2.84508 c -12.197598,-0.22584 -20.382148,0.0679 -29.472214,-0.28563 -2.643591,-0.25493 -4.458971,0.96431 -7.420661,0.84854 0.69515,-0.80796 2.16215,-1.26765 2.02226,-1.28909 l 3.47207,-1.49492 5.620719,-0.61232 10.356338,-0.36466 13.346343,-0.79962 c 2.623853,-0.28226 3.149738,1.26677 4.57657,2.02937 l 2.429797,1.07924 2.658836,0.78711 3.624726,-0.23054 -0.255396,-1.81879 c -2.168335,-1.82776 -2.358988,-2.20655 -2.668436,-3.28986 l 1.385813,0.84698 1.117714,0.62409 2.323665,-0.7213 c 0.618054,-0.94722 0.459702,-1.60598 0.03894,-2.27574 -0.258799,-0.41195 -1.616024,-0.22893 -3.010585,-1.254 1.608957,-0.8144 3.499735,-0.21439 4.524781,1.24733 l 2.625645,-0.49122 1.178713,-12.48188 1.178724,-12.48188 0.427511,-2.7905 -63.545938,-2e-5 0,104.14345 -7.80118,-3e-5 -0.13878,-104.14341 -119.06004,0 0,84.70717 c 0,-1.61645 3.25156,-4.94918 4.26269,-5.39049 l 2.74974,-1.92314 5.676,-2.5471 c 0,0 3.03263,-1.44105 7.12951,-1.72755 3.05604,-0.21751 6.34785,1.17651 9.35583,2.34334 0,0 3.74356,1.81812 5.82901,4.27679 0,0 3.13327,3.98859 4.69149,5.66375 1.55823,1.67517 1.92059,4.13301 1.92059,4.13301 0.81484,2.26505 1.6198,5.59574 2.02457,8.61635 0.40475,3.02061 1.1177,6.49907 1.58433,7.72991 l 0.0901,2.23787 0.95323,1.27723 4.36576,-1.62272 c 2.78059,-0.94565 7.00672,2.31629 7.00672,2.31629 3.85372,1.27396 10.588,1.89238 10.89203,4.26312 l 3.88528,1.94682 5.75807,5.67331 c 3.16693,3.12031 5.00234,5.43317 6.47309,6.21839 l 4.63318,2.3103 4.63627,-1.94084 4.5099,-2.94954 3.85717,-1.95605 c 0.14072,-2.33134 -0.0432,-2.96098 0.31821,-3.59518 l 9.75809,-5.84069 8.17818,-4.51678 3.13038,-1.82824 c 1.13084,0 2.59873,2.08954 3.7324,1.48428 l 0,-2.61352 2.80781,-0.40011 1.68875,3.44552 16.504966,-9.89399 c 2.005448,-0.46435 3.185793,0.12958 2.836858,2.68497 -6.082759,3.87698 -12.369234,7.49229 -18.437604,11.40867 -0.12639,0.21666 3.52868,0.39555 3.52868,0.39555 0,0 2.84891,2.21648 3.638,3.23015 1.578184,2.0273 2.255956,4.78789 2.587494,5.74939 l -0.155519,1.3699 -4.420345,5.11442 -3.97794,4.29358 -9.16994,5.98523 c -5.07821,3.1178 -9.3481,5.98266 -10.18379,6.67455 l -2.08819,-0.4442 -0.12238,4.77227 0.76234,2.43969 1.99819,3.26943 c 2.54382,4.16218 3.68036,3.75171 0.96334,7.63478 -4.1955,4.75714 -5.05498,5.84373 -7.68086,3.74972 -1.22675,1.56968 -3.15102,1.74767 -5.21124,1.6544 l -7.60909,-1.77546 5.69352,5.31688 2.48169,1.82799 c 1.01737,1.14409 4.21452,3.60099 7.1048,5.45979 l 6.29778,3.85245 c -1.1942,2.00043 -1.34764,2.13362 -2.67563,3.91992 l -2.35965,2.54475 6.02882,5.0836 -3.04498,3.66135 -6.17127,-3.99647 c -2.8985,4.02067 -3.61451,6.10026 -4.82457,7.47982 l -12.96325,-10.51284 3.0902,7.33203 -0.38555,1.15385 2.27162,4.1314 c 1.24939,2.27227 3.72204,4.61292 3.78609,5.88616 l 1.51449,1.75521 127.99454,0 c 2.0523071,-2.92012 4.4437391,-5.77671 6.5000001,-8.695 z m -204.1317301,4.69104 c 0.0869,-0.98404 0.81325,-0.77436 1.71564,-2.33949 0.13852,-2.11017 0.23329,-4.23972 -2.77272,-7.74408 l -2.99612,-6.00554 -2.8069,-2.57695 -3.07501,-2.93359 -8.09582,0.82724 c -4.05947,0.25884 -7.58697,-0.21469 -9.23856,0.17733 l -4.59868,2.22582 -1e-4,13.53722 7.241,8.836 25.73056,0 c 0.60016,-0.93614 0.0333,-2.78203 -1.10329,-4.00396 z"
           style="font-size:56px;font-style:normal;font-variant:normal;font-weight:bold;font-stretch:normal;text-align:start;line-height:100%;letter-spacing:0.05650402;writing-mode:lr-tb;text-anchor:start;fill:#69dffa;fill-opacity:1;stroke:none;display:inline;enable-background:new;font-family:Roboto;-inkscape-font-specification:Roboto Medium"
           id="path4254"
           inkscape:connector-curvature="0" />
        <use
           transform="translate(543.07497,442.59226)"
           style="fill:#69dffa;fill-opacity:1;filter:url(#filter3501)"
           x="0"
           y="0"
           xlink:href="#path3804"
           id="use3047"
           width="1"
           height="1" />
        <use
           transform="translate(543.07497,442.59226)"
           style="fill:#69dffa;fill-opacity:1;filter:url(#filter3501)"
           x="0"
           y="0"
           xlink:href="#path3008-0"
           id="use3049"
           width="1"
           height="1" />
      </g>
      <path
         sodipodi:nodetypes="ccccccccccc"
         style="fill:#262626;fill-opacity:1"
         d="m 201.17138,754.43979 -1.15656,1.59031 -39.46868,0 -1.30116,-1.59031 -1e-5,-36.28806 21.14394,0 0,18.49724 1.4096,0 0,-18.49724 19.3729,0 z"
         id="use3857"
         inkscape:connector-curvature="0" />
      <path
         style="fill:#262626;fill-opacity:1"
         d="m 203.19545,756.0301 0,-37.87837 13.58995,0 6.0721,13.3008 0,-13.3008 12.43336,0 0,37.87837 -12.43336,0 -6.0721,-13.3008 0,13.3008 z"
         id="use3860"
         inkscape:connector-curvature="0"
         sodipodi:nodetypes="ccccccccccc" />
      <path
         style="fill:#262626;fill-opacity:1"
         d="m 237.31489,756.0301 0,-37.87837 16.48143,0 -0.14457,14.74654 8.38529,-14.74654 17.20429,0 -21.25236,37.87837 z"
         id="use3862"
         inkscape:connector-curvature="0"
         sodipodi:nodetypes="cccccccc" />
      <path
         style="fill:#262626;fill-opacity:1"
         d="m 304.3972,756.0301 0,-37.87837 13.58995,0 6.0721,13.3008 0,-13.3008 12.43336,0 0,37.87837 -12.43336,0 -6.0721,-13.3008 0,13.3008 z"
         id="use3864"
         inkscape:connector-curvature="0"
         sodipodi:nodetypes="ccccccccccc" />
      <path
         style="fill:#262626;fill-opacity:1"
         d="m 339.81781,718.15173 -1.30117,1.59031 0,34.69775 1.30117,1.59031 26.16788,0 4.62636,3.46977 0,-3.46977 -15.90313,-13.01165 0,-11.85507 1.44574,0 0,11.27677 14.45739,11.99964 0,-34.69775 -1.30116,-1.59031 z"
         id="use3866"
         inkscape:connector-curvature="0"
         sodipodi:nodetypes="ccccccccccccccc" />
      <path
         inkscape:connector-curvature="0"
         id="use3868"
         d="m 404.73143,754.43979 -1.3011,1.59031 -29.49308,0 -1.30116,-1.59031 0,-36.28299 16.19228,-0.005 0,18.50546 1.44574,0 0,-18.50546 14.45735,0 z"
         style="fill:#262626;fill-opacity:1"
         sodipodi:nodetypes="ccccccccccc" />
      <path
         style="fill:#262626;fill-opacity:1"
         d="m 406.75553,756.0301 0,-37.87837 13.01166,0 0,37.87837 z"
         id="use3870"
         inkscape:connector-curvature="0"
         sodipodi:nodetypes="ccccc" />
      <path
         sodipodi:nodetypes="ccccccccccccc"
         inkscape:connector-curvature="0"
         id="use3872"
         d="m 455.91066,718.15174 0,37.87836 16.22843,0 0,-14.16824 1.41861,0 0,14.16824 14.44838,0 0,-37.87836 -14.44838,0 0,14.16824 -1.41861,0 0,-14.16824 z"
         style="fill:#262626;fill-opacity:1" />
      <path
         style="fill:#262626;fill-opacity:1"
         d="m 519.81234,732.31997 -13.58995,0 0,-1.44573 15.90311,0 0,-12.72251 -32.09538,0 0,37.87837 32.09538,0 0,-12.72251 -15.90311,0 0,-1.44574 13.58995,0"
         id="use3874"
         inkscape:connector-curvature="0"
         sodipodi:nodetypes="cccccccccccc" />
      <path
         sodipodi:nodetypes="cccccccccccc"
         inkscape:connector-curvature="0"
         style="fill:#262626;fill-opacity:1"
         d="m 524.14956,718.15185 0,37.87825 27.32447,0 4.77094,-5.92753 0,-26.02331 -4.77094,-5.92753 z m 16.19228,12.72239 1.44574,0 0,12.43335 -1.44574,0 z"
         id="use3876" />
      <path
         sodipodi:nodetypes="ccccccccccccccccccc"
         inkscape:connector-curvature="0"
         id="use3878"
         d="m 423.09238,718.15174 -1.30116,1.59031 0,20.5295 1.30116,1.59031 16.33686,0 0,1.44574 -17.63802,0 0,11.13219 1.30116,1.59031 29.59249,0.002 1.20176,-1.47285 0,-20.6487 -1.30117,-1.59031 -14.60196,0 0,-1.44574 15.90313,0 0,-11.13224 -1.30117,-1.59026 z"
         style="fill:#262626;fill-opacity:1" />
      <path
         style="fill:#262626;fill-opacity:1"
         d="m 302.37323,718.15173 0,37.87837 -16.48142,0 0.14457,-14.74654 -8.38529,14.74654 -17.2043,0 21.25237,-37.87837 z"
         id="use3880"
         inkscape:connector-curvature="0"
         sodipodi:nodetypes="cccccccc" />
    </g>
    <g
       id="g3564"
       transform="translate(0,-100.00005)"
       inkscape:export-xdpi="180"
       inkscape:export-ydpi="180" />
  </g>
</svg>
