<?xml version="1.0" encoding="UTF-8" standalone="no"?>
<svg
   version="1.1"
   width="1609"
   height="1609"
   id="svg16"
   xmlns="http://www.w3.org/2000/svg"
   xmlns:svg="http://www.w3.org/2000/svg">
  <defs
     id="defs20">
    <rect
       x="1469.4631"
       y="184.18248"
       width="114.90589"
       height="191.84286"
       id="rect453" />
  </defs>
  <path
     d="m 1293.2314,562.72534 c 2.3502,-0.004 4.7003,-0.01 7.0505,-0.0155 6.3576,-0.0133 12.7152,-0.014 19.0728,-0.0114 5.9947,10e-4 11.9895,-0.005 17.9843,-0.0104 12.6014,-0.0109 25.2029,-0.009 37.8044,-0.003 11.4956,0.005 22.9912,-0.006 34.4868,-0.0251 11.8385,-0.0194 23.6769,-0.0276 35.5154,-0.0239 6.6325,0.002 13.2648,-7.6e-4 19.8972,-0.0147 6.2415,-0.0126 12.4828,-0.0106 18.7242,0.002 2.2799,0.002 4.5598,-3.2e-4 6.8397,-0.009 16.418,-0.0554 31.5667,0.89417 47.0183,7.00953 0.8846,0.3441 1.7692,0.6882 2.6806,1.04272 7.9266,3.20479 14.8089,7.30382 21.6944,12.33228 0.7901,0.55043 1.5804,1.10086 2.3945,1.66797 19.5772,14.28609 33.3319,34.76705 40.3555,57.83203 0.199,0.6517 0.3981,1.3034 0.6032,1.97485 2.9525,10.3534 3.9466,20.84627 3.9075,31.57512 0,1.13928 0.01,2.27856 0.012,3.45236 0.01,3.77816 0.01,7.55617 0,11.33434 0,2.72458 0.01,5.44915 0.015,8.17372 0.013,6.60767 0.014,13.21531 0.012,19.82299 0,5.37242 0,10.74482 0,16.11724 5e-4,0.7669 10e-4,1.5338 0,2.32394 10e-4,1.55829 0,3.11658 0,4.67487 0.011,14.58184 0.01,29.16367 0,43.74552 -0.01,13.32642 0.01,26.65278 0.025,39.97919 0.02,13.70751 0.028,27.415 0.024,41.12253 0,7.68633 5e-4,15.37259 0.015,23.05891 0.012,6.53946 0.013,13.07882 10e-4,19.61828 -0.01,3.333 0,6.66566 0.01,9.99868 0.01,3.61965 0,7.2388 -0.01,10.85844 0.01,1.04368 0.015,2.08737 0.022,3.16269 -0.085,11.53865 -3.399,21.88867 -11.2482,30.5493 -9.4055,8.78722 -19.4623,10.3661 -31.875,10.16406 -10.6361,-0.3787 -17.5475,-4.55767 -25.0273,-11.9375 -8.6927,-9.52051 -10.557,-20.32609 -10.5044,-32.85384 0,-1.02984 -0.01,-2.05968 -0.011,-3.12072 -0.01,-3.43147 -0.01,-6.86277 0,-10.29424 0,-2.46771 -0.01,-4.93543 -0.016,-7.40314 -0.012,-5.3037 -0.017,-10.60736 -0.018,-15.91108 -10e-4,-7.67251 -0.016,-15.34496 -0.035,-23.01745 -0.031,-12.45568 -0.055,-24.91136 -0.073,-37.36706 -10e-4,-0.74451 0,-1.48901 0,-2.25608 -0.012,-8.31393 -0.022,-16.62786 -0.03,-24.9418 0,-3.01932 -0.01,-6.03865 -0.01,-9.05798 -10e-4,-1.11766 -10e-4,-1.11766 0,-2.25791 -0.013,-12.41691 -0.038,-24.83377 -0.071,-37.25064 -0.02,-7.65572 -0.031,-15.31132 -0.028,-22.96706 10e-4,-5.85871 -0.013,-11.71731 -0.033,-17.57598 -0.01,-2.40587 -0.01,-4.81176 -10e-4,-7.21763 0.01,-3.27605 -0.01,-6.55153 -0.023,-9.82754 0.01,-0.95883 0.012,-1.91767 0.019,-2.90556 -0.034,-4.9822 -0.034,-4.9822 -1.686,-9.60706 -2.8572,-2.38933 -6.1264,-2.61915 -9.7181,-2.43676 -2.9454,1.21656 -4.4482,2.10247 -6.1171,4.81714 -1.0004,2.47342 -1.1334,4.25813 -1.1342,6.92113 -0.01,0.95719 -0.01,1.91438 -0.016,2.90058 0.01,1.05077 0.01,2.10155 0.014,3.18417 0,1.1215 -0.01,2.243 -0.01,3.39849 -0.01,3.79115 0,7.58215 0,11.37331 0,2.73234 -0.01,5.46468 -0.011,8.19702 -0.01,5.95796 -0.01,11.91588 -0.01,17.87384 0,8.86006 -6e-4,17.72008 -0.01,26.58014 -0.014,14.90643 -0.019,29.81284 -0.02,44.71928 -10e-4,20.36362 -0.016,40.72722 -0.035,61.09084 -0.01,9.48441 -0.017,18.96881 -0.025,28.45322 0,1.42435 0,1.42435 0,2.87748 -0.019,22.61249 -0.033,45.22498 -0.045,67.83748 -8e-4,1.48442 -8e-4,1.48442 0,2.99883 -0.012,23.08128 -0.023,46.16248 -0.032,69.24378 0,8.0018 -0.01,16.0036 -0.01,24.0055 -3e-4,0.9875 -7e-4,1.9751 -9e-4,2.9926 -0.01,22.5527 -0.02,45.1054 -0.04,67.6581 -10e-4,1.4225 -10e-4,1.4225 0,2.8737 -0.01,9.4686 -0.017,18.9372 -0.027,28.4057 0,4.6588 -0.01,9.3176 -0.014,13.9763 -8e-4,0.9169 0,1.8338 0,2.7785 -0.014,14.7516 -0.017,29.5032 -0.015,44.2548 0,14.8313 -0.01,29.6626 -0.026,44.4939 -0.011,8.8087 -0.014,17.6173 -0.01,26.426 0.01,5.8894 -2e-4,11.7787 -0.014,17.668 -0.01,3.3523 -0.01,6.7043 -7e-4,10.0566 0.052,22.2761 -0.7975,41.9179 -17.2117,58.8303 -1.0809,1.0461 -1.0809,1.0461 -2.1836,2.1133 -0.5865,0.5839 -1.173,1.1679 -1.7773,1.7695 -9.9097,9.2102 -23.4866,12.9568 -36.7969,12.5743 -11.2088,-1.1248 -20.454,-4.5852 -29.4258,-11.3438 -0.6548,-0.4731 -1.3097,-0.9462 -1.9844,-1.4336 -11.1315,-8.6934 -18.5544,-23.9582 -20.2968,-37.801 -0.8154,-8.1372 -0.8605,-16.2435 -0.8501,-24.4116 0,-1.5658 0,-3.1317 -0.01,-4.6975 0,-3.3872 -0.01,-6.7744 0,-10.1616 0,-5.5123 0,-11.0246 -0.01,-16.5369 -0.01,-8.0009 -0.013,-16.0017 -0.016,-24.0026 -0.01,-12.6417 -0.022,-25.2833 -0.041,-37.9249 -0.01,-4.3277 -0.013,-8.6554 -0.019,-12.9831 0,-1.0813 0,-2.1627 0,-3.2767 -0.018,-12.2932 -0.034,-24.5864 -0.049,-36.8796 -10e-4,-1.1232 0,-2.2464 0,-3.4036 -0.022,-18.2322 -0.033,-36.4644 -0.04,-54.6966 -0.01,-18.7225 -0.031,-37.4448 -0.068,-56.1673 -0.022,-11.5482 -0.032,-23.0964 -0.025,-34.6447 0,-7.9039 -0.01,-15.8077 -0.031,-23.7115 -0.013,-4.5636 -0.019,-9.1269 -0.01,-13.69054 0.01,-4.17388 0,-8.3473 -0.021,-12.52113 0,-1.51318 0,-3.02641 0.01,-4.53957 0.011,-2.05037 0,-4.10083 -0.021,-6.15116 -10e-4,-1.14079 0,-2.28159 0,-3.45695 -0.6175,-3.57644 -1.6436,-4.7335 -4.502,-6.90788 -3.9027,-1.06435 -6.0588,-1.3974 -9.8125,0.1875 -2.3596,1.95504 -3.1016,2.98401 -4.1875,5.8125 -0.3009,3.03305 -0.3009,3.03305 -0.2534,6.45015 0,0.64876 -0.01,1.29752 -0.01,1.96593 -0.01,2.18304 0,4.36581 0,6.54885 0,1.5774 -0.01,3.1548 -0.011,4.7322 -0.01,4.34216 -0.01,8.6843 0,13.0264 0,4.6806 -0.01,9.3611 -0.014,14.0417 -0.012,8.115 -0.017,16.23 -0.018,24.345 0,11.7483 -0.016,23.4966 -0.036,35.2448 -0.031,19.0801 -0.055,38.1602 -0.073,57.2402 0,1.1425 0,2.2849 0,3.462 -0.012,12.7356 -0.022,25.4712 -0.03,38.2068 0,4.6124 -0.01,9.2247 -0.01,13.8371 -7e-4,1.138 0,2.2761 0,3.4486 -0.013,18.9957 -0.038,37.9914 -0.071,56.9871 -0.02,11.7128 -0.031,23.4256 -0.028,35.1384 10e-4,8.0344 -0.01,16.0687 -0.027,24.103 -0.01,4.6316 -0.015,9.263 -0.01,13.8946 0.01,4.248 4e-4,8.4958 -0.017,12.7437 0,1.5291 0,3.0582 0,4.5872 0.077,18.8672 -3.8154,36.1163 -17.2703,50.0705 -11.5397,10.4579 -25.0596,15.5429 -40.5937,15.2344 -15.2581,-1.3334 -26.7922,-7.6139 -37.2422,-18.5781 -8.4135,-10.0359 -14.4095,-23.3467 -14.4162,-36.6086 0,-0.9629 -0.01,-1.9258 -0.01,-2.9179 0,-1.5781 0,-1.5781 0.01,-3.188 0,-1.1268 0,-2.2535 -0.01,-3.4144 -0.01,-3.8028 0,-7.6056 0,-11.4085 0,-2.743 -0.01,-5.486 -0.01,-8.2291 -0.01,-5.9779 -0.01,-11.9559 -0.01,-17.9339 -7e-4,-8.8894 -0.01,-17.7788 -0.015,-26.6682 -0.012,-14.0366 -0.021,-28.0731 -0.027,-42.1097 -0.01,-22.2778 -0.029,-44.5555 -0.052,-66.8333 -0.01,-8.5683 -0.017,-17.1366 -0.025,-25.7049 -9e-4,-0.9519 0,-1.9039 0,-2.8847 -0.022,-22.6652 -0.042,-45.3304 -0.06,-67.9956 -8e-4,-0.9918 0,-1.9837 0,-3.0056 -0.019,-23.1463 -0.036,-46.2925 -0.048,-69.4388 -5e-4,-0.99578 0,-1.99152 0,-3.01743 0,-8.02629 -0.01,-16.05259 -0.013,-24.07888 -0.017,-33.07151 -0.044,-66.143 -0.083,-99.2145 -0.01,-4.66764 -0.011,-9.33528 -0.016,-14.00292 -10e-4,-0.91865 0,-1.83731 0,-2.78381 -0.016,-14.80241 -0.022,-29.60482 -0.023,-44.40724 0,-14.86803 -0.014,-29.73601 -0.037,-44.60402 -0.013,-8.83927 -0.018,-17.67846 -0.011,-26.51774 0,-5.89951 0,-11.79894 -0.019,-17.69842 -0.01,-3.36461 -0.011,-6.72888 0,-10.09351 0.01,-3.62051 0,-7.24051 -0.019,-10.86099 0.01,-1.57455 0.01,-1.57455 0.02,-3.1809 -0.044,-5.39483 -0.3331,-9.28109 -3.4019,-13.92897 -2.5909,-2.20704 -4.7954,-2.10837 -8.0625,-1.875 -2.8822,0.45 -3.7199,0.66445 -5.875,2.75 -1.6237,3.24741 -2.1877,5.81771 -2.19,9.39899 0,1.31551 0,1.31551 -0.01,2.65759 0,0.96428 0,1.92856 0.01,2.92206 0,1.02385 0,2.04771 -0.01,3.10259 -0.01,3.44755 0,6.89505 0,10.3426 0,2.46532 -0.01,4.93064 -0.011,7.39596 -0.01,5.31852 -0.013,10.63703 -0.016,15.95555 -0.01,8.41292 -0.022,16.8258 -0.041,25.2387 -0.01,2.87915 -0.013,5.75831 -0.019,8.63747 0,0.7196 0,1.43919 0,2.1806 -0.018,8.19365 -0.034,16.38731 -0.049,24.58097 0,1.12358 0,1.12358 0,2.26986 -0.022,12.12358 -0.033,24.24715 -0.04,36.37075 -0.01,12.45406 -0.031,24.90803 -0.068,37.36204 -0.022,7.67682 -0.032,15.35345 -0.025,23.0303 0,5.89224 -0.014,11.78431 -0.039,17.6765 -0.01,2.41098 -0.01,4.822 2e-4,7.23298 0.01,3.30034 -0.01,6.59972 -0.028,9.89998 0.013,1.41965 0.013,1.41965 0.026,2.86798 -0.1379,11.42855 -4.3671,20.46692 -12.1277,28.68512 -8.0729,7.61701 -18.4506,9.65947 -29.2188,9.52735 -11.3203,-0.74822 -19.7397,-5.35302 -27.5039,-13.46094 -5.97,-7.04032 -8.8051,-15.45609 -8.8189,-24.651 0,-0.96601 -0.01,-1.93201 -0.012,-2.92729 9e-4,-1.05348 0,-2.10696 0,-3.19236 0,-1.68808 0,-1.68808 -0.01,-3.41026 -0.01,-3.77963 -0.01,-7.55923 -0.012,-11.33887 0,-2.70717 -0.01,-5.41433 -0.015,-8.1215 -0.014,-7.36445 -0.02,-14.72889 -0.024,-22.09335 0,-4.60586 -0.01,-9.21172 -0.012,-13.81759 -0.012,-12.77076 -0.023,-25.54152 -0.026,-38.31229 -2e-4,-0.81729 -4e-4,-1.63458 -7e-4,-2.47664 -2e-4,-0.81918 -4e-4,-1.63837 -6e-4,-2.48238 -5e-4,-1.65981 -9e-4,-3.31963 -10e-4,-4.97945 -2e-4,-0.82332 -5e-4,-1.64663 -7e-4,-2.4949 0,-13.30724 -0.021,-26.61443 -0.045,-39.92165 -0.024,-13.68696 -0.036,-27.3739 -0.037,-41.06089 -9e-4,-7.67448 -0.01,-15.34888 -0.025,-23.02334 -0.015,-6.54302 -0.02,-13.08595 -0.012,-19.62898 0,-3.33014 0,-6.65994 -0.011,-9.99008 -0.132,-37.24716 -0.132,-37.24716 6.5586,-53.70218 0.3026,-0.77553 0.6052,-1.55107 0.917,-2.3501 5.2044,-12.92058 12.5136,-23.55061 21.8955,-33.7749 0.7799,-0.87399 1.5598,-1.74797 2.3633,-2.64844 23.4872,-25.02805 54.8707,-31.66665 87.8669,-31.62622 z"
     fill="#FFFFFE"
     id="path2"
     style="fill:#ffffff" />
  <path
     d="m 404.81786,594.86629 2.32987,-0.007 c 2.56723,-0.006 5.1344,-0.006 7.70164,-0.005 1.84532,-0.003 3.69063,-0.006 5.53595,-0.0102 5.01136,-0.009 10.02271,-0.0112 15.03408,-0.0118 3.14035,-7.2e-4 6.28069,-0.003 9.42104,-0.005 10.98426,-0.009 21.96851,-0.0133 32.95278,-0.0126 10.188,6e-4 20.37595,-0.01 30.56395,-0.0257 8.77918,-0.0132 17.55834,-0.0184 26.33753,-0.0178 5.22818,2.5e-4 10.45631,-0.002 15.68448,-0.0132 55.061,-0.10479 55.061,-0.10479 72.62082,4.92952 l 2.86622,0.78516 C 634.06271,602.81691 641.47595,606.00313 649,610 l 2.72266,1.32032 c 7.69677,3.8774 14.47564,9.0309 21.39844,14.11718 4.9051,3.60044 9.88364,7.08872 14.8789,10.5625 6.37617,4.44264 12.71172,8.93384 19,13.5 7.21815,5.24076 14.50447,10.37717 21.82032,15.48047 4.74675,3.31238 9.47757,6.64411 14.17968,10.01953 6.42993,4.61359 12.91301,9.14974 19.39966,13.68311 7.5245,5.25966 15.02733,10.54945 22.52368,15.84912 3.52434,2.49098 7.05061,4.97922 10.57666,7.46777 1.41668,0.99999 2.83335,1.99999 4.25,3 l 2.125,1.5 23.375,16.5 2.12647,1.50098 c 1.41186,0.99664 2.82364,1.99339 4.23535,2.99023 3.61468,2.55223 7.23071,5.10249 10.84912,7.64942 7.89259,5.55818 15.75803,11.14544 23.53906,16.85937 3.80205,-3.48819 6.58144,-7.47009 9.5,-11.6875 1.07282,-1.53523 2.14574,-3.07038 3.21875,-4.60547 l 1.65235,-2.37255 c 2.52756,-3.62239 5.07871,-7.228 7.6289,-10.83448 1.00013,-1.41657 2.00013,-2.83324 3,-4.25 l 6,-8.5 1.49976,-2.12475 c 1.00069,-1.41757 2.0015,-2.83505 3.00244,-4.25244 2.49056,-3.52711 4.97892,-7.05573 7.46265,-10.58765 5.68943,-8.08459 11.43982,-16.12033 17.24756,-24.12036 3.52954,-4.87809 6.96563,-9.81024 10.35009,-14.7898 3.82249,-5.60855 7.75706,-11.11978 11.8125,-16.5625 l 1.47876,-1.99853 c 7.45458,-9.91465 15.37599,-16.48526 27.74781,-18.90772 11.27499,-1.34781 22.36997,0.78974 31.71093,7.40625 7.1923,5.86854 12.6822,12.98747 14.6875,22.1875 1.566,18.04496 -3.0944,28.33562 -13.3701,42.71387 -2.302,3.22879 -4.5717,6.47978 -6.8433,9.72998 -1.1963,1.71153 -2.3939,3.42214 -3.5928,5.13184 -3.59213,5.12285 -7.15798,10.26242 -10.6938,15.42431 -4.02798,5.87862 -8.09668,11.72745 -12.1875,17.5625 -9.70052,13.83678 -19.38283,27.68696 -28.9375,41.625 -4.5621,6.6545 -9.18111,13.26809 -13.81494,19.87281 -3.27786,4.67365 -6.54521,9.35425 -9.79834,14.04516 l -2.15161,3.10132 c -1.36957,1.97521 -2.73797,3.95124 -4.10498,5.92822 -8.99786,12.97213 -16.81392,23.14265 -33.19653,26.40015 -19.02103,2.35395 -33.28996,-8.1666 -47.87744,-18.78272 -4.47694,-3.2271 -9.02045,-6.35875 -13.55616,-9.50244 -1.96235,-1.36311 -3.92459,-2.72639 -5.88671,-4.08984 l -2.98584,-2.07373 c -3.00864,-2.09073 -6.01559,-4.18387 -9.02198,-6.27783 -8.37482,-5.83248 -16.74998,-11.66353 -25.16797,-17.4336 -6.66021,-4.56598 -13.27835,-9.19051 -19.89038,-13.82592 C 733.14748,766.00241 733.14748,766.00241 705,747 c -4.08572,3.80999 -7.10958,7.83986 -10.15625,12.50782 l -1.48664,2.2449 c -1.06422,1.60816 -2.12584,3.21804 -3.18514,4.82944 -2.90328,4.41552 -5.82656,8.8178 -8.74618,13.22253 l -1.84722,2.79053 c -6.57306,9.92364 -13.22789,19.79152 -19.89107,29.65478 -1.21596,1.80123 -2.43186,3.6025 -3.6477,5.40381 -4.29301,6.35939 -8.58822,12.71729 -12.88342,19.0752 -4.28258,6.33946 -8.56383,12.67982 -12.84388,19.02099 l -1.8092,2.67975 c -6.58951,9.76234 -13.15918,19.53729 -19.68298,29.34369 l -1.76711,2.65564 c -2.7472,4.13008 -5.49115,8.26227 -8.22972,12.39807 -5.34123,8.05149 -10.78983,16.00749 -16.38893,23.88188 C 577.13365,934.182 572.0589,941.79952 567,949.4375 c -1.43577,2.1633 -2.87211,4.32623 -4.30844,6.48915 -0.93622,1.41005 -1.87212,2.82032 -2.80768,4.23081 -2.6406,3.97929 -5.29594,7.94798 -7.96981,11.90504 l -1.72657,2.56079 c -1.00945,1.4951 -2.02224,2.98794 -3.03906,4.47803 -5.05151,6.89456 -2.54974,7.57023 3.60156,11.64868 1.47983,0.99773 2.95896,1.99648 4.4375,2.9961 l 2.38282,1.60498 c 4.09082,2.77627 8.13411,5.61982 12.17968,8.46142 1.69918,1.1915 3.3984,2.3829 5.09766,3.5742 l 2.57471,1.8062 c 2.56495,1.7982 5.13153,3.5941 7.69873,5.3891 7.80409,5.457 15.60262,10.9214 23.3789,16.418 13.29141,9.3934 26.637,18.7089 40,28 1.93101,1.3437 3.862,2.6875 5.79297,4.0313 3.74935,2.6089 7.5024,5.2123 11.25782,7.8125 4.83813,3.3551 9.65262,6.742 14.44921,10.1562 l 3.14844,2.2266 c 17.13685,12.8131 21.21465,30.5351 24.66016,50.4687 0.37212,2.0948 0.74551,4.1894 1.11998,6.2837 0.86448,4.8466 1.72103,9.6944 2.57356,14.5431 1.52517,8.665 3.08405,17.3238 4.64409,25.9825 3.26449,18.12 6.50116,36.2447 9.71772,54.3733 1.78592,10.0634 3.57815,20.1256 5.38581,30.1851 1.60444,8.9286 3.19727,17.8592 4.77626,26.7924 0.82779,4.6812 1.66086,9.3612 2.508,14.039 0.79174,4.3729 1.56763,8.7485 2.33218,13.1263 0.27973,1.5863 0.56485,3.1716 0.85629,4.7558 3.93262,21.4244 3.69992,40.1048 -7.72249,59.2235 -9.0524,12.3274 -21.74934,20.3248 -36.75,23.3125 -15.15264,2.2385 -29.30103,-1.2018 -42.25,-9.3125 -3.6102,-2.765 -6.8343,-5.7403 -10,-9 l -1.69921,-1.6367 c -8.03508,-8.3725 -11.50582,-18.8788 -13.59302,-30.0027 l -0.62926,-3.2499 c -2.95342,-15.4254 -5.65364,-30.8992 -8.37556,-46.3667 -0.79114,-4.4923 -1.58548,-8.9841 -2.37941,-13.4758 -1.32887,-7.5208 -2.65569,-15.042 -3.98101,-22.5634 -1.86368,-10.5766 -3.73134,-21.1526 -5.59966,-31.7284 -1.30361,-7.3801 -2.60626,-14.7603 -3.90874,-22.1405 -0.31333,-1.7754 -0.62668,-3.5507 -0.94005,-5.3261 -0.89194,-5.0532 -1.78328,-10.1065 -2.67369,-15.16 -0.26826,-1.5221 -0.53672,-3.0442 -0.80538,-4.5662 -0.59712,-3.3833 -1.19159,-6.7669 -1.7815,-10.1515 -0.41169,-2.3603 -0.82858,-4.7198 -1.25153,-7.0782 l -0.55759,-3.1802 -0.48567,-2.726 c -0.92403,-3.9406 -0.71251,-5.9945 -2.3934,-9.3157 -3.80387,-1.7203 -6.79127,-4.0867 -10.07032,-6.6445 -5.96348,-4.5652 -12.02849,-8.9186 -18.25,-13.125 -7.08945,-4.8 -14.07084,-9.7232 -20.9956,-14.7576 -5.01411,-3.6439 -10.05802,-7.2411 -15.1294,-10.8049 -5.865,-4.1237 -11.69425,-8.2932 -17.5,-12.5 -8.61526,-6.2404 -17.29751,-12.382 -26,-18.5 -8.70248,-6.118 -17.38456,-12.2598 -26,-18.5 -12.8849,-9.3314 -25.48562,-18.0055 -38.58785,-27.029 l -1.11918,1.6267 c -1.55369,3.4876 -3.67755,6.3269 -5.98047,9.3398 -4.67274,6.2418 -9.12823,12.6067 -13.5,19.0625 -10.68059,15.7559 -21.59484,31.3479 -32.51928,46.9353 -4.48836,6.4066 -8.95493,12.8281 -13.41822,19.2522 C 327.28538,1173.3733 327.28538,1173.3733 313,1192 l -1.98437,2.6328 c -7.99664,9.3914 -21.12494,13.629 -33.03906,14.8789 -10.97574,0.592 -20.96572,-1.4875 -31.4961,-4.3281 -1.53095,-0.4043 -3.06214,-0.8076 -4.59355,-1.2102 -4.11704,-1.0857 -8.23003,-2.186 -12.34205,-3.2905 -2.53324,-0.6798 -5.06733,-1.3562 -7.60175,-2.0316 -11.7798,-3.1392 -23.55156,-6.3078 -35.32129,-9.4845 -8.12197,-2.1916 -16.24507,-4.3789 -24.36811,-6.5664 -2.08734,-0.5621 -4.17466,-1.1243 -6.26197,-1.6866 -14.52781,-3.9132 -29.06075,-7.8067 -43.59919,-11.6801 -2.9922,-0.7972 -5.98429,-1.5949 -8.97634,-2.3927 -8.49178,-2.2638 -16.98386,-4.5265 -25.47791,-6.7818 -3.4664,-0.9212 -6.93205,-1.8451 -10.39752,-2.7698 -1.58398,-0.422 -3.16827,-0.8428 -4.75293,-1.2622 -7.88823,-2.0882 -15.74178,-4.2577 -23.54054,-6.661 l -1.98475,-0.6049 C 32.07229,1147.133 27.52572,1144.9955 23,1142 l -2.09375,-1.3555 c -13.55906,-8.257 -21.00267,-30.0472 -21.20141,-42.9384 -0.0114,-1.4565 -0.0318,-2.913 -0.0615,-4.3692 -0.34807,-17.0578 4.55586,-28.2238 16.29419,-40.7119 3.95248,-3.7753 8.12471,-6.3251 13.0625,-8.625 l 2.3711,-1.1211 c 11.93667,-5.2139 24.09898,-5.9007 36.71094,-3.25 l 2.61787,0.5385 c 10.42936,2.2023 20.70221,4.9844 30.98759,7.7701 2.14761,0.5764 4.2954,1.152 6.44336,1.7271 4.43807,1.1887 8.87534,2.3803 13.31202,3.5742 9.18672,2.4702 18.38172,4.909 27.57724,7.3463 2.98411,0.791 5.96798,1.583 8.95181,2.3751 11.46175,3.0416 22.92706,6.0695 34.39526,9.0867 l 1.96253,0.5163 c 6.97564,1.8351 13.95168,3.6687 20.9281,5.5008 l 3.54007,0.9302 c 2.17198,0.5707 4.34407,1.141 6.51629,1.7108 l 2.98221,0.7838 2.8559,0.75 c 3.86543,1.0332 7.71578,2.1193 11.56405,3.2145 2.37856,0.6631 2.37856,0.6631 5.28366,0.5467 1.94506,-2.2647 1.94506,-2.2647 3.875,-5.3125 0.80842,-1.2071 1.61702,-2.4142 2.42579,-3.6211 l 1.31884,-1.9917 c 2.44479,-3.6745 4.94787,-7.3092 7.44287,-10.9497 l 1.63501,-2.394 c 4.49975,-6.5832 9.05299,-13.1283 13.61499,-19.6685 5.9179,-8.4807 5.9179,-8.4807 11.6875,-17.0625 3.75509,-5.6945 7.65953,-11.2814 11.5625,-16.875 5.45978,-7.8253 10.88227,-15.67377 16.25,-23.5625 l 1.89502,-2.78491 c 1.20922,-1.77738 2.41837,-3.5548 3.62744,-5.33227 6.74168,-9.90097 13.56596,-19.74344 20.41504,-29.57032 7.26688,-10.42811 14.43627,-20.92036 21.58496,-31.42968 7.50964,-11.02882 15.12168,-21.98584 22.74707,-32.93482 4.8563,-6.97572 9.68421,-13.97018 14.49219,-20.97925 2.21397,-3.22663 4.44342,-6.44231 6.67578,-9.65625 4.79529,-6.91593 9.52853,-13.87394 14.25879,-20.83447 3.54877,-5.21596 7.13759,-10.40058 10.7627,-15.56372 2.92757,-4.19494 5.7934,-8.43164 8.66601,-12.66431 5.30734,-7.80396 10.66206,-15.57269 16.0625,-23.3125 7.18639,-10.30125 14.27069,-20.66947 21.33496,-31.05468 6.07024,-8.91489 12.20193,-17.78633 18.3689,-26.63453 6.18072,-8.86805 12.33266,-17.75408 18.42114,-26.68579 l 1.82715,-2.68017 c 2.73874,-4.02526 5.4608,-8.06062 8.16062,-12.11209 l 1.63816,-2.45807 L 530.00003,676 c -13.72525,-0.4415 -27.44877,-0.77844 -41.17967,-0.98443 -6.37733,-0.0989 -12.74979,-0.23285 -19.12431,-0.44892 -6.1602,-0.20747 -12.31574,-0.32024 -18.47917,-0.36931 -2.34289,-0.0349 -4.68554,-0.10318 -7.02642,-0.20621 -27.09294,0.62299 -26.92393,11.31575 -38.4678,27.19247 l -1.8418,2.64648 -1.81836,2.60742 -2.02539,2.90821 c -4.90644,7.04169 -9.82728,14.07326 -14.75219,21.10205 -6.43988,9.19411 -12.84593,18.4117 -19.25269,27.6289 -2.0128,2.8954 -4.02627,5.79033 -6.04004,8.68506 l -1.99853,2.87305 c -1.32478,1.90394 -2.64997,3.80758 -3.97559,5.71094 -3.44399,4.94634 -6.87869,9.89878 -10.29932,14.86132 l -2.14062,3.09766 c -1.33632,1.93414 -2.66988,3.87019 -4,5.80859 -8.16239,11.99199 -12.35516,17.69243 -21.76953,23.51172 -9.44278,4.62289 -21.23117,5.05727 -31.36719,2.46485 -10.72602,-4.24942 -19.88714,-11.13675 -24.75391,-21.77735 -4.01822,-9.54541 -4.39787,-22.07887 -0.75341,-31.85864 3.37721,-7.7747 8.54811,-14.76191 13.44091,-21.64136 1.23739,-1.75362 2.47435,-3.50754 3.71094,-5.26172 l 1.94043,-2.74755 c 3.34618,-4.7527 6.65851,-9.52885 9.97363,-14.30323 10.41126,-14.97761 20.8737,-29.91834 31.39844,-44.8164 4.50386,-6.37591 8.97841,-12.76982 13.39209,-19.2085 5.82056,-8.48975 11.72885,-16.91352 17.68018,-25.31201 1.55123,-2.19411 3.09584,-4.39275 4.63867,-6.59277 C 358.057,627.36881 361.02349,623.18108 364,619 l 1.27002,-1.79541 c 7.69401,-10.83033 14.90709,-19.0253 28.39713,-21.74164 3.73458,-0.51875 7.38966,-0.60486 11.15071,-0.59666 z"
     fill="#FEFEFE"
     id="path4"
     style="fill:#ffffff" />
  <path
     d="M 796.35156,464.75781 C 814.42743,480.06098 827.0401,500.03894 830,524 c 1.60596,29.09473 -4.33822,52.27486 -23.8125,74.75 -17.50619,18.52805 -41.19345,27.66372 -66.4375,28.5625 -25.78803,-0.65141 -49.39258,-10.24663 -67.375,-29.0586 -16.37404,-18.79519 -25.00091,-42.2223 -23.54785,-67.20507 2.17097,-25.7328 12.93413,-48.44632 32.77832,-65.25586 33.20029,-26.30037 81.07997,-27.01772 114.74609,-1.03516 z"
     fill="#FFFFFE"
     id="path6"
     style="fill:#ffffff" />
  <path
     d="m 1441.5,384 c 1.5102,1.32175 3.0108,2.65464 4.5,4 0.7309,0.57879 1.4618,1.15758 2.2148,1.75391 17.0299,13.85733 26.2004,34.81939 28.7852,56.24609 1.3471,21.32658 -3.1238,42.63506 -16,60 -0.7296,0.98613 -1.4592,1.97227 -2.2109,2.98828 -14.0796,17.92986 -34.6831,29.84742 -57.3594,32.73047 -24.7317,2.02812 -47.5047,-2.91416 -67.0781,-18.87891 C 1321.2376,511.36022 1311.1574,497.76667 1306,481 c -0.3184,-1.01707 -0.6368,-2.03414 -0.9648,-3.08203 -5.7763,-22.01358 -2.7343,-47.30617 8.7461,-66.96875 C 1326.2532,391.47414 1342.3505,378.64498 1364,371 c 0.9694,-0.34418 1.9388,-0.68836 2.9375,-1.04297 24.497,-7.08948 54.4846,-1.74586 74.5625,14.04297 z"
     fill="#FFFFFE"
     id="path8"
     style="fill:#ffffff" />
  <path
     d="m 1242,281 c 3.1167,0.63427 5.45,1.69659 8.168,3.33594 l 2.4287,1.45825 2.5908,1.58081 2.7119,1.64136 c 6.1987,3.77165 12.3148,7.65671 18.387,11.62793 6.1456,4.01299 12.3597,7.91109 18.5886,11.79321 9.6037,5.98616 19.1848,12.00611 28.7471,18.0581 4.3534,2.75419 8.7096,5.50395 13.0654,8.2544 1.6081,1.01561 3.2162,2.03123 4.8242,3.04687 l 2.0457,1.292 L 1345,344 c 3.9043,-7.58763 6.6274,-15.64966 9.25,-23.75 2.5948,-7.85866 5.2419,-15.69703 8,-23.5 l 0.9971,-2.90527 0.956,-2.67286 0.833,-2.37207 c 0.9639,-1.7998 1.7293,-3.53668 3.0807,-6.80346 1.4193,4.2283 3.7181,12.46146 5.1332,16.69116 l 1.1992,3.57227 c 2.6338,7.8798 5.1374,15.79037 7.5508,23.74023 2.9042,9.46042 5.9171,18.87338 9.1206,28.23706 C 1393,359.78566 1393,359.78566 1393,362 l -1.658,0.19605 c -28.8761,3.51265 -54.9944,12.21605 -73.7365,35.81958 -15.1622,19.95643 -22.4315,44.19375 -20.1485,69.2539 1.4033,9.64101 3.8729,18.97898 7.8086,27.91016 C 1306,497 1306,497 1306,499 c -7.2244,1.82205 -14.2389,2.55066 -21.6641,3.03516 l -3.6104,0.25328 c -3.7831,0.26441 -7.5667,0.51973 -11.3505,0.77406 -3.7908,0.25938 -7.5814,0.52072 -11.3719,0.78477 -2.3516,0.16334 -4.7033,0.32377 -7.0553,0.48087 -5.3635,0.36815 -10.6354,0.8532 -15.9478,1.67186 -1.9783,0.0625 -3.9584,0.0869 -5.9375,0.0625 l -2.9023,-0.0273 L 1224,506 v -3 c 2.1602,-2.01563 2.1602,-2.01563 5.0625,-4.25 14.6041,-11.20624 27.5226,-26.72717 40.9375,-36.75 -6.95,-2.47461 -13.9163,-4.54893 -21.0854,-6.28809 -14.5009,-3.53678 -28.9025,-7.52067 -43.2349,-11.68457 -5.0626,-1.41344 -10.1527,-2.71452 -15.2422,-4.02734 -19.8084,-5.1348 -19.8084,-5.1348 -24.4375,-7 l -1,-2 c 4.6247,-2.1287 9.3434,-2.95212 14.3125,-3.875 6.7729,-1.25931 13.448,-2.78521 20.1233,-4.48161 8.9044,-2.25379 17.8613,-4.28054 26.8142,-6.33089 2.6333,-0.6044 5.2665,-1.20923 7.8996,-1.81441 1.6204,-0.37227 3.2408,-0.74404 4.8614,-1.1152 3.3375,-0.76561 6.669,-1.5448 9.989,-2.38289 -2.1859,-1.73117 -4.3737,-3.45996 -6.5625,-5.1875 l -1.8457,-1.46289 c -3.1265,-2.46484 -6.2731,-4.83519 -9.5566,-7.08789 -9.2743,-8.63595 -21.5506,-17.41142 -31.0098,-25.29126 -4.1943,-3.47129 -8.4138,-6.89254 -12.7324,-10.20874 -3.0712,-2.35963 -6.1207,-4.74638 -9.168,-7.13672 l -1.8152,-1.42285 c -4.7118,-3.70509 -9.3356,-7.50666 -13.9543,-11.32715 -1.9654,-1.5645 -3.3833,-2.84441 -5.4601,-4.74964 C 1155.03,335.281 1153.4675,334.28379 1152,332 c 43.357,4.13254 88.5782,19.0085 129,24 -3.4862,-7.16846 -7.0547,-14.23389 -11.0625,-21.125 -2.9959,-5.15512 -5.7458,-10.38707 -8.375,-15.73828 -4.4021,-8.83717 -9.0943,-17.48905 -14.2422,-25.91406 C 1242,284.26627 1242,284.26627 1242,281 Z"
     fill="#FEFEFE"
     id="path10"
     style="fill:#ffffff" />
  <g
     aria-label="?"
     transform="rotate(27.560529,1276.0854,318.6454)"
     id="text451"
     style="white-space:pre;shape-inside:url(#rect453);fill:#ffffff;stroke:#ffffff">
    <path
       d="m 1533.0838,201.0473 q 0,5.51146 -1.6166,9.84716 -1.6168,4.3357 -4.6298,8.01001 -3.0128,3.67432 -9.8471,8.6714 l -5.8789,4.3357 q -5.291,3.82128 -7.863,8.0835 -2.5722,4.18871 -2.6455,9.18578 h -12.8602 q 0.1474,-5.07055 1.5432,-8.89184 1.4698,-3.82129 3.7478,-6.76074 2.2782,-2.93946 5.1441,-5.21755 2.8659,-2.35156 5.8054,-4.40918 2.9395,-2.1311 5.732,-4.18871 2.8659,-2.13111 5.0705,-4.70313 2.2046,-2.57203 3.5273,-5.80543 1.3964,-3.23339 1.3964,-7.56909 0,-8.37744 -5.7321,-13.22754 -5.6584,-4.8501 -15.9466,-4.8501 -10.288,0 -16.3138,5.14405 -6.026,5.14404 -7.0547,14.10938 l -13.5215,-0.88184 q 1.9105,-14.5503 11.4639,-22.33985 9.5531,-7.78955 25.2793,-7.78955 16.3874,0 25.7936,7.78955 9.4063,7.71606 9.4063,21.45802 z m -45.9291,75.83792 v -14.77077 h 14.33 v 14.77077 z"
       style="font-size:96px;-inkscape-font-specification:'sans-serif, Normal';fill:#ffffff;stroke-width:1.56771"
       id="path522" />
  </g>
</svg>
