<?xml version="1.0" encoding="UTF-8" standalone="no"?>
<svg
   version="1.1"
   width="4444"
   height="4002"
   id="svg298"
   sodipodi:docname="followme.svg"
   inkscape:export-filename="followme.svg"
   inkscape:export-xdpi="96"
   inkscape:export-ydpi="96"
   xmlns:inkscape="http://www.inkscape.org/namespaces/inkscape"
   xmlns:sodipodi="http://sodipodi.sourceforge.net/DTD/sodipodi-0.dtd"
   xmlns="http://www.w3.org/2000/svg"
   xmlns:svg="http://www.w3.org/2000/svg">
  <defs
     id="defs302" />
  <sodipodi:namedview
     id="namedview300"
     pagecolor="#ffffff"
     bordercolor="#000000"
     borderopacity="0.25"
     inkscape:showpageshadow="2"
     inkscape:pageopacity="0.0"
     inkscape:pagecheckerboard="0"
     inkscape:deskcolor="#d1d1d1"
     showgrid="false" />
  <path
     d="m 354.20708,1056.2692 c 6.67655,0.1801 13.35409,0.307 20.03191,0.4292 l 2.27538,0.042 c 22.69941,0.4103 45.40177,0.3791 68.10415,0.3864 2.37412,0 4.74824,0 7.12236,0 13.95507,0.01 27.91013,0 41.86521,0 9.61289,0 19.22578,0 28.83867,-2e-4 l 2.11883,3e-4 c 2.84917,6e-4 5.69834,0 8.54751,0 26.33685,0.01 52.6737,0.01 79.01056,0 25.33534,0 50.67068,0 76.00603,0 l 4.79687,2e-4 c 6.42703,3e-4 12.85407,6e-4 19.2811,10e-4 17.95624,9e-4 35.91248,0 53.86871,0 l 2.47627,1e-4 c 25.97996,4e-4 51.95992,-7e-4 77.93988,0 l 2.54811,-2e-4 c 13.65102,0 27.30203,0 40.95304,0 54.22291,0 108.44582,0 162.66873,2e-4 13.691,0 27.3819,0 41.0729,0 l 2.555,2e-4 c 25.9907,0 51.9815,0 77.9723,0 h 2.4728 c 17.9131,-3e-4 35.8262,-9e-4 53.7393,0 6.4086,-3e-4 12.8172,-6e-4 19.2258,-9e-4 1.5941,-10e-5 3.1881,-2e-4 4.7821,-3e-4 25.3559,0 50.7118,2e-4 76.0676,0 26.2253,0 52.4506,0 78.6758,0 2.8187,-6e-4 5.6373,0 8.4559,0 l 2.096,-4e-4 c 10.2596,0 20.5191,-10e-4 30.7787,0 11.4235,0 22.847,0 34.2704,0 5.747,0 11.494,0 17.241,4e-4 5.2386,0 10.4771,0 15.7157,0 1.8726,0 3.7453,-3e-4 5.6179,0 11.3744,0.014 22.6915,-0.2916 34.05,-0.903 5.8561,-0.3094 11.6882,-0.3904 17.5504,-0.2266 l 3.418,0.086 c 9.9468,0.4478 19.4113,2.2656 29.1182,4.3877 2.2825,0.4876 4.5682,0.9326 6.8623,1.3623 23.2391,4.9266 39.3657,12.6395 58.914,22.2265 l 2.2442,1.1426 c 27.1208,16.9785 49.3681,31.9133 65.3808,54.5449 1.7012,2.4073 3.4175,4.6596 5.3516,6.8907 3.4935,4.157 6.2739,8.764 9.1484,13.3594 1.2486,1.9792 2.4973,3.9583 3.7461,5.9375 l 1.9214,3.0546 c 2.9484,4.6799 5.9223,9.3434 8.895,14.0079 1.1668,1.8332 2.3335,3.6665 3.5,5.5 l 1.75,2.75 c 5.25,8.25 5.25,8.25 6.9995,10.9992 1.1683,1.8358 2.3366,3.6716 3.5049,5.5073 2.8928,4.5454 5.7848,9.0912 8.6753,13.638 6.175,9.7115 12.3637,19.4141 18.5703,29.1055 6.7803,10.587 13.5374,21.1886 20.2822,31.7983 2.9046,4.5681 5.8113,9.1348 8.7178,13.7017 1.1667,1.8333 2.3334,3.6666 3.5,5.5 l 1.75,2.75 c 75.25,118.25 75.25,118.25 76.9995,120.9992 1.1683,1.8358 2.3366,3.6716 3.5049,5.5073 2.8928,4.5454 5.7848,9.0912 8.6753,13.638 6.175,9.7115 12.3637,19.4141 18.5703,29.1055 6.7803,10.587 13.5374,21.1886 20.2822,31.7983 2.9046,4.5681 5.8113,9.1348 8.7178,13.7017 1.1667,1.8333 2.3334,3.6666 3.5,5.5 l 1.75,2.75 c 75.25,118.25 75.25,118.25 76.9995,120.9992 1.1683,1.8358 2.3366,3.6716 3.5049,5.5073 2.8928,4.5454 5.7848,9.0912 8.6753,13.638 6.175,9.7115 12.3637,19.4141 18.5703,29.1055 6.7803,10.587 13.5374,21.1886 20.2822,31.7983 2.9046,4.5681 5.8113,9.1348 8.7178,13.7017 1.1667,1.8333 2.3334,3.6666 3.5,5.5 l 1.75,2.75 c 75.25,118.25 75.25,118.25 76.9995,120.9992 1.1683,1.8358 2.3366,3.6716 3.5049,5.5073 2.8928,4.5454 5.7848,9.0912 8.6753,13.638 6.175,9.7115 12.3637,19.4141 18.5703,29.1055 6.7803,10.587 13.5374,21.1886 20.2822,31.7983 2.9046,4.5681 5.8113,9.1348 8.7178,13.7017 1.1667,1.8333 2.3334,3.6666 3.5,5.5 l 1.75,2.75 c 5.25,8.25 5.25,8.25 7.0003,11.0004 1.1657,1.8318 2.3315,3.6635 3.4975,5.4952 2.9321,4.6063 5.862,9.2141 8.7874,13.8247 7.7421,12.1955 15.565,24.3356 23.4648,36.4297 l 0.1201,-3.4009 C 2319.3906,1946.2737 2331.8177,1856.6072 2366,1746 l 0.7578,-2.3106 c 14.4405,-44.0177 32.0418,-86.6866 52.5352,-128.2285 1.6818,-3.4099 3.351,-6.8258 5.0195,-10.2422 6.5559,-13.3474 13.5278,-26.3808 20.9766,-39.25 1.7956,-3.1156 3.5672,-6.244 5.3359,-9.375 7.2343,-12.7526 14.834,-25.1609 22.9375,-37.3789 3.0095,-4.5382 5.9011,-9.1373 8.75,-13.7773 4.1717,-6.755 8.6966,-13.1934 13.3692,-19.6085 1.3704,-1.9013 2.7145,-3.8189 4.0527,-5.7431 16.2025,-23.2819 33.8014,-45.6643 52.1885,-67.2569 2.8353,-3.3358 5.5969,-6.7186 8.3271,-10.1415 4.4937,-5.532 9.3486,-10.6945 14.2588,-15.8548 3.1181,-3.2796 6.1756,-6.5884 9.1397,-10.0085 3.3934,-3.9111 7.0176,-7.5254 10.7265,-11.1367 2.0689,-2.1182 4.0096,-4.2574 5.9414,-6.4961 3.7001,-4.2666 7.6175,-8.2735 11.6211,-12.2539 l 2.0137,-2.0254 c 3.9487,-3.9411 8.0154,-7.6759 12.2385,-11.3201 2.3807,-2.0937 4.5992,-4.3212 6.8103,-6.592 3.5118,-3.5492 7.0901,-6.9197 10.8828,-10.1641 2.5232,-2.188 4.9728,-4.4489 7.4297,-6.7109 4.44,-4.0503 9.0069,-7.8804 13.6836,-11.6524 3.5006,-2.8815 6.9065,-5.8601 10.3164,-8.8476 6.4284,-5.6102 13.0263,-10.9397 19.7818,-16.149 2.059,-1.5948 4.106,-3.2042 6.1518,-4.8159 9.6847,-7.6135 19.525,-14.9643 29.5645,-22.103 2.1238,-1.5105 4.2428,-3.0276 6.3613,-4.5454 C 2767.2766,1220.52 2798.7354,1201.0663 2831,1183 l 2.6499,-1.4854 c 39.7191,-22.1475 80.9219,-41.1886 123.3501,-57.5147 l 3.4746,-1.3403 c 37.0766,-14.1952 74.9998,-26.0967 113.5254,-35.6597 l 2.4436,-0.6074 c 47.2927,-11.7113 95.2639,-19.8456 143.7439,-24.6426 l 2.3385,-0.234 c 5.8196,-0.5739 11.6441,-1.0597 17.474,-1.516 l 3.2729,-0.2642 c 22.3943,-1.7608 44.7206,-2.0805 67.1763,-2.0514 3.8459,0 7.6914,0 11.5371,-0.02 35.7401,-0.168 71.3134,1.4667 106.8262,5.6486 l 2.7505,0.3158 c 64.9188,7.4733 129.3256,20.9646 191.437,41.3717 l 2.5594,0.8367 c 25.8649,8.4601 51.3648,17.5825 76.4406,28.1633 l 2.0685,0.8718 c 18.7586,7.9219 37.21,16.4129 55.4706,25.4212 3.4099,1.6819 6.8258,3.351 10.2422,5.0196 13.3474,6.5558 26.3807,13.5277 39.25,20.9765 3.1156,1.7956 6.244,3.5673 9.375,5.336 12.7526,7.2342 25.1609,14.8339 37.3789,22.9375 4.5382,3.0094 9.1373,5.901 13.7773,8.75 6.7549,4.1717 13.1933,8.6965 19.6084,13.3691 1.9014,1.3704 3.819,2.7146 5.7432,4.0527 23.2819,16.2025 45.6643,33.8014 67.2568,52.1885 3.3358,2.8353 6.7186,5.597 10.1416,8.3271 5.532,4.4938 10.6945,9.3486 15.8548,14.2588 3.2796,3.1181 6.5884,6.1756 10.0085,9.1397 3.9111,3.3934 7.5254,7.0176 11.1367,10.7266 2.1181,2.0688 4.2574,4.0095 6.4961,5.9414 4.2665,3.7 8.2734,7.6174 12.2539,11.6211 l 2.0254,2.0136 c 3.941,3.9487 7.6759,8.0154 11.3201,12.2385 2.0936,2.3807 4.3211,4.5992 6.592,6.8104 3.5492,3.5117 6.9197,7.09 10.1641,10.8828 2.188,2.5231 4.4489,4.9727 6.7109,7.4297 4.0502,4.44 7.8804,9.0068 11.6524,13.6835 2.8815,3.5006 5.8601,6.9065 8.8476,10.3165 5.6102,6.4283 10.9397,13.0263 16.1489,19.7817 1.5948,2.059 3.2042,4.106 4.816,6.1518 7.6135,9.6847 14.9642,19.525 22.103,29.5645 1.5104,2.1238 3.0275,4.2428 4.5454,6.3613 21.4917,30.1047 40.9454,61.5635 59.0117,93.8282 l 1.4854,2.6498 c 22.1475,39.7191 41.1886,80.922 57.5146,123.3502 l 1.3404,3.4746 c 14.1951,37.0765 26.0967,74.9997 35.6596,113.5254 l 0.6075,2.4435 c 4.7846,19.3211 8.9654,38.7446 12.6425,58.3065 l 0.5121,2.7132 c 1.787,9.5448 3.3763,19.0691 4.4957,28.7164 l 0.2961,2.4445 c 0.4557,3.7736 0.8704,7.541 1.1971,11.328 0.7176,6.9029 1.8015,11.4263 7.085,16.2393 1.6961,1.303 3.4148,2.5776 5.164,3.8086 l 2.8906,2.4257 2.3594,1.8868 c 4.3145,3.4918 8.5471,7.0632 12.75,10.6875 4.9816,4.2932 10.0262,8.4923 15.1328,12.6367 4.0544,3.3418 8.0344,6.768 12.0098,10.2031 3.2343,2.7904 6.5161,5.4976 9.8574,8.1602 4.1344,3.7991 7.5077,8.0744 10.9375,12.5 2.0449,2.5657 2.0449,2.5657 4.5274,4.9296 13.321,13.5058 23.6941,32.5422 31.6425,49.6494 0.5896,1.2688 1.1871,2.5339 1.793,3.795 8.6754,18.0784 13.7214,37.4227 17.0996,57.126 l 0.6485,3.582 c 9.028,55.1495 -5.231,110.2083 -33.6485,157.418 l -1.5039,2.5351 c -5.0585,8.334 -11.1067,15.6585 -17.4922,22.9844 -3.4467,3.9621 -6.7165,8.0525 -9.9687,12.1758 -2.1543,2.4395 -4.462,4.3211 -7.0352,6.3047 l -2.25,2.3125 c -3.0911,3.0208 -6.4004,5.5539 -9.8594,8.1367 -1.9965,1.4226 -1.9965,1.4226 -2.8906,3.5508 h -3 l -1,3 c -1.8825,1.5305 -1.8825,1.5305 -4.3398,3.1445 l -2.7246,1.8027 -2.8731,1.8653 -2.7676,1.83 c -15.6486,10.2885 -31.297,18.736 -49.0966,24.6057 -2.5148,0.86 -4.9955,1.7976 -7.4834,2.7322 -32.7822,11.9583 -71.291,14.688 -105.7149,9.0196 l -2.6616,-0.4229 c -11.0456,-1.7826 -21.7557,-3.8787 -32.3384,-7.5771 -1.5555,-0.5106 -3.1115,-1.0196 -4.6679,-1.5274 -10.3109,-3.4204 -19.9573,-7.4425 -29.5464,-12.5381 -2.7507,-1.4396 -5.5531,-2.7713 -8.3482,-4.122 -4.5161,-2.252 -8.4151,-4.7753 -12.4375,-7.8125 -1.6628,-1.0065 -3.3298,-2.0059 -5,-3 -7.133,-4.2952 -13.268,-9.5391 -19.5234,-14.9883 -2.9449,-2.5646 -5.9415,-5.0541 -8.9766,-7.5117 -4.8459,-3.9338 -9.581,-7.9845 -14.3086,-12.0586 -3.5246,-3.031 -7.0819,-6.0114 -10.6914,-8.9414 -4.8459,-3.9338 -9.581,-7.9845 -14.3086,-12.0586 -3.5246,-3.031 -7.0819,-6.0114 -10.6914,-8.9414 -4.8459,-3.9338 -9.581,-7.9845 -14.3086,-12.0586 -3.5246,-3.031 -7.0819,-6.0114 -10.6914,-8.9414 -4.8459,-3.9338 -9.581,-7.9845 -14.3086,-12.0586 -3.5246,-3.031 -7.0819,-6.0114 -10.6914,-8.9414 -4.8394,-3.9286 -9.5697,-7.9721 -14.2888,-12.0433 -4.5315,-3.9001 -9.1392,-7.6873 -13.8088,-11.4216 -5.1358,-4.3507 -9.233,-9.236 -13.3399,-14.5351 -2.0449,-2.5658 -2.0449,-2.5658 -4.5273,-4.9297 -13.3211,-13.5058 -23.6941,-32.5422 -31.6426,-49.6495 -0.5896,-1.2687 -1.1871,-2.5338 -1.793,-3.7949 C 3866.4243,2124.0475 3861.3782,2104.7032 3858,2085 l -0.6484,-3.5821 c -2.2058,-13.4747 -2.459,-27.263 -2.2639,-40.8909 0.8935,-69.4195 -18.7414,-139.298 -46.0877,-202.5271 -2.089,8.0822 -4.1025,16.1093 -5.5039,24.3438 -1.9226,10.2944 -4.9583,20.347 -8.4453,30.207 l -0.9113,2.5895 c -4.3531,12.3394 -8.7779,24.6535 -13.2042,36.9668 -0.7596,2.1133 -1.5189,4.2267 -2.2782,6.34 -6.8816,19.1493 -13.825,38.2745 -20.8656,57.366 -6.0992,16.5392 -12.1163,33.107 -18.104,49.6869 -6.9471,19.2361 -13.9688,38.4426 -21.0625,57.6251 -7.7379,20.9255 -15.3303,41.8997 -22.8515,62.9038 -7.5198,20.9991 -15.1515,41.9524 -22.8903,62.872 -7.0277,19.0001 -13.943,38.0381 -20.7614,57.1143 -4.907,13.7126 -9.9717,27.3616 -15.1218,40.9849 h -2 l -0.375,2.6875 c -0.5691,3.0163 -1.3911,5.5157 -2.625,8.3125 h -2 l -0.4375,2.875 C 3629,2344 3629,2344 3628,2346 h -2 l -0.3125,2.6875 c -0.7221,3.4791 -1.8111,5.3277 -3.6875,8.3125 -1.1911,2.0187 -2.3784,4.0396 -3.5625,6.0625 l -1.8164,3.0976 c -7.3924,10.11 -13.5649,22.238 -20.1211,31.6524 l -1.2226,1.8105 c -17.3305,25.0637 -29.5027,35.8622 -21.5274,54.1895 0.6704,1.1527 1.3403,2.3057 2.0098,3.4589 1.389,2.3918 2.7798,4.7825 4.1719,7.1724 3.2067,5.5087 6.386,11.0333 9.5683,16.5562 1.2499,2.1667 2.4999,4.3334 3.75,6.5 112.5,195 112.5,195 114.377,198.2534 1.2434,2.1553 2.4869,4.3105 3.7304,6.4658 2.8872,5.0041 5.7741,10.0085 8.6596,15.0136 1.0092,1.7506 2.0186,3.5011 3.0279,5.2515 1.2568,2.1796 2.5133,4.3592 3.7696,6.5391 l 1.748,3.0312 1.7188,2.9834 c 1.1567,1.9935 2.3236,3.981 3.5,5.9629 17.9741,32.6343 39.0467,66.8759 49.5937,99.7491 1.5786,5.1984 3.3726,10.1801 5.5,15.1875 5.5012,13.1718 8.7484,27.2854 12.1008,41.1276 l 0.7117,2.9349 0.656,2.7258 c 1.581,6.3951 3.3576,12.7038 5.293,18.9985 7.3254,23.9 12.9579,47.7917 17.6597,72.3319 1.0155,5.2744 2.0545,10.5442 3.0908,15.8146 1.6146,8.2224 3.2218,16.4462 4.8209,24.6716 3.3917,17.446 6.8295,34.8826 10.2791,52.3172 1.2278,6.2053 2.455,12.4106 3.6823,18.6159 0.3127,1.5811 0.6254,3.1622 0.9382,4.7433 3.5456,17.9255 7.0805,35.8532 10.6138,53.7812 1.3072,6.6324 2.6145,13.2647 3.9218,19.8971 0.3257,1.6525 0.6514,3.305 0.9771,4.9576 3.575,18.1374 7.1528,36.2742 10.7314,54.4109 l 0.9053,4.5883 c 1.2026,6.0953 2.4053,12.1907 3.608,18.2861 3.1568,15.9994 6.313,31.9989 9.4691,47.9984 1.3524,6.8557 2.7047,13.7114 4.0571,20.5671 l 0.4508,2.2851 c 4.0727,20.6456 8.1456,41.2911 12.2186,61.9366 l 1.8143,9.1965 0.4536,2.2993 c 2.1096,10.6933 4.2191,21.3867 6.3285,32.0801 1.3539,6.8636 2.7079,13.7271 4.0619,20.5906 l 0.4516,2.2892 c 3.527,17.879 7.0546,35.7579 10.5835,53.6366 l 0.944,4.7824 c 1.4152,7.1698 2.8304,14.3395 4.2459,21.5092 3.0815,15.6079 6.1611,31.2162 9.2334,46.8259 1.185,6.0206 2.3705,12.041 3.5561,18.0615 0.2919,1.4826 0.5839,2.9651 0.8758,4.4477 3.7259,18.9225 7.4812,37.8387 11.2822,56.7463 1.7633,8.7722 3.5154,17.5467 5.2643,26.3217 1.142,5.725 2.2904,11.4485 3.4557,17.1688 8.714,42.7986 8.714,42.7986 8.4152,60.8289 -0.037,3.2366 0.068,6.4654 0.1708,9.7002 1.2352,51.8339 -21.1546,103.874 -53.1973,143.5879 l -2.4062,3.0039 c -4.0391,4.9834 -8.0381,9.7438 -13.0742,13.7656 -1.77,1.3894 -1.77,1.3894 -4.1446,3.8555 -2.3357,2.3356 -4.7982,4.3135 -7.375,6.375 l -2.3125,2.375 C 3884.8572,3957 3884.8572,3957 3881,3957 v 2 c -1.6797,1.289 -1.6797,1.289 -3.875,2.625 l -2.1797,1.3515 C 3873,3964 3873,3964 3871,3964 v 2 l -1.6172,0.8828 c -4.1619,2.2898 -8.2678,4.6382 -12.3203,7.1172 -8.0581,4.8472 -16.263,8.581 -25.0742,11.8632 -2.3825,0.9063 -4.6786,1.8774 -6.9883,2.9493 -2.9397,1.1636 -4.8776,1.4713 -8,1.1875 v 2 l -1.7578,0.3671 -2.3672,0.5079 -2.3203,0.4921 c -2.6171,0.611 -2.6171,0.611 -5.3545,1.5782 -53.7988,17.7304 -116.56,7.8025 -166.4502,-16.8203 -11.4456,-5.7977 -22.2018,-12.7739 -32.4765,-20.4415 -1.8915,-1.4007 -3.7979,-2.7191 -5.7735,-3.996 -2.1621,-1.4595 -3.686,-2.8507 -5.5,-4.6875 -1.0988,-0.9438 -2.2036,-1.8807 -3.3125,-2.8125 C 3578.7486,3934.9258 3566.6442,3922.2148 3557,3908 v -2 h -2 c -1.289,-1.6797 -1.289,-1.6797 -2.625,-3.875 l -1.3515,-2.1797 C 3550,3898 3550,3898 3550,3896 h -2 l -1,-5 h -2 l -1.3203,-2.6758 c -0.6011,-1.2125 -1.2027,-2.4247 -1.8047,-3.6367 l -0.9604,-1.9375 c -1.9066,-3.819 -3.914,-7.5469 -6.0396,-11.25 -2.8754,-5.1927 -4.8176,-10.5526 -6.7226,-16.1641 -0.9737,-2.8187 -2.045,-5.5331 -3.2149,-8.2734 -4.592,-11.3388 -6.8,-23.6611 -9.1318,-35.6185 -0.2968,-1.5017 -0.5939,-3.0033 -0.8915,-4.5048 -0.8036,-4.0613 -1.6011,-8.1239 -2.3974,-12.1866 -0.8537,-4.3498 -1.7132,-8.6984 -2.572,-13.0471 -1.4706,-7.4506 -2.9375,-14.9019 -4.4018,-22.3537 -2.1217,-10.7967 -4.249,-21.5923 -6.3777,-32.3876 -4.2212,-21.4089 -8.4342,-42.8195 -12.6445,-64.2306 -1.5084,-7.6711 -3.0175,-15.3421 -4.527,-23.013 -3.6974,-18.7908 -7.3946,-37.5816 -11.0872,-56.3733 -8.9325,-45.4563 -17.9183,-90.902 -26.9066,-136.3473 -9.9433,-50.2745 -19.8748,-100.5511 -29.7552,-150.838 -6.5949,-33.5656 -13.2096,-67.1273 -19.8424,-100.6855 l -0.5651,-2.8589 c -3.7311,-18.8779 -7.4632,-37.7555 -11.1975,-56.6328 -1.3979,-7.0665 -2.7954,-14.1331 -4.1926,-21.1998 -0.8102,-4.0973 -1.6206,-8.1946 -2.4316,-12.2918 -1.5973,-8.0701 -3.191,-16.1408 -4.7768,-24.2132 -0.8393,-4.267 -1.6886,-8.5318 -2.5448,-12.7954 -0.5652,-2.8211 -1.1246,-5.6434 -1.6829,-8.4659 -0.3838,-1.9303 -0.7749,-3.8591 -1.1664,-5.7878 -4.5639,-32.2193 -13.2573,-52.7353 -27.3447,-77.2309 -1.2484,-2.1643 -2.4971,-4.3283 -3.7461,-6.4922 -2.5146,-4.3585 -5.0274,-8.718 -7.539,-13.0782 -6.0224,-10.4517 -12.0616,-20.8926 -18.1524,-31.3046 -5.4217,-9.27 -10.7645,-18.5834 -16.0817,-27.9135 -5.2012,-9.1244 -10.4611,-18.2129 -15.7642,-27.2784 -6.1542,-10.524 -12.2403,-21.087 -18.3255,-31.6509 -3.1279,-5.4288 -6.2597,-10.8554 -9.3911,-16.2822 -1.25,-2.1667 -2.5,-4.3334 -3.75,-6.5 l -1.875,-3.25 L 3167,2677 c -4.9884,10.4267 -9.1307,21.1965 -13.3828,31.9375 -0.8379,2.1102 -1.676,4.2204 -2.5145,6.3304 -1.7996,4.53 -3.5978,9.0606 -5.3949,13.5917 -4.6151,11.635 -9.2399,23.2662 -13.8662,34.8968 l -1.5153,3.81 c -10.4367,26.2416 -20.9563,52.4495 -31.5031,78.6469 -15.2315,37.834 -30.3781,75.7006 -45.4482,113.5992 -22.462,56.4841 -22.462,56.4841 -32.875,82.25 l -1.401,3.4668 c -1.7038,4.2158 -3.4077,8.4316 -5.1119,12.6472 -8.8146,21.8052 -17.5886,43.6267 -26.3621,65.4485 l -1.3757,3.4214 c -16.8437,41.8941 -33.5788,83.8308 -50.2644,125.788 l -1.3125,3.2999 c -2.0757,5.2191 -4.15,10.4388 -6.221,15.6597 -3.2241,8.1238 -6.4512,16.2449 -9.7712,24.33 l -1.4253,3.4894 c -11.2969,29.8899 -20.7746,57.9632 -35.2549,84.3866 -131.3523,207.1389 -307.2972,501.3621 -524.9375,611.0625 l -2.3215,0.7065 c -2.8977,0.8302 -5.8061,1.5422 -8.741,2.231 l -2.1369,0.5112 c -16.2887,3.775 -32.3627,4.0773 -49.0071,3.9383 -2.7287,-0.016 -5.4572,-0.01 -8.186,0 -14.8132,0.042 -29.1473,-0.3815 -43.67,-3.4532 l -2.9226,-0.6019 c -2.2135,-0.4926 -4.3922,-1.0433 -6.5774,-1.6481 l -2.3225,-0.627 c -8.9242,-2.4909 -17.5571,-5.7471 -26.1775,-9.123 l -3.2617,-1.2422 c -31.5077,-14.9915 -74.887,-45.3408 -93.4258,-71.6328 l -2.1797,-3.086 -2.1328,-3.039 -1.6953,-2.2891 c -5.7176,-7.8168 -10.3683,-16.2877 -15.146,-24.6961 -0.9298,-1.6169 -1.8943,-3.214 -2.8696,-4.8039 -1.292,-2.216 -2.2486,-4.3795 -3.1641,-6.7734 -1.4274,-3.6821 -2.9317,-7.3134 -4.5,-10.9375 -19.0614,-45.958 -22.0858,-97.4655 -9.625,-145.5 l 0.7813,-3.3594 c 1.2853,-5.5044 2.866,-10.6455 5.0742,-15.8477 1.1125,-2.7149 2.0872,-5.4616 3.0579,-8.2297 3.6932,-10.383 8.7417,-19.9456 14.0866,-29.5632 l 1.0186,-1.8492 c 2.4463,-4.3737 5.1434,-8.5263 7.9814,-12.6508 l 1.4392,-2.0931 c 4.7375,-6.8008 9.9032,-13.216 15.135,-19.6384 2.2099,-2.7411 4.3519,-5.5325 6.4883,-8.331 2.5992,-3.4012 5.2081,-6.7909 7.8633,-10.1485 l 1.49,-1.8845 c 0.9416,-1.1886 1.8849,-2.3757 2.8306,-3.561 2.1243,-2.6826 4.1153,-5.3628 5.9489,-8.2537 l 1.8047,-2.5898 h 2 l 0.8008,-1.7383 c 1.264,-2.384 2.7071,-4.3392 4.3867,-6.4492 l 1.8985,-2.4024 1.914,-2.4101 c 2.3406,-2.9944 4.6706,-5.997 7,-9 l 2.3828,-3.0704 c 0.852,-1.1012 1.7035,-2.2028 2.5547,-3.3046 l 1.2825,-1.658 c 3.5267,-4.5833 6.8819,-9.2712 10.1863,-14.0178 3.4668,-3.0631 5.7175,-6.1296 8.0976,-9.4532 l 1.4815,-1.9777 1.5771,-2.0808 1.628,-2.1609 c 3.7802,-4.9908 7.6929,-9.8519 11.7041,-14.6595 3.0074,-3.7383 5.7462,-7.6539 8.4765,-11.5976 7.7328,-8.7869 13.2571,-16.9828 20.0039,-25.332 4.1019,-4.7745 7.9433,-9.6908 11.6875,-14.75 4.1304,-5.5738 8.3864,-10.992 12.8321,-16.3204 3.0074,-3.7383 5.7462,-7.6539 8.4765,-11.5976 4.1357,-4.0943 6.8931,-8.6103 10.1289,-12.5195 3.741,-4.3744 7.3682,-8.8104 10.875,-13.375 l 2.3985,-3.1172 c 1.5622,-2.1104 2.9895,-4.1823 4.3906,-6.3907 3.847,-4.4833 6.9809,-9.0638 10.3359,-13.1171 3.8105,-4.4525 7.4937,-8.9762 11.0625,-13.625 l 1.3008,-1.6856 c 4.5069,-5.8251 8.0764,-10.0845 13.0117,-16.5644 2.5783,-3.2745 5.0882,-6.5161 7.3203,-10.0391 3.4777,-3.3012 6.094,-6.969 8.8047,-10.5234 l 1.8633,-2.3594 2.1367,-2.7031 c 1.7362,-2.2238 3.4629,-4.4548 5.1875,-6.6875 l 1.2598,-1.6189 c 1.9922,-2.5792 3.8721,-5.1784 5.666,-7.9007 8.8266,-10.8352 18.6985,-22.6875 25.8867,-33.1054 10.6912,-13.056 20.9267,-26.4524 30.5625,-38.6875 2.7175,-3.4773 5.4237,-6.9559 8.0274,-10.5196 l 1.2302,-1.6777 c 1.1264,-1.542 2.2471,-3.0883 3.3674,-4.6348 11.3296,-13.5756 21.4909,-26.3819 31.7815,-39.8908 l 1.2693,-1.6639 1.3267,-1.7397 c 2.7716,-3.6185 5.5732,-7.2139 8.3725,-10.811 l 1.8106,-2.3274 c 4.0982,-5.2639 8.2156,-10.5123 12.3449,-15.7518 3.0426,-3.8663 6.0438,-7.7625 9.032,-11.6708 3.8695,-5.0549 7.84,-10.0173 11.8985,-14.9219 1.2056,-1.4582 2.401,-2.9249 3.5781,-4.4063 12.9983,-14.0657 18.0867,-27.342 23.8359,-43.2011 1.4694,-4.0442 2.955,-8.0824 4.4395,-12.1211 2.3429,-6.3787 4.6785,-12.7601 7.0083,-19.1436 3.3698,-9.2302 6.7875,-18.4422 10.2283,-27.6462 1.5287,-4.0914 3.0511,-8.1851 4.5739,-12.2786 l 0.9733,-2.6156 c 5.4533,-14.6568 10.8949,-29.318 16.3392,-43.9781 7.2933,-19.6391 14.5882,-39.2776 21.8975,-58.9107 6.7106,-18.0262 13.4063,-36.0579 20.1025,-54.0893 7.2933,-19.6391 14.5882,-39.2776 21.8975,-58.9107 6.7106,-18.0262 13.4063,-36.0579 20.1025,-54.0893 7.2933,-19.6391 14.5882,-39.2776 21.8975,-58.9107 6.4225,-17.2523 12.8313,-34.5098 19.2402,-51.7672 15.0984,-40.6565 15.0984,-40.6565 22.4873,-60.5096 l 0.9564,-2.5697 c 2.4379,-6.5502 4.8763,-13.1002 7.3149,-19.6502 2.1598,-5.8016 4.3194,-11.6033 6.4787,-17.4051 l 0.9539,-2.5631 c 7.475,-20.0861 14.9347,-40.1777 22.3959,-60.2689 6.7184,-18.0909 13.4396,-36.1807 20.1727,-54.2662 6.7106,-18.0262 13.4063,-36.0579 20.1025,-54.0893 7.2933,-19.6391 14.5882,-39.2776 21.8975,-58.9107 6.7106,-18.0262 13.4063,-36.0579 20.1025,-54.0893 13.6548,-36.7693 13.6548,-36.7693 20.1059,-54.0979 0.891,-2.3938 1.7818,-4.7877 2.6724,-7.1817 l 0.9177,-2.4665 c 0.6368,-1.7116 1.2735,-3.4231 1.9103,-5.1347 2.1737,-5.8421 4.3488,-11.6837 6.5246,-17.525 2.6478,-7.1087 5.294,-14.2181 7.9387,-21.3279 1.4771,-3.9706 2.9548,-7.9408 4.4343,-11.9104 1.3988,-3.7529 2.7956,-7.5065 4.191,-11.2607 0.5172,-1.3907 1.0352,-2.7811 1.554,-4.1712 6.1664,-15.6202 6.1664,-15.6202 9.7511,-31.924 1.3992,-5.2773 3.1296,-10.4056 4.9492,-15.5508 l 0.9113,-2.5895 c 4.3531,-12.3394 8.7779,-24.6535 13.2042,-36.9668 0.7596,-2.1133 1.519,-4.2267 2.2783,-6.34 6.8816,-19.1493 13.825,-38.2745 20.8655,-57.366 6.0993,-16.5392 12.1164,-33.107 18.104,-49.687 6.9472,-19.236 13.9688,-38.4425 21.0625,-57.625 7.7379,-20.9256 15.3304,-41.8997 22.8515,-62.9038 7.5198,-20.9991 15.1515,-41.9524 22.8903,-62.872 7.0278,-19.0001 13.943,-38.0381 20.7614,-57.1143 4.9071,-13.7126 9.9718,-27.3616 15.1218,-40.9849 5.3214,-14.0978 11.53,-24.0491 18.5625,-36.0625 l 1.8164,-3.0976 c 1.2864,-2.2534 2.4951,-4.5038 3.6211,-6.8399 0.2399,-0.433 0.3348,-0.5895 1,-2 -29.8316,13.8702 -58.2316,29.8184 -85,49 l -2.2431,1.6036 c -14.501,10.4118 -28.4879,21.4081 -41.6553,33.4746 -1.9019,1.7393 -3.8348,3.4295 -5.7891,5.1093 -12.0375,10.4993 -24.0213,21.4801 -34.4101,33.629 -1.9092,2.1914 -3.8723,4.3268 -5.8496,6.4567 -5.6092,6.0475 -10.8975,12.2849 -16.0528,18.7268 -0.9224,1.1309 -1.8456,2.2611 -2.7695,3.3907 -58.1267,71.3846 -96.1904,158.9595 -117.7305,316.7968 l -0.063,1.9546 c -0.3271,10.146 -0.4852,20.2894 -0.5812,30.44 -1.0208,100.6696 -22.7738,198.6835 -101.8555,318.418 -0.8439,1.1001 -1.6876,2.2003 -2.5312,3.3007 -15.8075,20.4957 -33.4055,40.8986 -53.1446,57.7149 -1.8698,1.5964 -3.7157,3.2121 -5.5546,4.8437 -9.2545,8.1767 -18.8309,15.8125 -28.7696,23.1407 l -2.0693,1.5268 c -33.197,24.3239 -70.1301,43.7945 -108.9307,57.4732 l -3.0097,1.0683 c -13.0757,4.5761 -26.3293,8.1376 -39.8028,11.3067 l -2.1819,0.5137 c -16.6354,4.0229 -35.2379,9.3904 -49.3181,11.4081 -9.4008,0.8917 -18.6905,2.115 -28,3.7032 l -3.1352,0.5314 c -4.0945,0.6975 -8.1868,1.403 -12.2749,2.1365 -8.7163,1.4365 -17.4333,1.7049 -26.2515,1.9031 -5.8982,0.1585 -11.6244,0.6107 -17.4712,1.4133 -11.7997,1.5368 -23.699,1.5315 -35.5808,1.7036 -4.0041,0.059 -8.0074,0.145 -12.011,0.23 -19.9479,0.3629 -39.9496,-0.013 -59.5879,-3.9179 l -3.1843,-0.6282 c -83.179,-10.5073 -119.4275,-56.6704 -154.1594,-112.8758 -3.9674,-6.4151 -8.0183,-12.7741 -12.0938,-19.121 -1.3425,-2.0925 -2.7729,-3.8286 -4.0273,-5.975 l -1.98,-3.3878 c -3.0288,-4.7267 -6.0429,-9.4626 -9.0552,-14.1997 l -1.7312,-2.722 c -2.2847,-3.5927 -4.5687,-7.1859 -6.8528,-10.779 -6.7477,-10.6141 -13.5079,-21.22 -20.291,-31.8115 -6.7803,-10.5871 -13.5374,-21.1887 -20.2822,-31.7984 -2.9045,-4.5681 -5.8113,-9.1348 -8.7178,-13.7016 -1.1667,-1.8334 -2.3333,-3.6667 -3.5,-5.5 l -1.75,-2.75 c -75.25,-118.25 -75.25,-118.25 -76.9995,-120.9993 -1.1682,-1.8358 -2.3365,-3.6716 -3.5049,-5.5073 -2.8927,-4.5454 -5.7848,-9.0912 -8.6753,-13.638 -6.1749,-9.7115 -12.3636,-19.4141 -18.5703,-29.1054 -6.7803,-10.5871 -13.5374,-21.1887 -20.2822,-31.7984 -2.9045,-4.5681 -5.8113,-9.1348 -8.7178,-13.7016 -1.1667,-1.8334 -2.3333,-3.6667 -3.5,-5.5 l -1.75,-2.75 c -75.25,-118.2501 -75.25,-118.2501 -76.9995,-120.9993 -1.1682,-1.8358 -2.3365,-3.6716 -3.5049,-5.5073 -2.8927,-4.5454 -5.7848,-9.0912 -8.6753,-13.638 -6.1749,-9.7115 -12.3636,-19.4141 -18.5703,-29.1055 -6.7803,-10.587 -13.5374,-21.1886 -20.2822,-31.7983 -2.9045,-4.5681 -5.8113,-9.1348 -8.7178,-13.7017 -1.1667,-1.8333 -2.3333,-3.6666 -3.5,-5.5 l -1.75,-2.75 c -61.25,-96.25 -61.25,-96.25 -63.0012,-99.0019 -1.1626,-1.8269 -2.3252,-3.6537 -3.4878,-5.4805 -2.9799,-4.6823 -5.959,-9.3651 -8.9368,-14.0488 l -1.8457,-2.9023 c -1.1409,-1.7941 -2.2815,-3.5884 -3.4218,-5.3829 -3.2434,-5.0995 -6.5029,-10.1885 -9.7723,-15.2714 l -1.2536,-1.9496 c -1.0102,-1.5709 -2.0205,-3.1417 -3.0308,-4.7126 l -5e-4,2.2338 c -0.014,62.6066 -0.029,125.2132 -0.044,187.8197 l -9e-4,3.7566 c -0.02,82.0272 -0.04,164.0545 -0.1131,396.2785 v 6.631 c -0.021,62.6332 -0.043,125.2663 -0.066,187.8994 v 6.9547 l -8e-4,2.3202 c -0.01,28.7898 -0.021,57.5796 -0.031,86.3695 v 9.3841 c -0.026,73.8276 -0.05,147.6553 -0.066,221.483 l -5e-4,2.3544 c -0.01,25.8364 -0.011,51.6728 -0.016,77.5092 0,23.3444 -0.01,46.6888 -0.015,70.0331 l -6e-4,2.3239 c -0.011,48.0354 -0.025,96.0708 -0.043,144.1062 l -8e-4,2.2486 c -0.012,32.589 -0.025,65.178 -0.039,97.767 -0.01,13.1113 -0.011,26.2226 -0.016,39.3339 -9e-4,2.1739 0,4.3478 0,6.5218 -0.014,33.2471 -0.025,66.4942 -0.029,99.7412 l -2e-4,2.1722 v 34.592 c 0,32.7434 -0.01,65.4869 -0.023,98.2304 l -9e-4,2.0144 c -0.01,13.8566 -0.014,27.7132 -0.022,41.5698 0,6.4332 -0.01,12.8664 -0.011,19.2996 v 3.8215 c -0.011,19.9702 -0.011,39.9405 -0.01,59.9108 0,19.6363 0,39.2725 -0.023,58.9088 -0.011,11.5125 -0.013,23.0249 0,34.5374 0.01,7.6503 2e-4,15.3006 -0.014,22.9509 -0.01,4.334 -0.011,8.6678 -5e-4,13.0018 0.038,17.1629 -0.084,34.0031 -3.3949,50.9207 l -0.718,3.7396 c -0.5888,2.9204 -1.2537,5.8062 -1.9695,8.6979 l -0.7746,3.1499 c -9.4764,37.1767 -28.2439,72.2029 -54.9847,99.8081 -1.1105,1.1471 -2.2142,2.3009 -3.3134,3.4589 -9.673,10.1718 -19.8161,18.9973 -31.2398,27.1456 l -1.8042,1.3173 c -33.8645,24.6235 -78.6582,40.6698 -120.7427,40.8858 l -2.7027,0.017 c -1.8824,0.01 -3.7649,0.016 -5.6474,0.02 -2.8042,0.01 -5.6076,0.041 -8.4116,0.072 -17.024,0.1006 -33.5892,-1.9059 -50.1289,-6 l -3.1499,-0.7747 c -37.1767,-9.4764 -72.2029,-28.2438 -99.8081,-54.9846 -1.1472,-1.1106 -2.3009,-2.2143 -3.459,-3.3135 -10.1717,-9.6729 -18.9972,-19.8161 -27.1455,-31.2397 l -1.3174,-1.8042 c -24.3684,-33.5137 -40.9391,-78.4806 -40.8068,-120.2325 v -2.6337 c 0,-2.9082 0,-5.8163 0.01,-8.7245 -7e-4,-2.1167 0,-4.2334 0,-6.3501 0,-5.8351 1e-4,-11.6702 0,-17.5054 0,-6.341 0,-12.682 -6e-4,-19.023 0,-11.1194 -4e-4,-22.2388 0,-33.3581 0,-11.9308 0.01,-23.8615 0.01,-35.7923 v -2.2834 c -2e-4,-3.8423 -4e-4,-7.6846 -6e-4,-11.5269 -10e-4,-27.8115 0,-55.623 0.01,-83.4345 0.01,-27.5434 0.01,-55.0867 0.011,-82.6301 l 10e-5,-2.5919 c 3e-4,-7.8118 6e-4,-15.6237 9e-4,-23.4356 6e-4,-19.4197 0,-38.8394 0,-58.2591 l 1e-4,-2.6798 c 0,-43.0209 0.01,-86.0419 0.015,-129.0628 0,-14.9298 0,-29.8595 0.01,-44.7892 l 4e-4,-2.8059 c 0.01,-43.0425 0.01,-86.085 0.013,-129.1275 l 6e-4,-8.3828 c 10e-4,-18.5177 0,-37.0354 0,-55.5531 0,-36.8457 0,-73.6915 0.01,-110.5373 l 5e-4,-5.2641 c 0.01,-78.9953 0.016,-157.9906 0.026,-236.9859 l 3e-4,-2.2415 c 10e-4,-10.9034 0,-21.8068 0,-32.7101 l 5e-4,-3.8274 c 0,-24.8158 0.01,-49.6316 0.011,-74.4473 H 929.01898 l 0.0202,46.744 c 0.004,10.4658 0.009,20.9316 0.0131,31.3974 l 8.3e-4,2.0317 c 0.005,10.9542 0.009,21.9085 0.0134,32.8627 l 9.1e-4,2.2344 c 0.0321,79.0213 0.0597,158.0425 0.0785,237.0638 l 10e-4,5.2671 c 0.009,36.8539 0.0169,73.7078 0.0244,110.5617 0.004,18.5135 0.008,37.027 0.0116,55.5406 6e-4,2.7926 10e-4,5.5853 0.002,8.3779 0.009,42.9926 0.0209,85.9851 0.04,128.9776 l 10e-4,2.8002 c 0.007,14.8983 0.0135,29.7966 0.0204,44.6948 0.0198,42.9224 0.038,85.8448 0.0458,128.7672 l 4.9e-4,2.6759 c 0.003,19.3872 0.006,38.7745 0.008,58.1618 7.9e-4,7.8013 0.002,15.6026 0.003,23.404 l 3.1e-4,2.5873 c 0.003,27.4893 0.0161,54.9786 0.0339,82.4679 0.0179,27.7014 0.0264,55.4028 0.022,83.1042 -6.1e-4,3.8323 -10e-4,7.6645 -0.002,11.4967 l -2.7e-4,2.2763 c -10e-4,11.8719 0.008,23.7437 0.021,35.6156 0.0128,11.6876 0.0145,23.3752 0.005,35.0628 -0.005,6.2466 -0.004,12.493 0.009,18.7396 0.0122,5.6926 0.0104,11.385 -0.002,17.0777 -0.002,2.0371 6.8e-4,4.0742 0.009,6.1114 0.0702,17.7649 -1.79327,35.061 -6.06921,52.3352 l -0.77466,3.1499 c -9.47636,37.1767 -28.24382,72.2029 -54.98462,99.8081 -1.11052,1.1471 -2.21428,2.3009 -3.31347,3.4589 -9.67293,10.1718 -19.81608,18.9973 -31.23975,27.1456 l -1.8042,1.3173 c -33.86452,24.6235 -78.6582,40.6698 -120.74267,40.8858 l -2.7027,0.017 c -1.88246,0.01 -3.76493,0.016 -5.6474,0.02 -2.80419,0.01 -5.60761,0.041 -8.41162,0.072 -17.02403,0.1006 -33.58926,-1.9059 -50.12891,-6 l -3.1499,-0.7747 c -37.1767,-9.4764 -72.20294,-28.2438 -99.80811,-54.9846 -1.14718,-1.1106 -2.30094,-2.2143 -3.45898,-3.3135 -10.17174,-9.6729 -18.99724,-19.8161 -27.14551,-31.2397 l -1.31738,-1.8042 C 483.70339,3869.813 467.8085,3824.5815 467.88723,3781.907 l -0.006,-3.3071 c -0.005,-3.6657 -0.004,-7.3313 -0.002,-10.9969 -0.002,-2.6624 -0.005,-5.3249 -0.009,-7.9873 -0.006,-5.8113 -0.009,-11.6226 -0.01,-17.434 -5.4e-4,-8.6996 -0.007,-17.3992 -0.0143,-26.0989 -0.0125,-14.8263 -0.0203,-29.6526 -0.0255,-44.479 -0.005,-15.0268 -0.0128,-30.0537 -0.0229,-45.0806 l -0.002,-2.8749 c -0.003,-4.8374 -0.007,-9.6748 -0.01,-14.5122 -0.0239,-35.024 -0.043,-70.0479 -0.0596,-105.0719 -0.0164,-34.6885 -0.0349,-69.3771 -0.0561,-104.0657 l -0.002,-3.2636 c -0.006,-9.8367 -0.0121,-19.6734 -0.0181,-29.51 -0.0151,-24.4537 -0.0299,-48.9074 -0.0444,-73.3611 l -0.002,-3.3745 c -0.0322,-54.1802 -0.0608,-108.3603 -0.0891,-162.5405 -0.01,-18.8034 -0.0196,-37.6068 -0.0296,-56.4103 l -0.002,-3.5338 c -0.0286,-54.2055 -0.0597,-108.4109 -0.0915,-162.6163 l -0.006,-10.5562 c -0.0137,-23.3188 -0.0274,-46.6376 -0.0412,-69.9564 -0.0274,-46.3991 -0.0545,-92.7983 -0.0814,-139.1975 l -0.004,-6.6291 c -0.0578,-99.4841 -0.11246,-198.9683 -0.16582,-298.4524 l -0.002,-2.8231 c -0.025,-46.5927 -0.0498,-93.1855 -0.0744,-139.7782 l -0.22738,2.1412 c -4.45258,41.9294 -8.91131,83.8582 -13.37798,125.7861 -0.53695,5.0402 -1.07384,10.0805 -1.6107,15.1207 l -0.32387,3.0406 c -1.72781,16.2224 -3.45148,32.4452 -5.17361,48.6682 -1.76864,16.6603 -3.54177,33.3201 -5.31901,49.9795 -1.0955,10.2704 -2.18756,20.5411 -3.27514,30.8122 -0.74727,7.0542 -1.49892,14.1078 -2.25392,21.1611 -0.43472,4.0625 -0.8676,8.1251 -1.29526,12.1883 -4.86564,46.1941 -4.86564,46.1941 -12.18219,63.7153 -0.89139,2.214 -1.63035,4.4206 -2.33594,6.6993 -1.64158,5.0879 -3.93315,9.8481 -6.22265,14.6718 -3.25298,6.4653 -5.9334,13.7064 -10.08985,19.2657 l -1.09131,1.7314 c -2.53557,4.0042 -5.12708,7.9713 -7.78759,11.8936 -1.00421,1.4885 -1.98971,2.9897 -2.96094,4.5 -2.82729,4.374 -5.66743,8.0254 -9.47266,11.625 l -1.6875,2.3125 c -3.39933,3.1742 -5.34884,5.9593 -8.21875,8.8593 l -1.7395,1.7517 -1.85425,1.8265 -1.90698,1.8908 c -4.92914,4.83 -10.07788,9.2088 -15.59302,13.3592 -1.5634,1.228 -3.12592,2.4571 -4.6875,3.6875 -5.89498,4.5585 -11.76048,8.7351 -18.3125,12.3125 l -2.46484,1.371 c -10.92429,6.0343 -21.82304,11.3037 -33.53516,15.629 -1.39005,0.5345 -2.77935,1.0711 -4.16797,1.6093 -1.42312,0.547 -2.8463,1.0939 -4.26953,1.6407 l -2.00683,0.7832 c -3.85169,1.4641 -7.63765,2.4508 -11.55567,3.3449 -1.85867,0.4613 -3.41045,0.6385 -5.5625,1.0594 -6.44053,1.6259 -12.85225,2.7121 -19.4375,3.5625 l -2.12158,0.2778 c -26.79422,3.4253 -54.15457,2.2728 -79.87622,-6.593 -2.31276,-0.7911 -4.64846,-1.4644 -7.0022,-2.1223 -4.88231,-1.4489 -9.39275,-3.4114 -14,-5.5625 -1.33242,-0.5855 -2.66579,-1.1687 -4,-1.75 -21.79906,-9.727 -21.79906,-9.727 -30,-15.25 -4.79669,-3.8786 -10.17944,-6.4041 -16,-11 -1.12046,-0.8399 -2.24301,-1.6769 -3.36719,-2.5118 -1.1902,-0.8918 -2.3803,-1.7837 -3.57031,-2.6757 l -1.75806,-1.2969 C 70.3202,2696.5265 56.76744,2683.4697 47.01631,2669.9955 l -1.9375,-2.375 c -3.20554,-4.0798 -6.11574,-8.3564 -9.0625,-12.625 l -1.50391,-2.086 c -6.87221,-9.7746 -11.78766,-20.9707 -16.49609,-31.914 l -0.94922,-2.0821 C 4.78744,2591.9758 -0.87405,2563.7896 -0.85552,2534.2318 l -0.004,-3.5608 c 0.12229,-39.4153 5.32599,-78.6624 9.65048,-117.7829 1.34616,-12.19 2.65534,-24.384 3.96362,-36.5781 2.41433,-22.4951 4.85575,-44.9871 7.31307,-67.4775 2.44121,-22.3443 4.86893,-44.69 7.27936,-67.0376 l 0.22898,-2.1228 c 0.92174,-8.5455 1.8429,-17.0911 2.76388,-25.6367 1.40113,-13.0004 2.80346,-26.0007 4.206,-39.0009 0.15714,-1.4565 0.31427,-2.9131 0.47139,-4.3696 2.38884,-22.144 4.7837,-44.2874 7.18337,-66.4302 7.77963,-71.7867 15.51227,-143.5782 26.03389,-242.3203 0.21966,-2.0626 0.43933,-4.1251 0.65901,-6.1877 2.67298,-25.0972 5.34498,-50.1946 8.01533,-75.2921 3.85363,-36.2186 7.71352,-72.4365 11.57887,-108.6539 0.68327,-6.4021 1.36649,-12.8043 2.04971,-19.2065 l 0.40653,-3.8094 0.80962,-7.5866 0.80493,-7.5428 c 7.38349,-69.1876 14.75964,-138.3759 22.07356,-207.571 1.18555,-11.2157 2.37271,-22.4312 3.56111,-33.6466 l 0.48297,-4.5583 c 0.6222,-5.8723 1.24444,-11.7445 1.86692,-17.6167 1.69715,-16.0106 3.38841,-32.0217 5.06743,-48.0342 0.98237,-9.3646 1.97159,-18.7284 2.9668,-28.0916 0.65047,-6.1229 1.29295,-12.2465 1.92804,-18.371 0.37802,-3.6241 0.76468,-7.2473 1.15394,-10.8702 0.17205,-1.6169 0.34072,-3.2342 0.5053,-4.852 1.49639,-14.6763 4.22469,-29.0714 8.91469,-43.0909 l 0.73633,-2.2714 c 0.72388,-2.2254 1.46027,-4.4463 2.20117,-6.6661 l 0.85107,-2.558 c 4.97479,-12.7436 12.29764,-28.5296 19.02002,-39.6216 2.04864,-4.6348 6.53281,-10.3771 9.70704,-14.1914 3.64655,-4.1776 6.82724,-8.7638 9.98437,-13.3165 2.18575,-3.0982 4.53041,-5.9086 7.25037,-8.553 7.72748,-8.8659 17.61835,-18.001 26.37072,-24.443 1.42785,-1.0348 2.81922,-2.12 4.19532,-3.2227 2.65973,-2.1246 5.37034,-4.1511 8.12109,-6.1563 l 2.78125,-2.0351 c 2.51961,-1.763 5.06317,-3.3543 7.71875,-4.9024 l 2.83203,-1.6835 c 5.63378,-3.3153 11.2495,-6.5386 17.16797,-9.3165 l 2.47656,-1.1757 c 17.74471,-8.262 36.50479,-14.7621 55.79432,-18.3151 1.74238,-0.3242 3.48075,-0.6712 5.21281,-1.0466 10.23702,-1.9541 20.3365,-1.4785 30.70661,-1.1888 z"
     fill="#FFFFFF"
     id="path292"
     style="fill:#ffffff"
     sodipodi:nodetypes="cccccsssssssssssssssssssssssssssscccccccccccccccsssscssssssscssssssscssssssscsssssssccccsscccscccccccccccccccccccscccccccccccsccccsccscccscccccccccccccccccccscccccsccccscccccccccccscccccccccccccccccccccccccccsccscscscsccccsccccccccscsssscccccccccccccccccscccssssccccccscccccsssssssssssssscssssssssssssccccccccccccccccccccccccccccccccccccccccccccccccsssssssssssssccccccccccssscccssssscsssssssccccccccccccccccccccccccccccccscccscccccccccccccccccccccccccccccccccccccccccccccccscccscccccsssssssssssssssssssssssssssccccscssssccccccccccccccccscccccccccscccccccscccccscsssssssssscssssssscssssssssscsscsssssscssssssssssssssssssssssscscccccscccccccccscccccccccssssssssssssssssssssssccsssssssssssssssssssssssssccccscccccccccscccccccsssssssssssssssssssssscssssssssccccccccccccccccccccccccccccccccccccccccsccccsssssssssssscsssssscccccccccccccccccccccccc" />
  <path
     d="m 3683.4375,87.796875 c 1.7263,-0.01045 1.7263,-0.01045 3.4875,-0.02112 3.6917,-0.0173 7.3833,-0.02372 11.075,-0.02576 1.8882,-0.0015 1.8882,-0.0015 3.8145,-0.0031 17.9613,0.0097 35.4206,0.458085 53.1855,3.253052 1.9059,0.260079 3.8122,0.517886 5.7188,0.773437 35.7864,5.087664 70.9949,16.049676 103.7871,31.084476 2.2877,1.04758 4.5842,2.07229 6.8847,3.09131 26.8416,12.05182 52.8232,28.4167 75.6094,47.05078 0.9423,0.75281 1.8846,1.50562 2.8555,2.28125 5.339,4.30065 10.5027,8.75728 15.5625,13.38281 1.4291,1.29292 2.8648,2.57903 4.3264,3.8352 5.5176,4.74458 10.686,9.78161 15.8181,14.93824 0.8115,0.80759 1.6229,1.61519 2.459,2.44726 4.8674,4.87526 9.5244,9.86042 13.9785,15.11523 0.5425,0.63575 1.0849,1.2715 1.6438,1.92652 18.0778,21.32368 33.4046,44.19275 46.9822,68.60425 0.856,1.53842 1.7166,3.07437 2.584,4.60644 28.7998,50.943 45.7538,113.74717 45.9931,172.30029 0.011,1.72634 0.011,1.72634 0.021,3.48755 0.017,3.69169 0.024,7.38323 0.026,11.07495 0,1.25877 0,2.51754 0,3.81446 -0.01,17.96135 -0.4581,35.42061 -3.253,53.18554 -0.2601,1.90595 -0.5179,3.8122 -0.7735,5.71875 -5.0876,35.78647 -16.0497,70.99493 -31.0844,103.78711 -1.0476,2.28775 -2.0723,4.58421 -3.0914,6.88477 -12.0518,26.84155 -28.4166,52.82313 -47.0507,75.60937 -0.7528,0.94231 -1.5057,1.88461 -2.2813,2.85547 -4.3006,5.339 -8.7573,10.50277 -13.3828,15.5625 -1.2929,1.42914 -2.579,2.86488 -3.8352,4.32642 -4.7446,5.51757 -9.7816,10.68606 -14.9382,15.81811 -0.8076,0.81147 -1.6152,1.62293 -2.4473,2.45899 -4.8753,4.8674 -9.8604,9.52437 -15.1152,13.97851 -0.6358,0.54246 -1.2715,1.08491 -1.9265,1.6438 -21.3237,18.07779 -44.1928,33.40462 -68.6043,46.98218 -1.5384,0.85607 -3.0744,1.71661 -4.6064,2.58399 -50.943,28.79984 -113.7472,45.75382 -172.3003,45.99316 -1.7264,0.0104 -1.7264,0.0104 -3.4876,0.0211 -3.6917,0.0173 -7.3832,0.0237 -11.0749,0.0258 -1.8882,0.002 -1.8882,0.002 -3.8145,0.003 -17.9613,-0.01 -35.4206,-0.45809 -53.1855,-3.25306 -1.906,-0.26007 -3.8122,-0.51788 -5.7188,-0.77343 -35.7864,-5.08767 -70.9949,-16.04968 -103.7871,-31.08448 -2.2877,-1.04757 -4.5842,-2.07229 -6.8847,-3.0913 -26.8416,-12.05183 -52.8232,-28.4167 -75.6094,-47.05079 -0.9423,-0.75281 -1.8846,-1.50562 -2.8555,-2.28125 -5.339,-4.30065 -10.5028,-8.75727 -15.5625,-13.38281 -1.4291,-1.29292 -2.8649,-2.57903 -4.3264,-3.8352 -5.5176,-4.74458 -10.6861,-9.78161 -15.8181,-14.93824 -0.8115,-0.80759 -1.623,-1.61519 -2.459,-2.44726 -4.8674,-4.87526 -9.5244,-9.86042 -13.9785,-15.11524 -0.5425,-0.63574 -1.0849,-1.27149 -1.6438,-1.92651 -18.0778,-21.32368 -33.4046,-44.19275 -46.9822,-68.60425 -0.8561,-1.53842 -1.7166,-3.07437 -2.584,-4.60644 -28.7998,-50.943 -45.7538,-113.74717 -45.9932,-172.3003 -0.01,-1.15089 -0.014,-2.30178 -0.021,-3.48754 -0.017,-3.69169 -0.024,-7.38323 -0.026,-11.07496 0,-1.88815 0,-1.88815 0,-3.81445 0.01,-17.96135 0.4581,-35.42061 3.2531,-53.18555 0.2601,-1.90594 0.5179,-3.81219 0.7734,-5.71875 5.0877,-35.78646 16.0497,-70.99492 31.0845,-103.7871 1.0476,-2.28775 2.0723,-4.58421 3.0913,-6.88477 12.0518,-26.84155 28.4167,-52.82313 47.0508,-75.60938 0.7528,-0.9423 1.5056,-1.8846 2.2813,-2.85546 4.3006,-5.339 8.7572,-10.50277 13.3828,-15.5625 1.2929,-1.42914 2.579,-2.86488 3.8352,-4.32642 4.7445,-5.51757 9.7816,-10.68606 14.9382,-15.81811 0.8076,-0.81147 1.6152,-1.62293 2.4473,-2.45899 4.8752,-4.8674 9.8604,-9.52437 15.1152,-13.97851 0.9536,-0.81368 0.9536,-0.81368 1.9265,-1.6438 21.3237,-18.07778 44.1928,-33.40461 68.6043,-46.98218 1.5384,-0.85606 3.0743,-1.71661 4.6064,-2.58398 50.943,-28.79981 113.7472,-45.753796 172.3003,-45.993138 z"
     fill="#FFFFFF"
     id="path294"
     style="fill:#ffffff" />
  <path
     d="m 907.4375,-0.203125 c 1.72634,-0.0104535 1.72634,-0.0104535 3.48755,-0.0211182 C 914.61674,-0.2415383 918.30827,-0.2479624 922,-0.25 c 1.88815,-0.001511 1.88815,-0.001511 3.81445,-0.003052 C 943.7758,-0.2433101 961.23507,0.20503335 979,3 c 1.90594,0.260079 3.8122,0.5178864 5.71875,0.7734375 35.78645,5.0876633 70.99495,16.0496775 103.78715,31.0844725 2.2877,1.047578 4.5842,2.072292 6.8847,3.091309 26.8416,12.051826 52.8232,28.4167 75.6094,47.050781 0.9423,0.752813 1.8846,1.505625 2.8555,2.28125 5.339,4.300652 10.5027,8.75728 15.5625,13.38281 1.4291,1.29292 2.8648,2.57903 4.3264,3.8352 5.5176,4.74458 10.6861,9.78161 15.8181,14.93824 0.8115,0.80759 1.6229,1.61519 2.459,2.44726 4.8674,4.87526 9.5244,9.86042 13.9785,15.11523 0.5425,0.63575 1.0849,1.2715 1.6438,1.92652 18.0778,21.32368 33.4046,44.19275 46.9822,68.60425 0.856,1.53842 1.7166,3.07437 2.584,4.60644 28.7998,50.943 45.7538,113.74717 45.9931,172.30029 0.011,1.72634 0.011,1.72634 0.021,3.48755 0.017,3.69169 0.024,7.38323 0.026,11.07495 10e-4,1.25877 0,2.51754 0,3.81446 -0.01,17.96135 -0.4581,35.42061 -3.253,53.18554 -0.2601,1.90595 -0.5179,3.8122 -0.7735,5.71875 -5.0876,35.78647 -16.0496,70.99493 -31.0844,103.78711 -1.0476,2.28775 -2.0723,4.58421 -3.0914,6.88477 -12.0518,26.84155 -28.4166,52.82313 -47.0507,75.60937 -0.7528,0.94231 -1.5057,1.88461 -2.2813,2.85547 -4.3006,5.339 -8.7573,10.50277 -13.3828,15.5625 -1.2929,1.42914 -2.579,2.86488 -3.8352,4.32642 -4.7446,5.51757 -9.7816,10.68606 -14.9382,15.81811 -0.8076,0.81147 -1.6152,1.62293 -2.4473,2.45899 -4.8753,4.8674 -9.8604,9.52437 -15.1152,13.97851 -0.6358,0.54246 -1.2715,1.08491 -1.9265,1.6438 -21.3237,18.07779 -44.1928,33.40462 -68.6043,46.98218 -1.5384,0.85607 -3.0744,1.71661 -4.6064,2.58399 -50.943,28.79984 -113.74721,45.75382 -172.30033,45.99316 -1.72634,0.0104 -1.72634,0.0104 -3.48755,0.0211 -3.69169,0.0173 -7.38322,0.0237 -11.07495,0.0258 -1.88815,0.002 -1.88815,0.002 -3.81445,0.003 -17.96135,-0.01 -35.42062,-0.45809 -53.18555,-3.25306 -1.90594,-0.26007 -3.8122,-0.51788 -5.71875,-0.77343 -35.78647,-5.08767 -70.99492,-16.04968 -103.78711,-31.08448 -2.28774,-1.04757 -4.5842,-2.07229 -6.88476,-3.0913 -26.84156,-12.05183 -52.82314,-28.4167 -75.60938,-47.05079 -0.9423,-0.75281 -1.88461,-1.50562 -2.85547,-2.28125 -5.33899,-4.30065 -10.50277,-8.75727 -15.5625,-13.38281 -1.42913,-1.29292 -2.86487,-2.57903 -4.32641,-3.8352 -5.51757,-4.74458 -10.68607,-9.78161 -15.81812,-14.93824 -0.81146,-0.80759 -1.62293,-1.61519 -2.45898,-2.44726 -4.86741,-4.87526 -9.52437,-9.86042 -13.97852,-15.11524 -0.54245,-0.63574 -1.08491,-1.27149 -1.6438,-1.92651 -18.07778,-21.32368 -33.40461,-44.19275 -46.98218,-68.60425 -0.85606,-1.53842 -1.71661,-3.07437 -2.58398,-4.60644 -28.79984,-50.943 -45.75382,-113.74717 -45.99316,-172.3003 -0.007,-1.15089 -0.0139,-2.30178 -0.0211,-3.48754 -0.0173,-3.69169 -0.0237,-7.38323 -0.0258,-11.07496 -0.002,-1.88815 -0.002,-1.88815 -0.003,-3.81445 0.01,-17.96135 0.45808,-35.42061 3.25305,-53.18555 0.26008,-1.90594 0.51789,-3.81219 0.77344,-5.71875 5.08766,-35.78646 16.04968,-70.99492 31.08447,-103.7871 1.04758,-2.28775 2.07229,-4.58421 3.09131,-6.88477 12.05182,-26.84155 28.4167,-52.82313 47.05078,-75.60938 0.75281,-0.9423 1.50563,-1.8846 2.28125,-2.85546 4.30065,-5.339 8.75728,-10.50277 13.38281,-15.5625 1.29293,-1.42914 2.57904,-2.86488 3.83521,-4.32642 4.74457,-5.51757 9.7816,-10.68606 14.93823,-15.81811 0.8076,-0.81147 1.6152,-1.62293 2.44727,-2.45899 4.87526,-4.8674 9.86041,-9.52437 15.11523,-13.97851 0.95362,-0.81368 0.95362,-0.81368 1.92651,-1.643799 21.32369,-18.077783 44.19275,-33.404612 68.60425,-46.982178 1.53842,-0.856065 3.07437,-1.716613 4.60645,-2.583984 C 786.0802,16.990198 848.88437,0.03621688 907.4375,-0.203125 Z"
     fill="#FFFFFF"
     id="path296"
     style="fill:#ffffff" />
</svg>
