<?xml version="1.0" encoding="UTF-8" standalone="no"?>
<!-- Created with Inkscape (http://www.inkscape.org/) -->

<svg
   xmlns:dc="http://purl.org/dc/elements/1.1/"
   xmlns:cc="http://creativecommons.org/ns#"
   xmlns:rdf="http://www.w3.org/1999/02/22-rdf-syntax-ns#"
   xmlns:svg="http://www.w3.org/2000/svg"
   xmlns="http://www.w3.org/2000/svg"
   xmlns:sodipodi="http://sodipodi.sourceforge.net/DTD/sodipodi-0.dtd"
   xmlns:inkscape="http://www.inkscape.org/namespaces/inkscape"
   width="50"
   height="51"
   id="svg2"
   version="1.1"
   inkscape:version="0.48.4 r9939"
   sodipodi:docname="close_cross.svg"
   inkscape:export-filename="/home/valentine/unvanq/gitpo/main/ui/shared/close_cross.png"
   inkscape:export-xdpi="130.42874"
   inkscape:export-ydpi="130.42874">
  <defs
     id="defs4" />
  <sodipodi:namedview
     id="base"
     pagecolor="#941b1b"
     bordercolor="#666666"
     borderopacity="1.0"
     inkscape:pageopacity="0"
     inkscape:pageshadow="2"
     inkscape:zoom="4"
     inkscape:cx="58.854011"
     inkscape:cy="20.927767"
     inkscape:document-units="px"
     inkscape:current-layer="layer1"
     showgrid="false"
     inkscape:showpageshadow="false"
     borderlayer="true"
     width="50px"
     inkscape:window-width="1916"
     inkscape:window-height="1041"
     inkscape:window-x="0"
     inkscape:window-y="18"
     inkscape:window-maximized="0" />
  <metadata
     id="metadata7">
    <rdf:RDF>
      <cc:Work
         rdf:about="">
        <dc:format>image/svg+xml</dc:format>
        <dc:type
           rdf:resource="http://purl.org/dc/dcmitype/StillImage" />
        <dc:title></dc:title>
      </cc:Work>
    </rdf:RDF>
  </metadata>
  <g
     inkscape:label="Layer 1"
     inkscape:groupmode="layer"
     id="layer1"
     transform="translate(0,-1001.3621)">
    <path
       style="fill:#24dcdc;fill-opacity:0.19815668;stroke:none;opacity:0.50000000000000000"
       d="m 13.15625,8.375 c -0.843543,0 -1.697384,0.3223837 -2.34375,0.96875 L 8.78125,11.375 c -1.2927326,1.292733 -1.2927326,3.363517 0,4.65625 L 18.375,25.625 8.78125,35.21875 c -1.2927326,1.292733 -1.2927326,3.363517 0,4.65625 l 2.03125,2.03125 c 1.292733,1.292733 3.363517,1.292733 4.65625,0 l 9.59375,-9.59375 9.59375,9.59375 c 1.292733,1.292733 3.363517,1.292733 4.65625,0 L 41.34375,39.875 c 1.292733,-1.292733 1.292733,-3.363517 0,-4.65625 L 31.75,25.625 41.34375,16.03125 c 1.292733,-1.292733 1.292733,-3.363517 0,-4.65625 L 39.3125,9.34375 c -1.292733,-1.2927326 -3.363517,-1.2927326 -4.65625,0 L 25.0625,18.9375 15.46875,9.34375 C 14.822384,8.6973837 13.999793,8.375 13.15625,8.375 z"
       transform="translate(0,1002.3622)"
       id="rect2985"
       inkscape:connector-curvature="0"
       inkscape:export-filename="/home/valentine/unvanq/gitpo/main/ui/shared/close_cross.png"
       inkscape:export-xdpi="130.42874"
       inkscape:export-ydpi="130.42874" />
  </g>
</svg>
